<svg version="1.1" width="1000" height="1024" xmlns="http://www.w3.org/2000/svg">
<rect x="0" y="0" width="1000" height="1024" fill="#8d6d64" />
<g transform="scale(4, 4)">
<path d="M 5 45 L 127 218 L -11 271 Z" fill="#000000" fill-opacity="0.501961" />
<path d="M 243.669 -149.907 C 269.444 -67.1155, 269.444 67.1155, 243.669 149.907 C 217.894 232.698, 176.106 232.698, 150.331 149.907 C 124.556 67.1155, 124.556 -67.1155, 150.331 -149.907 C 176.106 -232.698, 217.894 -232.698, 243.669 -149.907" fill="#dfe9d4" fill-opacity="0.501961" />
<path d="M -42.0721 80.163 C -29.1283 46.3353, 2.40999 -1.56197, 28.3707 -26.8185 C 54.3314 -52.0751, 64.8838 -45.1269, 51.94 -11.2992 C 38.9963 22.5285, 7.45795 70.4258, -18.5028 95.6824 C -44.4635 120.939, -55.0158 113.991, -42.0721 80.163" fill="#fffff2" fill-opacity="0.501961" />
<path d="M -16 67 L 50 271 L 73 69 Z" fill="#050000" fill-opacity="0.501961" />
<path d="M 64 156 L 240 161 L 91 97 Z" fill="#e2d3af" fill-opacity="0.501961" />
<path d="M 262.792 200.655 C 261.716 212.978, 251.541 219.221, 240.067 214.599 C 228.592 209.976, 220.163 196.238, 221.239 183.915 C 222.316 171.591, 232.49 165.348, 243.965 169.971 C 255.439 174.593, 263.868 188.331, 262.792 200.655" fill="#b0ffff" fill-opacity="0.501961" />
<path d="M 200.74 193.26 C 230.42 222.94, 230.42 271.06, 200.74 300.74 C 171.06 330.42, 122.94 330.42, 93.2599 300.74 C 63.58 271.06, 63.58 222.94, 93.2599 193.26 C 122.94 163.58, 171.06 163.58, 200.74 193.26" fill="#973e2a" fill-opacity="0.501961" />
<path d="M 3.75728 208.399 C 13.2718 197.797, 24.895 200.069, 29.7184 213.472 C 34.5418 226.876, 30.7388 246.336, 21.2243 256.937 C 11.7097 267.539, 0.0864938 265.268, -4.73688 251.864 C -9.56025 238.46, -5.75729 219, 3.75728 208.399" fill="#fe885b" fill-opacity="0.501961" />
<path d="M 163 115 L 244 115 L 244 140 L 163 140 Z" fill="#723d28" fill-opacity="0.501961" />
<path d="M 144 -16 L 21 26 L 84 119 Z" fill="#8c251c" fill-opacity="0.501961" />
<path d="M 172 -16 L 175 67 L 116 60 Z" fill="#e0ffff" fill-opacity="0.501961" />
<path d="M 211 220 L 95 253 L 190 271 Z" fill="#2d0002" fill-opacity="0.501961" />
<path d="M 230.642 151.557 L 166.392 132.908 L 128.019 163.124 L 135.483 186.732 Z" fill="#dfd9c1" fill-opacity="0.501961" />
<path d="M 91 215 L 19 68 L -16 196 Z" fill="#120012" fill-opacity="0.501961" />
<path d="M 67 164 L 104 271 L 134 141 Z" fill="#76464a" fill-opacity="0.501961" />
<path d="M 87 210 L 241 183 L 78 259 Z" fill="#c38964" fill-opacity="0.501961" />
<path d="M 145.435 72.565 C 152.855 79.9849, 152.855 92.0151, 145.435 99.435 C 138.015 106.855, 125.985 106.855, 118.565 99.435 C 111.145 92.0151, 111.145 79.9849, 118.565 72.565 C 125.985 65.145, 138.015 65.145, 145.435 72.565" fill="#9d2216" fill-opacity="0.501961" />
<path d="M 27.0173 271 L 17.8606 271 L 79.7197 239.246 L 53.7133 66.1867 Z" fill="#190015" fill-opacity="0.501961" />
<path d="M 130.577 187.808 C 145.808 192.884, 145.808 201.116, 130.577 206.192 C 115.347 211.269, 90.6533 211.269, 75.4228 206.192 C 60.1924 201.116, 60.1924 192.884, 75.4228 187.808 C 90.6533 182.731, 115.347 182.731, 130.577 187.808" fill="#2e0013" fill-opacity="0.501961" />
<path d="M 54.0254 4.35731 L 16.2302 50.0344 L 57.3285 26.3159 L 77.8016 5.97192 Z" fill="#2f0011" fill-opacity="0.501961" />
<path d="M 65.1589 109.974 L 69.997 171.221 L 111.576 130.87 L 36.5741 84.0644 Z" fill="#c4af95" fill-opacity="0.501961" />
<path d="M 23.8995 43.2218 C 29.3668 47.5176, 29.3668 54.4824, 23.8995 58.7782 C 18.4322 63.0739, 9.56785 63.0739, 4.10051 58.7782 C -1.36684 54.4824, -1.36684 47.5176, 4.10051 43.2218 C 9.56785 38.9261, 18.4322 38.9261, 23.8995 43.2218" fill="#ebecc7" fill-opacity="0.501961" />
<path d="M 191.092 77.3934 C 201.636 83.2513, 201.636 92.7487, 191.092 98.6066 C 180.548 104.464, 163.452 104.464, 152.908 98.6066 C 142.364 92.7487, 142.364 83.2513, 152.908 77.3934 C 163.452 71.5355, 180.548 71.5355, 191.092 77.3934" fill="#d6efde" fill-opacity="0.501961" />
<path d="M 282.98 268.122 C 296.439 289.166, 290.119 295.586, 268.865 282.461 C 247.612 269.337, 219.472 241.638, 206.013 220.594 C 192.555 199.55, 198.874 193.13, 220.128 206.255 C 241.382 219.379, 269.522 247.078, 282.98 268.122" fill="#b29f7e" fill-opacity="0.501961" />
<path d="M 212.396 191.04 C 209.598 184.757, 211.394 183.481, 216.408 188.189 C 221.422 192.897, 227.756 201.808, 230.554 208.091 C 233.353 214.374, 231.557 215.651, 226.542 210.942 C 221.528 206.234, 215.195 197.324, 212.396 191.04" fill="#000000" fill-opacity="0.501961" />
<path d="M 25 68 L 49 2 L 57 107 Z" fill="#ae4131" fill-opacity="0.501961" />
<path d="M 239 87 L 242 -16 L 265 71 Z" fill="#d0f8f8" fill-opacity="0.501961" />
<path d="M 107.243 87.636 C 109.586 91.1508, 109.586 96.8492, 107.243 100.364 C 104.899 103.879, 101.101 103.879, 98.7574 100.364 C 96.4142 96.8492, 96.4142 91.1508, 98.7574 87.636 C 101.101 84.1213, 104.899 84.1213, 107.243 87.636" fill="#010000" fill-opacity="0.501961" />
<path d="M 121.794 -16 L 103.739 -3.67847 L 119.043 7.77735 L 136.021 11.4209 Z" fill="#000007" fill-opacity="0.501961" />
<path d="M 112 65 L 117 97 L 107 85 Z" fill="#effff3" fill-opacity="0.501961" />
<path d="M 189.485 118.929 C 194.172 122.834, 194.172 129.166, 189.485 133.071 C 184.799 136.976, 177.201 136.976, 172.515 133.071 C 167.828 129.166, 167.828 122.834, 172.515 118.929 C 177.201 115.024, 184.799 115.024, 189.485 118.929" fill="#25112f" fill-opacity="0.501961" />
<path d="M 86 -16 L 139 20 L 59 -6 Z" fill="#d5d0a0" fill-opacity="0.501961" />
<path d="M 78.0605 37.688 C 74.544 32.1234, 77.0242 27.3715, 83.6 27.0741 C 90.1758 26.7768, 98.3572 31.0468, 101.874 36.6113 C 105.39 42.1759, 102.91 46.9279, 96.3342 47.2252 C 89.7584 47.5225, 81.577 43.2526, 78.0605 37.688" fill="#2c0010" fill-opacity="0.501961" />
<path d="M 265 143 L 265 248 L 207 159 Z" fill="#9dcfc6" fill-opacity="0.501961" />
<path d="M 83.721 225.408 C 71.461 229.232, 69.9929 226.28, 80.442 218.813 C 90.891 211.347, 109.3 202.194, 121.56 198.369 C 133.82 194.545, 135.288 197.498, 124.839 204.965 C 114.39 212.431, 95.981 221.584, 83.721 225.408" fill="#86868b" fill-opacity="0.501961" />
<path d="M -9 57 L 71 -9 L 1 -12 Z" fill="#d0d1b0" fill-opacity="0.501961" />
<path d="M 31 271 L 29 199 L -16 206 Z" fill="#aa6249" fill-opacity="0.501961" />
<path d="M 90.1924 165.515 C 95.2692 170.201, 95.2692 177.799, 90.1924 182.485 C 85.1156 187.172, 76.8844 187.172, 71.8076 182.485 C 66.7308 177.799, 66.7308 170.201, 71.8076 165.515 C 76.8844 160.828, 85.1156 160.828, 90.1924 165.515" fill="#a1756e" fill-opacity="0.501961" />
<path d="M 27.1869 44.3559 C 27.4951 40.9149, 30.366 37.1391, 33.5993 35.9224 C 36.8327 34.7056, 39.204 36.5087, 38.8959 39.9496 C 38.5878 43.3905, 35.7169 47.1663, 32.4835 48.3831 C 29.2502 49.5999, 26.8788 47.7968, 27.1869 44.3559" fill="#000000" fill-opacity="0.501961" />
<path d="M 189.78 199.355 L 95.425 231.422 L 155.402 194.683 L 177.454 182.809 Z" fill="#df9d6e" fill-opacity="0.501961" />
<path d="M 128 174 L 156 176 L 172 134 Z" fill="#e2e0c6" fill-opacity="0.501961" />
<path d="M 206 172 L 223 172 L 223 175 L 206 175 Z" fill="#471018" fill-opacity="0.501961" />
<path d="M 196 70 L 219 151 L 228 63 Z" fill="#c0c5af" fill-opacity="0.501961" />
<path d="M 134.229 100.891 L 155.468 98.013 L 140.716 107.707 L 35.9119 97.0488 Z" fill="#5b1c25" fill-opacity="0.501961" />
<path d="M 261 271 L 235 249 L 183 250 Z" fill="#ecb060" fill-opacity="0.501961" />
<path d="M 227.005 167.138 L 226.228 166.508 L 246.995 140.862 L 247.772 141.492 Z" fill="#150013" fill-opacity="0.501961" />
<path d="M 167.138 111.883 C 181.103 116.527, 180.697 122.483, 166.231 125.187 C 151.764 127.891, 128.717 126.318, 114.752 121.674 C 100.788 117.03, 101.194 111.074, 115.66 108.37 C 130.126 105.666, 153.174 107.239, 167.138 111.883" fill="#d1b88d" fill-opacity="0.501961" />
<path d="M 88.6039 58.0354 L 64.1756 77.121 L 41.3961 47.9646 L 65.8244 28.879 Z" fill="#c1664c" fill-opacity="0.501961" />
<path d="M 74.8087 3.18096 L 40.5313 11.6274 L 52.3271 16.3033 L 52.1264 34.8029 Z" fill="#0f000e" fill-opacity="0.501961" />
<path d="M 204 190 L 173 171 L 131 185 Z" fill="#ad543a" fill-opacity="0.501961" />
<path d="M 117 56 L 166 56 L 166 64 L 117 64 Z" fill="#eeffee" fill-opacity="0.501961" />
<path d="M -16 61 L 37 14 L 9 65 Z" fill="#d1cfb7" fill-opacity="0.501961" />
<path d="M -16 231 L 65 112 L 1 70 Z" fill="#1c0016" fill-opacity="0.501961" />
<path d="M 194 101 L 215 101 L 215 130 L 194 130 Z" fill="#cd8451" fill-opacity="0.501961" />
<path d="M 90 157 L 127 156 L 127 171 Z" fill="#341529" fill-opacity="0.501961" />
<path d="M 170.95 122.464 C 173.683 124.417, 173.683 127.583, 170.95 129.536 C 168.216 131.488, 163.784 131.488, 161.05 129.536 C 158.317 127.583, 158.317 124.417, 161.05 122.464 C 163.784 120.512, 168.216 120.512, 170.95 122.464" fill="#210c32" fill-opacity="0.501961" />
<path d="M 111.22 59.6109 L 106.405 53.2218 L 120.78 42.3891 L 125.595 48.7782 Z" fill="#180720" fill-opacity="0.501961" />
<path d="M 168.509 119.186 L 160.962 112.625 L 169.491 102.814 L 177.038 109.375 Z" fill="#925f24" fill-opacity="0.501961" />
<path d="M 74 216 L 87 216 L 87 231 L 74 231 Z" fill="#90898c" fill-opacity="0.501961" />
<path d="M 253 158 L 240 164 L 265 187 Z" fill="#003d39" fill-opacity="0.501961" />
<path d="M 111.093 178.372 L 127.055 191.254 L 83.4804 215.505 L 34.4225 208.547 Z" fill="#2b0011" fill-opacity="0.501961" />
<path d="M 133.627 238.444 L 112.88 258.127 L 168.599 242.82 L 180.039 271 Z" fill="#2e000d" fill-opacity="0.501961" />
<path d="M 201 52 L 239 -16 L 236 67 Z" fill="#9e8487" fill-opacity="0.501961" />
<path d="M 132 249 L 149 249 L 149 255 L 132 255 Z" fill="#e76616" fill-opacity="0.501961" />
<path d="M 224.899 156.343 C 230.367 159.467, 230.367 164.533, 224.899 167.657 C 219.432 170.781, 210.568 170.781, 205.101 167.657 C 199.633 164.533, 199.633 159.467, 205.101 156.343 C 210.568 153.219, 219.432 153.219, 224.899 156.343" fill="#dde4f2" fill-opacity="0.501961" />
<path d="M 192 113 L 192 99 L 168 96 Z" fill="#daffff" fill-opacity="0.501961" />
<path d="M 90.0416 -1.12132 C 103.319 0.0502525, 103.319 1.94975, 90.0416 3.12132 C 76.7638 4.29289, 55.2362 4.29289, 41.9584 3.12132 C 28.6805 1.94975, 28.6805 0.0502525, 41.9584 -1.12132 C 55.2362 -2.29289, 76.7638 -2.29289, 90.0416 -1.12132" fill="#e4c69b" fill-opacity="0.501961" />
<path d="M 101 225 L 56 252 L 45 236 Z" fill="#1e0016" fill-opacity="0.501961" />
<path d="M 175 245 L 221 245 L 221 248 L 175 248 Z" fill="#2a0000" fill-opacity="0.501961" />
<path d="M 150.881 77.0449 L 133.904 77.9346 L 133.119 62.9551 L 150.096 62.0654 Z" fill="#b35949" fill-opacity="0.501961" />
<path d="M 170.024 66.0544 C 165.391 95.5648, 161.914 95.2733, 162.258 65.4033 C 162.603 35.5333, 166.639 -12.6041, 171.272 -42.1145 C 175.906 -71.625, 179.383 -71.3335, 179.038 -41.4634 C 178.694 -11.5934, 174.658 36.5439, 170.024 66.0544" fill="#e8fae6" fill-opacity="0.501961" />
<path d="M 103 229 L 37 259 L 101 271 Z" fill="#be6c45" fill-opacity="0.501961" />
<path d="M 274.648 102.789 C 261.061 106.8, 238.564 109.89, 224.399 109.692 C 210.234 109.494, 209.766 106.082, 223.352 102.072 C 236.939 98.0611, 259.436 94.9704, 273.601 95.1684 C 287.766 95.3664, 288.234 98.7783, 274.648 102.789" fill="#cce6dd" fill-opacity="0.501961" />
<path d="M 227 78 L 233 78 L 233 98 L 227 98 Z" fill="#aa5c22" fill-opacity="0.501961" />
<path d="M 72 203 L 67 148 L -16 196 Z" fill="#1a0017" fill-opacity="0.501961" />
<path d="M 151.121 155.911 C 146.072 161.957, 137.577 162.231, 132.148 156.523 C 126.719 150.815, 126.412 141.286, 131.461 135.24 C 136.51 129.194, 145.005 128.919, 150.434 134.627 C 155.863 140.335, 156.171 149.864, 151.121 155.911" fill="#daa276" fill-opacity="0.501961" />
<path d="M 199.136 206.118 C 198.883 195.711, 203.809 193.974, 210.139 202.239 C 216.469 210.504, 221.806 225.641, 222.059 236.048 C 222.312 246.456, 217.385 248.193, 211.056 239.927 C 204.726 231.662, 199.389 216.526, 199.136 206.118" fill="#756e78" fill-opacity="0.501961" />
<path d="M 228.533 224.039 C 232.779 233.045, 231.412 233.864, 225.48 225.867 C 219.547 217.87, 211.295 204.087, 207.048 195.08 C 202.801 186.074, 204.168 185.256, 210.101 193.252 C 216.034 201.249, 224.286 215.033, 228.533 224.039" fill="#e9daac" fill-opacity="0.501961" />
<path d="M 118.387 64.572 C 122.647 70.301, 120.339 74.3964, 113.232 73.7193 C 106.125 73.0422, 96.9105 67.849, 92.6507 62.1199 C 88.3909 56.3909, 90.699 52.2955, 97.806 52.9727 C 104.913 53.6498, 114.128 58.843, 118.387 64.572" fill="#c47362" fill-opacity="0.501961" />
<path d="M 185.197 236.337 C 190.049 232.212, 199.074 228.018, 205.355 226.97 C 211.637 225.921, 212.796 228.415, 207.944 232.54 C 203.092 236.665, 194.067 240.859, 187.786 241.908 C 181.504 242.956, 180.345 240.462, 185.197 236.337" fill="#0b0020" fill-opacity="0.501961" />
<path d="M 99 74 L 41 63 L 58 108 Z" fill="#6d2327" fill-opacity="0.501961" />
<path d="M 66 112 L 112 112 L 112 134 L 66 134 Z" fill="#c2bda2" fill-opacity="0.501961" />
<path d="M 231 161 L 206 193 L 226 178 Z" fill="#5e6163" fill-opacity="0.501961" />
<path d="M 132 -16 L 139 47 L 174 -14 Z" fill="#a8cfc0" fill-opacity="0.501961" />
<path d="M 127.536 119.444 C 129.488 128.035, 129.488 141.965, 127.536 150.556 C 125.583 159.148, 122.417 159.148, 120.464 150.556 C 118.512 141.965, 118.512 128.035, 120.464 119.444 C 122.417 110.852, 125.583 110.852, 127.536 119.444" fill="#846859" fill-opacity="0.501961" />
<path d="M 44.3358 254.347 C 32.9103 259.835, 27.1766 254.633, 31.5293 242.729 C 35.882 230.825, 48.6728 216.726, 60.0983 211.238 C 71.5238 205.751, 77.2574 210.952, 72.9047 222.857 C 68.552 234.761, 55.7612 248.859, 44.3358 254.347" fill="#0f000e" fill-opacity="0.501961" />
<path d="M 221 154 L 255 122 L 224 109 Z" fill="#956548" fill-opacity="0.501961" />
<path d="M 97.7694 19.3757 C 91.0021 24.3187, 78.7474 27.7453, 70.3978 27.0291 C 62.0481 26.313, 60.7653 21.7254, 67.5326 16.7824 C 74.2999 11.8394, 86.5547 8.41279, 94.9043 9.12891 C 103.254 9.84503, 104.537 14.4327, 97.7694 19.3757" fill="#c8694b" fill-opacity="0.501961" />
<path d="M 178 198 L 179 238 L 117 226 Z" fill="#bd6444" fill-opacity="0.501961" />
<path d="M 33.9956 37.4965 L 49.6099 8.21601 L 37.7666 18.3833 L 26.707 36.072 Z" fill="#461324" fill-opacity="0.501961" />
<path d="M 127 8 L 134 8 L 134 27 L 127 27 Z" fill="#553735" fill-opacity="0.501961" />
<path d="M 113.068 174.557 L 117.174 178.439 L 174.26 185.423 L 143.849 168.067 Z" fill="#d5a278" fill-opacity="0.501961" />
<path d="M 137 228 L 104 246 L 201 244 Z" fill="#7d2a23" fill-opacity="0.501961" />
<path d="M 218.873 204.376 C 215.446 200.625, 211.977 193.523, 211.124 188.515 C 210.272 183.506, 212.359 182.487, 215.785 186.238 C 219.212 189.989, 222.681 197.091, 223.533 202.099 C 224.386 207.108, 222.299 208.127, 218.873 204.376" fill="#492035" fill-opacity="0.501961" />
<path d="M 250.552 243.531 L 243.705 242.076 L 247.448 224.469 L 254.295 225.924 Z" fill="#f2dea6" fill-opacity="0.501961" />
<path d="M 35.9795 39.4728 L 32.6719 51.0079 L 24.0205 48.5272 L 27.3281 36.9921 Z" fill="#2c0011" fill-opacity="0.501961" />
<path d="M 231.62 178.527 C 243.964 181.015, 259.44 191.652, 266.187 202.285 C 272.933 212.918, 268.395 219.521, 256.051 217.032 C 243.707 214.544, 228.23 203.907, 221.484 193.274 C 214.737 182.641, 219.275 176.038, 231.62 178.527" fill="#add8c6" fill-opacity="0.501961" />
<path d="M 224.748 181.819 C 215.601 189.269, 214.099 187.793, 221.395 178.521 C 228.69 169.249, 242.02 155.693, 251.167 148.243 C 260.315 140.792, 261.816 142.269, 254.521 151.54 C 247.225 160.812, 233.896 174.368, 224.748 181.819" fill="#98cdc0" fill-opacity="0.501961" />
<path d="M 136 121 L 156 121 L 156 140 L 136 140 Z" fill="#ead6ac" fill-opacity="0.501961" />
<path d="M 112.024 219.067 L 87.4556 234.95 L 88.8283 222.237 L 134.133 200.865 Z" fill="#68525d" fill-opacity="0.501961" />
<path d="M 158 155 L 200 154 L 162 167 Z" fill="#a2a1a5" fill-opacity="0.501961" />
<path d="M 38.6965 -11.5009 L 33.5473 15.6308 L 54.871 6.38644 L 86.1143 4.0892 Z" fill="#cdb594" fill-opacity="0.501961" />
<path d="M 67.5853 129.262 L 24.6227 68.0445 L -16 71.1982 L -16 221.726 Z" fill="#200018" fill-opacity="0.501961" />
<path d="M 44 66 L 82 101 L 54 92 Z" fill="#370a18" fill-opacity="0.501961" />
<path d="M 130 10 L 131 -13 L 75 -16 Z" fill="#00000d" fill-opacity="0.501961" />
<path d="M 125.583 185.266 C 124.405 179.699, 127.857 176.55, 133.293 178.232 C 138.729 179.915, 144.091 185.792, 145.269 191.359 C 146.448 196.927, 142.996 200.076, 137.56 198.393 C 132.123 196.711, 126.761 190.833, 125.583 185.266" fill="#af4a2e" fill-opacity="0.501961" />
<path d="M 243.243 226.172 C 245.586 227.734, 245.586 230.266, 243.243 231.828 C 240.899 233.391, 237.101 233.391, 234.757 231.828 C 232.414 230.266, 232.414 227.734, 234.757 226.172 C 237.101 224.609, 240.899 224.609, 243.243 226.172" fill="#5a292a" fill-opacity="0.501961" />
<path d="M 152 63 L 161 63 L 161 108 L 152 108 Z" fill="#cad7c8" fill-opacity="0.501961" />
<path d="M 206.15 190.799 C 200.814 191.837, 195.375 188.415, 194.003 183.155 C 192.63 177.896, 195.843 172.79, 201.178 171.752 C 206.514 170.714, 211.953 174.136, 213.326 179.396 C 214.698 184.655, 211.486 189.761, 206.15 190.799" fill="#d3ad7e" fill-opacity="0.501961" />
<path d="M 203.292 221.432 L 183.852 214.995 L 198.495 215.461 L 217.291 226.004 Z" fill="#58101f" fill-opacity="0.501961" />
<path d="M 172 248 L 197 248 L 197 252 L 172 252 Z" fill="#c7641e" fill-opacity="0.501961" />
<path d="M 232.568 60.1234 L 232.428 64.1209 L 225.432 63.8766 L 225.572 59.8791 Z" fill="#161528" fill-opacity="0.501961" />
<path d="M 165.5 109 L 165.5 103 L 170.5 103 L 170.5 109 Z" fill="#20000c" fill-opacity="0.501961" />
<path d="M 153.713 211.826 L 223.121 224.925 L 161.15 227.428 L 4.69504 271 Z" fill="#b66b4c" fill-opacity="0.501961" />
<path d="M 181.463 187.703 C 179.551 185.739, 180.216 184.319, 182.949 184.53 C 185.682 184.742, 189.449 186.505, 191.361 188.469 C 193.274 190.433, 192.609 191.854, 189.875 191.643 C 187.142 191.431, 183.376 189.667, 181.463 187.703" fill="#5a1223" fill-opacity="0.501961" />
<path d="M 132.03 40.868 C 129.843 32.7895, 134.762 27.3573, 143.018 28.7348 C 151.273 30.1123, 159.738 37.7779, 161.925 45.8564 C 164.112 53.9349, 159.193 59.3672, 150.937 57.9896 C 142.682 56.6121, 134.217 48.9465, 132.03 40.868" fill="#b7e8e2" fill-opacity="0.501961" />
<path d="M 226.335 214.273 L 221.862 207.641 L 227.665 203.727 L 232.138 210.359 Z" fill="#27001f" fill-opacity="0.501961" />
<path d="M 150 216 L 178 183 L 114 216 Z" fill="#d0986e" fill-opacity="0.501961" />
<path d="M 136.875 133.591 L 167.07 131.796 L 227.119 149.273 L 125.026 137.135 Z" fill="#d4c29b" fill-opacity="0.501961" />
<path d="M 51.6586 19.3808 L 52.3393 58.3749 L 38.3414 58.6192 L 37.6607 19.6251 Z" fill="#ac5d4c" fill-opacity="0.501961" />
<path d="M 68 93 L 88 88 L 38 36 Z" fill="#964a37" fill-opacity="0.501961" />
<path d="M 90 116 L 87 98 L 99 78 Z" fill="#97896e" fill-opacity="0.501961" />
<path d="M 189.121 138.445 C 186.161 138.964, 182.51 137.294, 180.966 134.716 C 179.422 132.137, 180.571 129.625, 183.531 129.106 C 186.492 128.586, 190.143 130.256, 191.687 132.835 C 193.23 135.414, 192.082 137.925, 189.121 138.445" fill="#51262b" fill-opacity="0.501961" />
<path d="M 232.604 71.7008 L 246.324 153.697 L 234.723 120.594 L 265 119.267 Z" fill="#b3c0b9" fill-opacity="0.501961" />
<path d="M 233.406 241.586 C 250.198 242.367, 250.198 243.633, 233.406 244.414 C 216.613 245.195, 189.387 245.195, 172.594 244.414 C 155.802 243.633, 155.802 242.367, 172.594 241.586 C 189.387 240.805, 216.613 240.805, 233.406 241.586" fill="#b27f4a" fill-opacity="0.501961" />
<path d="M 21 200 L 30 200 L 30 218 L 21 218 Z" fill="#a2725d" fill-opacity="0.501961" />
<path d="M 177.418 124.899 L 132.72 117.946 L 175.104 100.185 L 163.073 101.619 Z" fill="#caaf89" fill-opacity="0.501961" />
<path d="M 147 21 L 101 -3 L 121 18 Z" fill="#ae9e81" fill-opacity="0.501961" />
<path d="M 121 137 L 160 150 L 66 159 Z" fill="#a7846a" fill-opacity="0.501961" />
<path d="M 189.952 170.047 L 216.006 172.454 L 159.359 173.661 L 189.064 181.603 Z" fill="#aa6d56" fill-opacity="0.501961" />
<path d="M 225 137 L 237 137 L 237 141 L 225 141 Z" fill="#41191a" fill-opacity="0.501961" />
<path d="M 205.142 197.186 L 194.249 198.717 L 192.858 188.814 L 203.751 187.283 Z" fill="#656979" fill-opacity="0.501961" />
<path d="M 198.657 203.586 C 201.781 204.367, 201.781 205.633, 198.657 206.414 C 195.533 207.195, 190.467 207.195, 187.343 206.414 C 184.219 205.633, 184.219 204.367, 187.343 203.586 C 190.467 202.805, 195.533 202.805, 198.657 203.586" fill="#5a0e17" fill-opacity="0.501961" />
<path d="M 114.243 78.7574 C 116.586 81.1005, 116.586 84.8995, 114.243 87.2426 C 111.899 89.5858, 108.101 89.5858, 105.757 87.2426 C 103.414 84.8995, 103.414 81.1005, 105.757 78.7574 C 108.101 76.4142, 111.899 76.4142, 114.243 78.7574" fill="#cbdbcc" fill-opacity="0.501961" />
<path d="M 182.762 260.882 L 152.143 256.032 L 153.238 249.118 L 183.857 253.968 Z" fill="#0a0013" fill-opacity="0.501961" />
<path d="M 111.362 120.18 L 86.7184 117.437 L 118.527 97.604 L 108.23 94.3532 Z" fill="#c6b8a5" fill-opacity="0.501961" />
<path d="M 97.8478 30.8448 L 99.4724 50.3449 L 82.2993 52.4569 L 81.6999 38.7015 Z" fill="#4f0f20" fill-opacity="0.501961" />
<path d="M 25.2343 70.8144 C 20.3326 68.9605, 19.8145 64.9862, 24.0771 61.9376 C 28.3398 58.889, 35.769 57.9205, 40.6707 59.7744 C 45.5725 61.6283, 46.0906 65.6026, 41.8279 68.6512 C 37.5653 71.6998, 30.1361 72.6683, 25.2343 70.8144" fill="#b4482f" fill-opacity="0.501961" />
<path d="M 72 160 L 111 160 L 111 177 L 72 177 Z" fill="#7c6263" fill-opacity="0.501961" />
<path d="M 155 80 L 222 80 L 222 85 L 155 85 Z" fill="#c7e7d9" fill-opacity="0.501961" />
<path d="M 13.3137 39.6863 C 19.5621 45.9347, 19.5621 56.0653, 13.3137 62.3137 C 7.06532 68.5621, -3.06532 68.5621, -9.31371 62.3137 C -15.5621 56.0653, -15.5621 45.9347, -9.31371 39.6863 C -3.06532 33.4379, 7.06532 33.4379, 13.3137 39.6863" fill="#cac2ad" fill-opacity="0.501961" />
<path d="M 213.149 95.6819 L 201.165 96.3099 L 200.851 90.3181 L 212.835 89.6901 Z" fill="#856b65" fill-opacity="0.501961" />
<path d="M 246.657 117.343 C 249.781 120.467, 249.781 125.533, 246.657 128.657 C 243.533 131.781, 238.467 131.781, 235.343 128.657 C 232.219 125.533, 232.219 120.467, 235.343 117.343 C 238.467 114.219, 243.533 114.219, 246.657 117.343" fill="#676672" fill-opacity="0.501961" />
<path d="M 121 252 L 139 239 L 120 271 Z" fill="#090011" fill-opacity="0.501961" />
<path d="M 223 110 L 228 110 L 228 135 L 223 135 Z" fill="#db8033" fill-opacity="0.501961" />
<path d="M 122 96 L 147 96 L 147 105 L 122 105 Z" fill="#81251f" fill-opacity="0.501961" />
<path d="M 138 237 L 162 237 L 162 241 L 138 241 Z" fill="#3c000b" fill-opacity="0.501961" />
<path d="M 174 232 L 185 232 L 185 242 L 174 242 Z" fill="#3c3957" fill-opacity="0.501961" />
<path d="M 81 117 L 69 160 L 67 109 Z" fill="#c1b398" fill-opacity="0.501961" />
<path d="M 79 96 L 88 96 L 88 102 L 79 102 Z" fill="#2d1423" fill-opacity="0.501961" />
<path d="M 208 61 L 207 67 L 202 64 Z" fill="#bf5a00" fill-opacity="0.501961" />
<path d="M 187.364 -7.55635 C 190.879 1.03519, 190.879 14.9648, 187.364 23.5563 C 183.849 32.1479, 178.151 32.1479, 174.636 23.5563 C 171.121 14.9648, 171.121 1.03519, 174.636 -7.55635 C 178.151 -16.1479, 183.849 -16.1479, 187.364 -7.55635" fill="#d3c1b1" fill-opacity="0.501961" />
<path d="M -10 206 L 23 198 L 11 211 Z" fill="#732c25" fill-opacity="0.501961" />
<path d="M 116 67 L 127 67 L 127 97 L 116 97 Z" fill="#8a302b" fill-opacity="0.501961" />
<path d="M 178.833 120.908 C 176.313 117.988, 177.265 114.721, 180.958 113.61 C 184.652 112.5, 189.689 113.967, 192.209 116.887 C 194.729 119.807, 193.777 123.074, 190.084 124.185 C 186.39 125.295, 181.353 123.828, 178.833 120.908" fill="#4e424f" fill-opacity="0.501961" />
<path d="M 53.4149 18.5145 C 48.9909 18.1353, 47.7398 15.0886, 50.6204 11.7096 C 53.5011 8.33059, 59.4227 5.89879, 63.8468 6.27802 C 68.2708 6.65725, 69.522 9.7039, 66.6413 13.0829 C 63.7606 16.4619, 57.839 18.8937, 53.4149 18.5145" fill="#0f000f" fill-opacity="0.501961" />
<path d="M 129 153 L 156 153 L 156 174 L 129 174 Z" fill="#d6cbb5" fill-opacity="0.501961" />
<path d="M 95.1924 215.636 C 100.269 219.151, 100.269 224.849, 95.1924 228.364 C 90.1156 231.879, 81.8844 231.879, 76.8076 228.364 C 71.7308 224.849, 71.7308 219.151, 76.8076 215.636 C 81.8844 212.121, 90.1156 212.121, 95.1924 215.636" fill="#897877" fill-opacity="0.501961" />
<path d="M 230 -16 L 162 75 L 195 83 Z" fill="#b6a69e" fill-opacity="0.501961" />
<path d="M 207.133 252.446 L 249.051 264.953 L 233.233 236.746 L 231.126 271 Z" fill="#dfb378" fill-opacity="0.501961" />
<path d="M 70.1069 186.515 L 119.668 175.875 L 95.4534 167.749 L 73.393 173.083 Z" fill="#93675b" fill-opacity="0.501961" />
<path d="M 27.2516 33.8256 L 61.5876 -16 L -16 76.2327 L 21.3137 58.7634 Z" fill="#cbc2ab" fill-opacity="0.501961" />
<path d="M 242.224 153.012 L 217.41 149.965 L 217.776 146.988 L 242.59 150.035 Z" fill="#876d45" fill-opacity="0.501961" />
<path d="M 164 128 L 175 128 L 175 132 L 164 132 Z" fill="#32020a" fill-opacity="0.501961" />
<path d="M 93 86 L 118 49 L 105 87 Z" fill="#95746e" fill-opacity="0.501961" />
<path d="M 247.715 97.9844 L 249.285 7.99813 L 250.285 8.01558 L 248.715 98.0019 Z" fill="#b09e86" fill-opacity="0.501961" />
<path d="M 202.215 63.3078 L 226.65 135.938 L 197.99 111.032 L 213.428 102.319 Z" fill="#b3ac98" fill-opacity="0.501961" />
<path d="M 207.021 142.686 C 213.66 148.935, 213.66 159.065, 207.021 165.314 C 200.382 171.562, 189.618 171.562, 182.979 165.314 C 176.34 159.065, 176.34 148.935, 182.979 142.686 C 189.618 136.438, 200.382 136.438, 207.021 142.686" fill="#bcb8ac" fill-opacity="0.501961" />
<path d="M 236.728 140.879 C 243.757 142.05, 243.757 143.95, 236.728 145.121 C 229.698 146.293, 218.302 146.293, 211.272 145.121 C 204.243 143.95, 204.243 142.05, 211.272 140.879 C 218.302 139.707, 229.698 139.707, 236.728 140.879" fill="#bed1af" fill-opacity="0.501961" />
<path d="M -16 94 L 15 61 L 67 122 Z" fill="#210019" fill-opacity="0.501961" />
<path d="M 227.818 266.748 L 226.297 258.765 L 226.805 238.315 L 233.213 237.191 Z" fill="#865539" fill-opacity="0.501961" />
<path d="M 208.243 130.757 C 210.586 133.101, 210.586 136.899, 208.243 139.243 C 205.899 141.586, 202.101 141.586, 199.757 139.243 C 197.414 136.899, 197.414 133.101, 199.757 130.757 C 202.101 128.414, 205.899 128.414, 208.243 130.757" fill="#613f46" fill-opacity="0.501961" />
<path d="M 200 246 L 220 246 L 220 250 L 200 250 Z" fill="#5e0500" fill-opacity="0.501961" />
<path d="M 106.243 90.7574 C 108.586 93.1005, 108.586 96.8995, 106.243 99.2426 C 103.899 101.586, 100.101 101.586, 97.7574 99.2426 C 95.4142 96.8995, 95.4142 93.1005, 97.7574 90.7574 C 100.101 88.4142, 103.899 88.4142, 106.243 90.7574" fill="#2c0014" fill-opacity="0.501961" />
<path d="M 125.768 -16 L 116.632 -12.1961 L 151.216 -3.48425 L 152.196 19.7166 Z" fill="#95a488" fill-opacity="0.501961" />
<path d="M 21.4623 65.3045 L 65.9244 98.7614 L 72.7064 107.392 L 53.0473 106.102 Z" fill="#863c38" fill-opacity="0.501961" />
<path d="M 180 99 L 209 99 L 184 86 Z" fill="#c2b99d" fill-opacity="0.501961" />
<path d="M 35 24 L 39 40 L 24 44 Z" fill="#1c0015" fill-opacity="0.501961" />
<path d="M 200.657 229.343 C 203.781 232.467, 203.781 237.533, 200.657 240.657 C 197.533 243.781, 192.467 243.781, 189.343 240.657 C 186.219 237.533, 186.219 232.467, 189.343 229.343 C 192.467 226.219, 197.533 226.219, 200.657 229.343" fill="#1c011a" fill-opacity="0.501961" />
<path d="M 211 152 L 222 152 L 222 172 L 211 172 Z" fill="#d2dcdf" fill-opacity="0.501961" />
<path d="M 34 254 L 29 170 L 77 241 Z" fill="#180014" fill-opacity="0.501961" />
<path d="M 246.121 -13.0122 C 247.293 9.63822, 247.293 46.3618, 246.121 69.0122 C 244.95 91.6626, 243.05 91.6626, 241.879 69.0122 C 240.707 46.3618, 240.707 9.63822, 241.879 -13.0122 C 243.05 -35.6626, 244.95 -35.6626, 246.121 -13.0122" fill="#d1f1f0" fill-opacity="0.501961" />
<path d="M 117.84 177.633 L 129.527 182.859 L 78.3668 206.171 L 68.2687 186.601 Z" fill="#5e181d" fill-opacity="0.501961" />
<path d="M 69.1379 159.832 L 88.3643 156.899 L 120.666 157.866 L 68.2215 168.741 Z" fill="#653d40" fill-opacity="0.501961" />
<path d="M 170.828 -18.5269 C 172.391 -0.562795, 172.391 28.5628, 170.828 46.5269 C 169.266 64.491, 166.734 64.491, 165.172 46.5269 C 163.609 28.5628, 163.609 -0.562795, 165.172 -18.5269 C 166.734 -36.491, 169.266 -36.491, 170.828 -18.5269" fill="#f3fff3" fill-opacity="0.501961" />
<path d="M 230.03 66.9558 C 236.241 71.7013, 244.434 81.0419, 248.329 87.8186 C 252.225 94.5954, 250.347 96.242, 244.136 91.4965 C 237.925 86.751, 229.732 77.4104, 225.837 70.6337 C 221.942 63.8569, 223.819 62.2103, 230.03 66.9558" fill="#c0d0ca" fill-opacity="0.501961" />
<path d="M 253.364 146.766 C 253.372 149.524, 251.678 150.309, 249.58 148.519 C 247.482 146.73, 245.774 143.044, 245.766 140.287 C 245.758 137.529, 247.453 136.744, 249.551 138.534 C 251.649 140.323, 253.356 144.009, 253.364 146.766" fill="#2f4f5b" fill-opacity="0.501961" />
<path d="M 251.619 128.713 L 252.417 129.315 L 240.381 145.287 L 239.583 144.685 Z" fill="#ece7b7" fill-opacity="0.501961" />
<path d="M 225.903 221.622 L 197.581 178.012 L 200.097 176.378 L 228.419 219.988 Z" fill="#dccaa3" fill-opacity="0.501961" />
<path d="M 43.8779 172.7 C 36.4423 159.134, 34.3894 136.242, 39.2927 121.57 C 44.1959 106.897, 54.1985 106, 61.6341 119.566 C 69.0697 133.132, 71.1226 156.024, 66.2194 170.697 C 61.3161 185.369, 51.3135 186.266, 43.8779 172.7" fill="#22061f" fill-opacity="0.501961" />
<path d="M 97 37 L 63 21 L 57 33 Z" fill="#ae5641" fill-opacity="0.501961" />
<path d="M 96 271 L 44 271 L 126 230 Z" fill="#9a4b35" fill-opacity="0.501961" />
<path d="M 214.392 184.43 L 213.604 183.814 L 221.608 173.57 L 222.396 174.186 Z" fill="#502427" fill-opacity="0.501961" />
<path d="M 21.5754 57.1616 L 27.3605 50.2672 L 30.4246 52.8384 L 24.6395 59.7328 Z" fill="#e7dbba" fill-opacity="0.501961" />
<path d="M 239 153 L 227 191 L 216 186 Z" fill="#92b3a8" fill-opacity="0.501961" />
<path d="M 211 204 L 209 240 L 227 243 Z" fill="#847b7b" fill-opacity="0.501961" />
<path d="M 202.026 -13.4281 L 233.229 -2.68437 L 215.974 47.4281 L 184.771 36.6844 Z" fill="#b69991" fill-opacity="0.501961" />
<path d="M 81 51 L 105 51 L 105 73 L 81 73 Z" fill="#b3443c" fill-opacity="0.501961" />
<path d="M 125 194 L 99 220 L 100 206 Z" fill="#7f696a" fill-opacity="0.501961" />
<path d="M 194.986 227.978 L 199.719 220.7 L 117.283 232.219 L 129.538 240.554 Z" fill="#a34232" fill-opacity="0.501961" />
<path d="M 132.265 245.46 C 152.972 244.974, 186.535 245.238, 207.231 246.049 C 227.927 246.86, 227.919 247.911, 207.212 248.397 C 186.506 248.883, 152.943 248.62, 132.247 247.809 C 111.551 246.998, 111.559 245.947, 132.265 245.46" fill="#3c0016" fill-opacity="0.501961" />
<path d="M 184.849 181.858 L 182.612 185.174 L 175.151 180.142 L 177.388 176.826 Z" fill="#7a1c1a" fill-opacity="0.501961" />
<path d="M 96.0809 104.401 L 114.594 108.675 L 113.919 111.599 L 95.4061 107.325 Z" fill="#d2dac3" fill-opacity="0.501961" />
<path d="M 84.2854 29.9312 L 85.9629 27.4441 L 101.715 38.0688 L 100.037 40.5559 Z" fill="#0b000e" fill-opacity="0.501961" />
<path d="M 165 188 L 144 186 L 156 191 Z" fill="#700412" fill-opacity="0.501961" />
<path d="M 145.778 39.2218 C 150.074 43.5176, 150.074 50.4824, 145.778 54.7782 C 141.482 59.0739, 134.518 59.0739, 130.222 54.7782 C 125.926 50.4824, 125.926 43.5176, 130.222 39.2218 C 134.518 34.9261, 141.482 34.9261, 145.778 39.2218" fill="#b3d9d7" fill-opacity="0.501961" />
<path d="M 114.121 73.3431 C 115.293 76.4673, 115.293 81.5327, 114.121 84.6569 C 112.95 87.781, 111.05 87.781, 109.879 84.6569 C 108.707 81.5327, 108.707 76.4673, 109.879 73.3431 C 111.05 70.219, 112.95 70.219, 114.121 73.3431" fill="#d6efdf" fill-opacity="0.501961" />
<path d="M 127.765 11.9838 L 129.227 23.8943 L 128.235 24.0162 L 126.773 12.1057 Z" fill="#30000d" fill-opacity="0.501961" />
<path d="M 231 213 L 233 213 L 233 229 L 231 229 Z" fill="#e2ca9a" fill-opacity="0.501961" />
<path d="M 117.349 32.0947 L 137.118 24.7916 L 126.387 37.9058 L 128.467 57.0437 Z" fill="#835a53" fill-opacity="0.501961" />
<path d="M 36.2851 16.0394 L 60.1439 -11.8899 L 62.2541 5.73506 L 46.2885 10.8002 Z" fill="#c1a183" fill-opacity="0.501961" />
<path d="M 158.831 158.657 L 176.803 148.114 L 164.221 131.557 L 146.241 173.351 Z" fill="#dbdcc5" fill-opacity="0.501961" />
<path d="M 221 92 L 232 92 L 232 97 L 221 97 Z" fill="#b9744c" fill-opacity="0.501961" />
<path d="M 30.4345 53.026 L 48.5577 85.724 L 17.4867 65.3258 L 58.4441 33.0595 Z" fill="#ae503c" fill-opacity="0.501961" />
<path d="M 28.8284 213.473 C 30.3905 231.437, 30.3905 260.563, 28.8284 278.527 C 27.2663 296.491, 24.7337 296.491, 23.1716 278.527 C 21.6095 260.563, 21.6095 231.437, 23.1716 213.473 C 24.7337 195.509, 27.2663 195.509, 28.8284 213.473" fill="#a97053" fill-opacity="0.501961" />
<path d="M 161.899 7.3934 C 167.367 13.2513, 167.367 22.7487, 161.899 28.6066 C 156.432 34.4645, 147.568 34.4645, 142.101 28.6066 C 136.633 22.7487, 136.633 13.2513, 142.101 7.3934 C 147.568 1.53553, 156.432 1.53553, 161.899 7.3934" fill="#b5c7c3" fill-opacity="0.501961" />
<path d="M 124.896 198.379 L 129.889 198.641 L 129.104 213.621 L 124.111 213.359 Z" fill="#bf8050" fill-opacity="0.501961" />
<path d="M 119.581 93.6954 L 103.961 86.1567 L 86.2963 57.5222 L 70.0301 75.5194 Z" fill="#7c2f35" fill-opacity="0.501961" />
<path d="M 134.5 100.5 L 134.5 73.5 L 147.5 73.5 L 147.5 100.5 Z" fill="#a96752" fill-opacity="0.501961" />
<path d="M 192.427 140.318 L 195.886 125.23 L 198.696 161.076 L 157.676 176.746 Z" fill="#c8c2b2" fill-opacity="0.501961" />
<path d="M 127.578 199.011 C 127.436 203.577, 124.318 209.448, 120.616 212.124 C 116.913 214.8, 114.028 213.268, 114.17 208.702 C 114.313 204.136, 117.43 198.265, 121.133 195.589 C 124.835 192.913, 127.721 194.445, 127.578 199.011" fill="#663e3e" fill-opacity="0.501961" />
<path d="M 224 253 L 205 253 L 205 255 L 224 255 Z" fill="#d1b9a0" fill-opacity="0.501961" />
<path d="M 241.894 216.643 L 237.953 219.721 L 236.106 217.357 L 240.047 214.279 Z" fill="#1c0010" fill-opacity="0.501961" />
<path d="M 210.984 251.966 L 210.914 252.964 L 169.016 250.034 L 169.086 249.036 Z" fill="#c67228" fill-opacity="0.501961" />
<path d="M 203.447 122.147 C 206.619 121.019, 210.98 122.166, 213.186 124.709 C 215.393 127.252, 214.61 130.229, 211.438 131.357 C 208.265 132.485, 203.905 131.338, 201.698 128.795 C 199.491 126.252, 200.274 123.276, 203.447 122.147" fill="#b4672e" fill-opacity="0.501961" />
<path d="M 245 245 L 247 245 L 247 255 L 245 255 Z" fill="#813621" fill-opacity="0.501961" />
<path d="M 102 46 L 100 71 L 88 66 Z" fill="#c26854" fill-opacity="0.501961" />
<path d="M 113 102 L 130 102 L 130 105 L 113 105 Z" fill="#4d020f" fill-opacity="0.501961" />
<path d="M 227 111 L 239 111 L 239 115 L 227 115 Z" fill="#ca685b" fill-opacity="0.501961" />
<path d="M 73 227 L 84 227 L 84 233 L 73 233 Z" fill="#6f5358" fill-opacity="0.501961" />
<path d="M 57 102 L 75 102 L 75 107 L 57 107 Z" fill="#9d7667" fill-opacity="0.501961" />
<path d="M 243 125 L 246 125 L 246 131 L 243 131 Z" fill="#47222e" fill-opacity="0.501961" />
<path d="M 165 177 L 151 151 L 149 173 Z" fill="#dedcc6" fill-opacity="0.501961" />
<path d="M 54.519 31.8805 L 49.5845 18.2164 L 86.0675 4.82031 L 61.1074 5.93538 Z" fill="#39091b" fill-opacity="0.501961" />
<path d="M 229.615 134.351 L 230.451 126.395 L 242.385 127.649 L 241.549 135.605 Z" fill="#c58056" fill-opacity="0.501961" />
<path d="M 193.496 171.583 L 193.584 170.587 L 214.504 172.417 L 214.416 173.413 Z" fill="#735658" fill-opacity="0.501961" />
<path d="M 67 158 L 115 153 L 129 113 Z" fill="#b09980" fill-opacity="0.501961" />
<path d="M 248 221 L 243 234 L 242 229 Z" fill="#431c26" fill-opacity="0.501961" />
<path d="M 255.618 220.15 L 239.115 224.273 L 251.916 211.414 L 233.087 211.004 Z" fill="#b3a280" fill-opacity="0.501961" />
<path d="M 139.276 189.979 L 208.114 203.85 L 175.682 188.898 L 161.722 193.118 Z" fill="#ca9377" fill-opacity="0.501961" />
<path d="M 88 4 L 98 34 L 107 9 Z" fill="#a34c3a" fill-opacity="0.501961" />
<path d="M 224.671 119.967 L 240.645 114.153 L 241.329 116.033 L 225.355 121.847 Z" fill="#594437" fill-opacity="0.501961" />
<path d="M 19.8492 166.151 C 28.0503 174.352, 28.0503 187.648, 19.8492 195.849 C 11.6482 204.05, -1.64823 204.05, -9.84924 195.849 C -18.0503 187.648, -18.0503 174.352, -9.84924 166.151 C -1.64823 157.95, 11.6482 157.95, 19.8492 166.151" fill="#140011" fill-opacity="0.501961" />
<path d="M 174.873 16.2086 L 158.008 120.619 L 148.522 94.5178 L 175.483 76.6587 Z" fill="#c6c9ba" fill-opacity="0.501961" />
<path d="M 111.937 180.088 C 104.83 175.334, 105.777 173.222, 114.053 175.371 C 122.33 177.52, 134.801 183.115, 141.909 187.869 C 149.016 192.623, 148.069 194.735, 139.792 192.586 C 131.516 190.437, 119.045 184.842, 111.937 180.088" fill="#9e4831" fill-opacity="0.501961" />
<path d="M 178 118 L 188 131 L 163 124 Z" fill="#6a5f6c" fill-opacity="0.501961" />
<path d="M 252.657 147.343 C 255.781 150.467, 255.781 155.533, 252.657 158.657 C 249.533 161.781, 244.467 161.781, 241.343 158.657 C 238.219 155.533, 238.219 150.467, 241.343 147.343 C 244.467 144.219, 249.533 144.219, 252.657 147.343" fill="#87c0b6" fill-opacity="0.501961" />
<path d="M 177.842 239.029 L 171.971 242.842 L 168.158 236.971 L 174.029 233.158 Z" fill="#8e7b72" fill-opacity="0.501961" />
<path d="M 128 167 L 129 157 L 113 154 Z" fill="#442231" fill-opacity="0.501961" />
<path d="M 76 65 L 54 41 L 63 22 Z" fill="#bb6b53" fill-opacity="0.501961" />
<path d="M 109 240 L 175 199 L 111 218 Z" fill="#bf7b52" fill-opacity="0.501961" />
<path d="M 195 99 L 197 99 L 197 126 L 195 126 Z" fill="#ce6741" fill-opacity="0.501961" />
<path d="M 44.7592 63.7287 L 50.3699 78.083 L 84.4777 105.082 L 46.0111 91.7373 Z" fill="#4a1420" fill-opacity="0.501961" />
<path d="M 45.5892 227.334 L 123.972 193.9 L 106.471 182.867 L 111.82 200.544 Z" fill="#210014" fill-opacity="0.501961" />
<path d="M 168.335 168.013 L 160.413 166.9 L 161.665 157.987 L 169.587 159.1 Z" fill="#968681" fill-opacity="0.501961" />
<path d="M 194.844 192.227 L 194.294 198.992 L 177.028 184.415 L 142.398 201.962 Z" fill="#c89479" fill-opacity="0.501961" />
<path d="M 248 98 L 249 98 L 249 129 L 248 129 Z" fill="#c0cdcb" fill-opacity="0.501961" />
<path d="M 127.656 62.3144 C 125.793 64.1299, 122.27 64.9744, 119.787 64.2006 C 117.303 63.4268, 116.8 61.3278, 118.663 59.5123 C 120.525 57.6967, 124.048 56.8523, 126.532 57.626 C 129.015 58.3998, 129.518 60.4989, 127.656 62.3144" fill="#e8f7e4" fill-opacity="0.501961" />
<path d="M 215.971 140.464 C 225.343 142.417, 225.343 145.583, 215.971 147.536 C 206.598 149.488, 191.402 149.488, 182.029 147.536 C 172.657 145.583, 172.657 142.417, 182.029 140.464 C 191.402 138.512, 206.598 138.512, 215.971 140.464" fill="#ccbd98" fill-opacity="0.501961" />
<path d="M 137 159 L 151 143 L 127 142 Z" fill="#c68463" fill-opacity="0.501961" />
<path d="M 46 52 L 53 21 L 25 61 Z" fill="#b2624a" fill-opacity="0.501961" />
<path d="M 149.021 65.1716 C 155.66 66.7337, 155.66 69.2663, 149.021 70.8284 C 142.382 72.3905, 131.618 72.3905, 124.979 70.8284 C 118.34 69.2663, 118.34 66.7337, 124.979 65.1716 C 131.618 63.6095, 142.382 63.6095, 149.021 65.1716" fill="#bc6457" fill-opacity="0.501961" />
<path d="M 95 229 L 63 247 L 76 233 Z" fill="#350e20" fill-opacity="0.501961" />
<path d="M 107.606 54.331 C 106.856 52.5555, 107.541 50.2387, 109.136 49.1564 C 110.731 48.074, 112.631 48.636, 113.381 50.4115 C 114.131 52.1871, 113.446 54.5038, 111.852 55.5862 C 110.257 56.6685, 108.356 56.1066, 107.606 54.331" fill="#24071e" fill-opacity="0.501961" />
<path d="M 128 109 L 141 109 L 141 143 L 128 143 Z" fill="#d9ad7f" fill-opacity="0.501961" />
<path d="M 189 117 L 191 117 L 191 135 L 189 135 Z" fill="#321b2f" fill-opacity="0.501961" />
<path d="M 35.024 23.4825 L 40.2909 19.1969 L 33.8487 38.1454 L 25.436 42.2331 Z" fill="#220115" fill-opacity="0.501961" />
<path d="M 194.607 198.879 C 200.464 200.05, 200.464 201.95, 194.607 203.121 C 188.749 204.293, 179.251 204.293, 173.393 203.121 C 167.536 201.95, 167.536 200.05, 173.393 198.879 C 179.251 197.707, 188.749 197.707, 194.607 198.879" fill="#a65f4e" fill-opacity="0.501961" />
<path d="M 175.364 90.4645 C 178.879 92.4171, 178.879 95.5829, 175.364 97.5355 C 171.849 99.4882, 166.151 99.4882, 162.636 97.5355 C 159.121 95.5829, 159.121 92.4171, 162.636 90.4645 C 166.151 88.5118, 171.849 88.5118, 175.364 90.4645" fill="#d2e4e0" fill-opacity="0.501961" />
<path d="M 223.776 77.5096 L 225.2 88.8258 L 213.669 108.635 L 210.26 85.4149 Z" fill="#c2cec2" fill-opacity="0.501961" />
<path d="M 110 46 L 125 46 L 125 48 L 110 48 Z" fill="#25091c" fill-opacity="0.501961" />
<path d="M 73 108 L 75 115 L 88 112 Z" fill="#867063" fill-opacity="0.501961" />
<path d="M 128.406 159.5 L 129.443 148.266 L 126.873 132.365 L 116.189 148.766 Z" fill="#836b63" fill-opacity="0.501961" />
<path d="M 184 243 L 222 243 L 222 243 L 184 243 Z" fill="#d3a163" fill-opacity="0.501961" />
<path d="M 109.101 82.5757 L 114.307 97.0212 L 110.213 108.614 L 108.38 106.276 Z" fill="#a68583" fill-opacity="0.501961" />
<path d="M 33 106 L -16 100 L 3 69 Z" fill="#2e0a1f" fill-opacity="0.501961" />
<path d="M 28.4985 32.5616 L 2.74733 -16 L -16 92.6801 L 3.93411 66.4315 Z" fill="#c8c2ac" fill-opacity="0.501961" />
<path d="M 222.682 269.18 L 225.505 219.328 L 262.674 217.106 L 230.01 224.946 Z" fill="#b2865e" fill-opacity="0.501961" />
<path d="M 183 255 L 207 255 L 207 255 L 183 255 Z" fill="#372242" fill-opacity="0.501961" />
<path d="M 104.253 73.4901 L 126.876 65.3659 L 112.019 60.7344 L 133.232 41.2857 Z" fill="#ab9489" fill-opacity="0.501961" />
<path d="M 154.786 122.592 L 173.5 171.549 L 186.343 172.968 L 146.72 128.982 Z" fill="#dbd9c4" fill-opacity="0.501961" />
<path d="M 239.222 180.596 C 245.275 174.315, 254.558 174.776, 259.958 181.626 C 265.358 188.476, 264.83 199.121, 258.778 205.403 C 252.725 211.684, 243.442 211.223, 238.042 204.373 C 232.642 197.523, 233.17 186.878, 239.222 180.596" fill="#b1dccf" fill-opacity="0.501961" />
<path d="M 238.97 151.404 C 232.826 158.286, 232.337 157.885, 237.876 150.508 C 243.415 143.13, 252.886 131.571, 259.03 124.689 C 265.174 117.806, 265.663 118.208, 260.124 125.585 C 254.585 132.962, 245.114 144.522, 238.97 151.404" fill="#442e3a" fill-opacity="0.501961" />
<path d="M 242 132 L 244 132 L 244 139 L 242 139 Z" fill="#e8d29a" fill-opacity="0.501961" />
<path d="M 94.5573 215.236 C 90.1157 217.062, 82.6266 218.731, 77.8299 218.964 C 73.0333 219.198, 72.7455 217.906, 77.1871 216.08 C 81.6287 214.254, 89.1178 212.585, 93.9144 212.352 C 98.7111 212.119, 98.9989 213.41, 94.5573 215.236" fill="#968782" fill-opacity="0.501961" />
<path d="M 223 140 L 230 140 L 230 138 L 223 138 Z" fill="#1e0b1f" fill-opacity="0.501961" />
<path d="M 224.071 52.9289 C 227.976 56.8342, 227.976 63.1658, 224.071 67.0711 C 220.166 70.9763, 213.834 70.9763, 209.929 67.0711 C 206.024 63.1658, 206.024 56.8342, 209.929 52.9289 C 213.834 49.0237, 220.166 49.0237, 224.071 52.9289" fill="#a99c9c" fill-opacity="0.501961" />
<path d="M 183 217 L 197 217 L 192 214 Z" fill="#48000e" fill-opacity="0.501961" />
</g>
</svg>
