<?xml version="1.0" encoding="UTF-8" standalone="no"?>
<!-- Created with Inkscape (http://www.inkscape.org/) -->
<svg xmlns:dc="http://purl.org/dc/elements/1.1/" xmlns:cc="http://web.resource.org/cc/" xmlns:rdf="http://www.w3.org/1999/02/22-rdf-syntax-ns#" xmlns:svg="http://www.w3.org/2000/svg" xmlns="http://www.w3.org/2000/svg" xmlns:xlink="http://www.w3.org/1999/xlink" xmlns:sodipodi="http://sodipodi.sourceforge.net/DTD/sodipodi-0.dtd" xmlns:inkscape="http://www.inkscape.org/namespaces/inkscape" width="427" height="404" id="svg2" sodipodi:version="0.32" inkscape:version="0.45.1" sodipodi:docbase="D:\Documents and Settings\caraballomh\Escritorio" sodipodi:docname="MyMouse.svg" inkscape:output_extension="org.inkscape.output.svg.inkscape" version="1.0">
  <defs id="defs4">
    <linearGradient inkscape:collect="always" id="linearGradient21920">
      <stop style="stop-color:#00ff00;stop-opacity:1;" offset="0" id="stop21922"/>
      <stop style="stop-color:#00ff00;stop-opacity:0;" offset="1" id="stop21924"/>
    </linearGradient>
    <linearGradient inkscape:collect="always" id="linearGradient21910">
      <stop style="stop-color:#ffffff;stop-opacity:1;" offset="0" id="stop21912"/>
      <stop style="stop-color:#ffffff;stop-opacity:0;" offset="1" id="stop21914"/>
    </linearGradient>
    <linearGradient id="linearGradient16005">
      <stop style="stop-color:#a9adb8;stop-opacity:1;" offset="0" id="stop16007"/>
      <stop style="stop-color:#41454f;stop-opacity:0;" offset="1" id="stop16009"/>
    </linearGradient>
    <linearGradient id="linearGradient10147">
      <stop style="stop-color:#2d2f37;stop-opacity:1;" offset="0" id="stop10149"/>
      <stop style="stop-color:#3f434d;stop-opacity:1;" offset="1" id="stop10151"/>
    </linearGradient>
    <linearGradient id="linearGradient7206">
      <stop style="stop-color:#3b3f48;stop-opacity:1;" offset="0" id="stop7208"/>
      <stop style="stop-color:#6e7688;stop-opacity:1;" offset="1" id="stop7210"/>
    </linearGradient>
    <linearGradient inkscape:collect="always" xlink:href="#linearGradient10147" id="linearGradient16027" gradientUnits="userSpaceOnUse" x1="20.802086" y1="-147.34705" x2="-32.049141" y2="-200.70534"/>
    <linearGradient inkscape:collect="always" xlink:href="#linearGradient7206" id="linearGradient16029" gradientUnits="userSpaceOnUse" gradientTransform="translate(303.04593,-95.273141)" x1="-340.31143" y1="-36.775059" x2="-530.84924" y2="-174.58713"/>
    <radialGradient inkscape:collect="always" xlink:href="#linearGradient16005" id="radialGradient16031" gradientUnits="userSpaceOnUse" gradientTransform="matrix(1.3471651,-0.2866949,0.1174218,1.0078033,181.4235,-142.60536)" cx="-500.87387" cy="-64.192413" fx="-500.87387" fy="-64.192413" r="53.437332"/>
    <filter inkscape:collect="always" id="filter16073">
      <feGaussianBlur inkscape:collect="always" stdDeviation="7.0017689" id="feGaussianBlur16075"/>
    </filter>
    <linearGradient inkscape:collect="always" xlink:href="#linearGradient21910" id="linearGradient21945" gradientUnits="userSpaceOnUse" x1="-383.08963" y1="40.004539" x2="-387.49478" y2="39.6534"/>
    <linearGradient inkscape:collect="always" xlink:href="#linearGradient21920" id="linearGradient21947" gradientUnits="userSpaceOnUse" x1="-386.40396" y1="26.914476" x2="-367.87613" y2="36.072624"/>
    <linearGradient inkscape:collect="always" xlink:href="#linearGradient21910" id="linearGradient24881" gradientUnits="userSpaceOnUse" x1="-383.08963" y1="40.004539" x2="-387.49478" y2="39.6534"/>
    <linearGradient inkscape:collect="always" xlink:href="#linearGradient21920" id="linearGradient24883" gradientUnits="userSpaceOnUse" x1="-386.40396" y1="26.914476" x2="-367.87613" y2="36.072624"/>
    <linearGradient inkscape:collect="always" xlink:href="#linearGradient21910" id="linearGradient24915" gradientUnits="userSpaceOnUse" x1="-383.08963" y1="40.004539" x2="-387.49478" y2="39.6534"/>
    <linearGradient inkscape:collect="always" xlink:href="#linearGradient21920" id="linearGradient24917" gradientUnits="userSpaceOnUse" x1="-386.40396" y1="26.914476" x2="-367.87613" y2="36.072624"/>
    <filter inkscape:collect="always" id="filter25924">
      <feGaussianBlur inkscape:collect="always" stdDeviation="8.2502781" id="feGaussianBlur25926"/>
    </filter>
    <linearGradient inkscape:collect="always" xlink:href="#linearGradient10147" id="linearGradient25962" gradientUnits="userSpaceOnUse" x1="20.802086" y1="-147.34705" x2="-32.049141" y2="-200.70534"/>
    <linearGradient inkscape:collect="always" xlink:href="#linearGradient7206" id="linearGradient25964" gradientUnits="userSpaceOnUse" gradientTransform="translate(303.04593,-95.273141)" x1="-340.31143" y1="-36.775059" x2="-530.84924" y2="-174.58713"/>
    <radialGradient inkscape:collect="always" xlink:href="#linearGradient16005" id="radialGradient25966" gradientUnits="userSpaceOnUse" gradientTransform="matrix(1.3471651,-0.2866949,0.1174218,1.0078033,181.4235,-142.60536)" cx="-500.87387" cy="-64.192413" fx="-500.87387" fy="-64.192413" r="53.437332"/>
    <linearGradient inkscape:collect="always" xlink:href="#linearGradient21910" id="linearGradient25968" gradientUnits="userSpaceOnUse" x1="-383.08963" y1="40.004539" x2="-387.49478" y2="39.6534"/>
    <linearGradient inkscape:collect="always" xlink:href="#linearGradient21920" id="linearGradient25970" gradientUnits="userSpaceOnUse" x1="-386.40396" y1="26.914476" x2="-367.87613" y2="36.072624"/>
  </defs>
  <sodipodi:namedview id="base" pagecolor="#ffffff" bordercolor="#666666" borderopacity="1.0" inkscape:pageopacity="0.0" inkscape:pageshadow="2" inkscape:zoom="1.4107227" inkscape:cx="256.09625" inkscape:cy="208.92063" inkscape:document-units="px" inkscape:current-layer="g25929" inkscape:window-width="1280" inkscape:window-height="968" inkscape:window-x="-4" inkscape:window-y="-4" showguides="true" inkscape:guide-bbox="true" width="427px" height="404px"/>
  <metadata id="metadata7">
    <rdf:RDF>
      <cc:Work rdf:about="">
        <dc:format>image/svg+xml</dc:format>
        <dc:type rdf:resource="http://purl.org/dc/dcmitype/StillImage"/>
      </cc:Work>
    </rdf:RDF>
  </metadata>
  <g inkscape:label="Capa 1" inkscape:groupmode="layer" id="layer1">
    <g id="g25929" transform="translate(-32.768028,546.9579)">
      <path id="path24893" d="M 400.37442,-384.77059 L 375.78067,-361.27059 L 375.71817,-360.70809 L 365.09317,-367.36434 C 361.33905,-369.10937 358.48849,-368.89011 355.90567,-366.48934 L 218.15567,-238.45809 C 213.82784,-234.43531 206.68249,-225.83414 206.71817,-219.98934 L 206.93692,-187.64559 C 206.99916,-177.45 233.35373,-131.10095 274.34317,-170.30184 L 409.71817,-299.80184 C 412.53918,-302.30496 412.24193,-303.4733 412.21817,-307.52059 L 411.99942,-321.08309 L 412.65567,-320.64559 L 439.49942,-347.86434 L 440.24942,-360.17684 L 400.37442,-384.77059 z " style="fill:#000000;fill-opacity:1;fill-rule:evenodd;stroke:#000000;stroke-width:1px;stroke-linecap:butt;stroke-linejoin:miter;stroke-opacity:1;filter:url(#filter25924)"/>
      <path sodipodi:nodetypes="cscscsc" id="path2298" d="M 166.65651,-480.51743 C 178.67837,-486.99709 182.10247,-488.65762 185.43698,-492.76196 C 203.22673,-514.65881 251.23551,-534.75739 310.47296,-508.78427 C 335.44512,-498.29089 382.10434,-457.69823 347.68687,-408.78557 C 333.10941,-388.0687 275.41388,-377.12329 259.22407,-342.87966 C 202.08887,-204.87963 33.337757,-248.63362 49.089657,-344.1086 C 58.015187,-398.20771 115.08553,-463.20898 166.65651,-480.51743 z " style="fill:#000000;fill-rule:evenodd;stroke:#000000;stroke-width:1px;stroke-linecap:butt;stroke-linejoin:miter;stroke-opacity:1;filter:url(#filter16073)"/>
      <g transform="translate(252.54631,-198.05552)" id="g16014">
        <path sodipodi:nodetypes="cscscsc" id="path9176" d="M -90.162446,-293.1312 C -78.140586,-299.61086 -74.716486,-301.27139 -71.381976,-305.37573 C -53.592226,-327.27258 -5.5834467,-347.37116 53.653994,-321.39804 C 78.626154,-310.90466 125.28537,-270.312 90.867904,-221.39934 C 76.290444,-200.68247 18.594914,-189.73706 2.4051133,-155.49342 C -54.730086,-17.493393 -223.4812,-61.24738 -207.7293,-156.72236 C -198.80378,-210.82148 -141.73343,-275.82275 -90.162446,-293.1312 z " style="fill:url(#linearGradient25962);fill-opacity:1;fill-rule:evenodd;stroke:#000000;stroke-width:1px;stroke-linecap:butt;stroke-linejoin:miter;stroke-opacity:1"/>
        <path style="fill:url(#linearGradient25964);fill-opacity:1;fill-rule:evenodd;stroke:none;stroke-width:1px;stroke-linecap:butt;stroke-linejoin:miter;stroke-opacity:1" d="M -91.412811,-294.82525 C -79.390951,-301.30491 -75.966851,-302.96544 -72.632341,-307.06978 C -54.842591,-328.96663 -6.8338112,-349.06521 52.403629,-323.09209 C 77.375789,-312.59871 125.51119,-259.41459 83.490309,-240.45387 C 61.042279,-230.32484 17.808089,-290.90873 -6.5042912,-187.31302 C -56.491051,-35.526723 -220.12172,-76.082502 -208.97966,-158.41642 C -200.48369,-221.58645 -129.19752,-279.04861 -91.412811,-294.82525 z " id="path8193" sodipodi:nodetypes="cscscsc"/>
        <path transform="matrix(1.8214003,-0.5713486,0.2521228,1.896139,783.77261,-341.78869)" d="M -427.49867 -57.692963 A 53.437332 47.676899 0 1 1  -534.37334,-57.692963 A 53.437332 47.676899 0 1 1  -427.49867 -57.692963 z" sodipodi:ry="47.676899" sodipodi:rx="53.437332" sodipodi:cy="-57.692963" sodipodi:cx="-480.936" id="path8195" style="opacity:1;fill:url(#radialGradient25966);fill-opacity:1;stroke:none;stroke-width:1;stroke-linecap:square;stroke-linejoin:miter;stroke-miterlimit:4;stroke-dasharray:none;stroke-dashoffset:0;stroke-opacity:1" sodipodi:type="arc"/>
        <path style="fill:none;fill-opacity:1;fill-rule:evenodd;stroke:none;stroke-width:1px;stroke-linecap:butt;stroke-linejoin:miter;stroke-opacity:1" d="M -91.412811,-295.52837 C -79.390951,-302.00803 -75.966851,-303.66856 -72.632341,-307.7729 C -54.842591,-329.66975 -6.8338112,-349.76833 52.403629,-323.79521 C 77.375789,-313.30183 125.51119,-260.11771 83.490309,-241.15699 C 61.042279,-231.02796 17.808089,-291.61185 -6.5042912,-188.01614 C -56.491051,-36.229843 -220.12172,-76.785623 -208.97966,-159.11954 C -200.48369,-222.28957 -129.19752,-279.75173 -91.412811,-295.52837 z " id="path8201" sodipodi:nodetypes="cscscsc"/>
        <path sodipodi:nodetypes="cscsscssc" d="M 21.017855,-202.69365 C 22.848565,-206.67208 50.144955,-220.80578 59.295885,-223.04654 C 85.989735,-229.58297 93.530545,-233.06341 98.405486,-242.04801 C 88.786735,-222.99046 55.333435,-231.06684 23.347355,-207.25476 C 11.135635,-198.16373 -3.0507349,-150.0183 -31.331275,-116.85259 C -64.080295,-78.446503 -114.51699,-57.433911 -183.30878,-97.383408 C -160.35606,-79.45335 -128.73755,-74.752984 -114.70601,-74.764393 C -79.055125,-74.792977 -55.455315,-84.816626 -32.508715,-112.22719 C -15.789365,-132.19908 11.130045,-192.69044 21.017855,-202.69365 z " id="path9174" style="opacity:1;fill:#000000;fill-opacity:1;stroke:#000000;stroke-width:1;stroke-linecap:square;stroke-linejoin:miter;stroke-miterlimit:4;stroke-dasharray:none;stroke-dashoffset:0;stroke-opacity:1"/>
        <path style="fill:none;fill-opacity:1;fill-rule:evenodd;stroke:#000000;stroke-width:1px;stroke-linecap:butt;stroke-linejoin:miter;stroke-opacity:1" d="M -90.855411,-293.74527 C -78.833551,-300.22493 -75.409451,-301.88546 -72.074941,-305.9898 C -54.285191,-327.88665 -6.2764115,-347.98523 52.961029,-322.01211 C 77.933189,-311.51873 124.59241,-270.92607 90.174939,-222.01341 C 75.597479,-201.29654 17.901949,-190.35113 1.7121485,-156.10749 C -55.423051,-18.107463 -224.17416,-61.86145 -208.42226,-157.33643 C -199.49674,-211.43555 -142.42639,-276.43682 -90.855411,-293.74527 z " id="path10163" sodipodi:nodetypes="cscscsc"/>
        <path sodipodi:nodetypes="ccscc" id="path2318" d="M -68.232845,-303.35197 C -50.444821,-325.98568 -2.4406959,-346.7606 56.790999,-319.91345 C 100.73184,-299.26126 123.31332,-234.12877 76.346828,-234.19995 C 64.927305,-234.21669 54.042871,-248.2027 21.36758,-239.90872 C -28.634311,-291.49276 -45.039885,-297.25579 -68.232845,-303.35197 z " style="fill:#2d2f37;fill-opacity:1;fill-rule:evenodd;stroke:none;stroke-width:1.01663709px;stroke-linecap:butt;stroke-linejoin:miter;stroke-opacity:1"/>
        <path sodipodi:nodetypes="ccscccc" id="path11134" d="M -71.413725,-304.96485 C -53.623975,-326.8617 -3.3384447,-347.7192 59.314125,-318.71041 C 54.944355,-316.90694 48.101085,-314.72152 45.324055,-313.19964 C 42.191145,-311.48273 29.677325,-333.39463 3.9400553,-313.95589 C -1.5878147,-314.09871 -9.7284047,-311.09251 -3.0540747,-300.41002 C -17.130125,-299.84291 -20.875895,-292.78449 -29.607165,-286.60132 C -46.526865,-298.2851 -58.068495,-301.57163 -71.413725,-304.96485 z " style="fill:#d4dbe7;fill-opacity:1;fill-rule:evenodd;stroke:none;stroke-width:1px;stroke-linecap:butt;stroke-linejoin:miter;stroke-opacity:1"/>
        <path sodipodi:nodetypes="csccccc" id="path12105" d="M 61.868235,-316.31774 C 101.97611,-293.72001 121.35434,-236.69134 76.519415,-236.75707 C 65.098785,-236.77326 54.213295,-250.30395 21.534835,-242.27999 C 0.8886153,-262.88408 -14.258525,-275.93177 -26.560445,-284.56555 C -22.428845,-293.12784 -7.2391447,-297.15715 -3.8741747,-296.49886 C 11.662645,-292.76689 71.990955,-303.29711 48.491905,-310.76559 L 61.868235,-316.31774 z " style="fill:#d4dbe7;fill-opacity:1;fill-rule:evenodd;stroke:none;stroke-width:1px;stroke-linecap:butt;stroke-linejoin:miter;stroke-opacity:1"/>
        <path style="fill:#8c959e;fill-opacity:1;fill-rule:evenodd;stroke:#000000;stroke-width:1px;stroke-linecap:butt;stroke-linejoin:miter;stroke-opacity:1" d="M -3.1302661,-303.60955 C 7.5775539,-325.94015 34.186678,-328.70902 49.799588,-307.02438 L 18.496984,-298.77188 C 18.496984,-298.77188 -2.6455361,-297.87366 -3.1302661,-303.60955 z " id="path13086" sodipodi:nodetypes="cccc"/>
        <path sodipodi:nodetypes="ccc" id="path13088" d="M 49.799588,-307.02438 L 18.496984,-298.77188 C 21.321994,-302.3002 37.144318,-324.53579 49.799588,-307.02438 z " style="fill:#686c72;fill-opacity:1;fill-rule:evenodd;stroke:none;stroke-width:1px;stroke-linecap:butt;stroke-linejoin:miter;stroke-opacity:1"/>
        <path sodipodi:nodetypes="cccc" id="path16079" d="M -3.1302661,-303.60955 C 7.5775539,-325.94015 34.186678,-328.70902 49.799588,-307.02438 L 18.496984,-298.77188 C 18.496984,-298.77188 -2.6455361,-297.87366 -3.1302661,-303.60955 z " style="fill:none;fill-opacity:1;fill-rule:evenodd;stroke:#000000;stroke-width:1px;stroke-linecap:butt;stroke-linejoin:miter;stroke-opacity:1"/>
      </g>
      <path sodipodi:nodetypes="ccccc" id="path16077" d="M 181.11918,-503.17425 L 180.65847,-502.25285 C 217.56365,-490.52646 253.67989,-457.92083 273.9508,-437.75444 L 274.41151,-440.2883 C 274.41151,-440.2883 227.34123,-495.3288 181.11918,-503.17425 z " style="fill:#adbad1;fill-opacity:1;fill-rule:evenodd;stroke:none;stroke-width:1px;stroke-linecap:butt;stroke-linejoin:miter;stroke-opacity:1"/>
      <path style="fill:#263043;fill-opacity:1;fill-rule:evenodd;stroke:none;stroke-width:1px;stroke-linecap:butt;stroke-linejoin:miter;stroke-opacity:1" d="M 180.82425,-502.5844 L 180.65847,-502.25285 C 217.56365,-490.52646 253.67989,-457.92083 273.9508,-437.75444 L 274.08785,-438.44858 C 274.08785,-438.44858 227.04631,-494.73895 180.82425,-502.5844 z " id="path18988" sodipodi:nodetypes="ccccc"/>
      <g transform="translate(684.96005,-325.79995)" id="g24866">
        <path style="fill:#a29e93;fill-opacity:1;fill-rule:evenodd;stroke:none;stroke-width:1px;stroke-linecap:butt;stroke-linejoin:miter;stroke-opacity:1" d="M -313.43501,-41.492452 L -288.83725,-64.972125 L -248.95908,-40.374372 L -249.70447,-28.075496 L -276.53838,-0.86888964 L -314.92578,-26.957416 L -313.43501,-41.492452 z " id="path21949"/>
        <path id="path21951" d="M -280.26531,-10.186221 L -248.95908,-40.374372 L -249.70447,-28.075496 L -276.53838,-0.86888964 L -280.26531,-10.186221 z " style="fill:#9a9790;fill-opacity:1;fill-rule:evenodd;stroke:none;stroke-width:1px;stroke-linecap:butt;stroke-linejoin:miter;stroke-opacity:1" sodipodi:nodetypes="ccccc"/>
        <path id="path22926" d="M -313.43501,-41.492452 L -288.83725,-64.972125 L -248.95908,-40.374372 L -249.70447,-28.075496 L -276.53838,-0.86888683 L -314.92578,-26.957416 L -313.43501,-41.492452 z " style="fill:none;fill-opacity:1;fill-rule:evenodd;stroke:#000000;stroke-width:1px;stroke-linecap:butt;stroke-linejoin:miter;stroke-opacity:1"/>
        <g id="g21937" transform="translate(1.8634662,2.6088526)">
          <path sodipodi:nodetypes="cssssssssss" id="path19959" d="M -334.69568,-49.027997 C -332.11286,-51.428767 -329.26276,-51.643931 -325.50864,-49.898896 L -283.96965,-23.914218 C -280.69539,-21.866005 -278.78786,-17.74384 -278.71319,-12.735284 L -278.37518,9.9383921 C -278.35143,13.985683 -278.05499,15.154059 -280.876,17.65718 L -416.26908,147.14245 C -457.25852,186.34334 -483.61822,140.0111 -483.68046,129.81551 L -483.87795,97.466233 C -483.91364,91.621443 -476.76578,83.028153 -472.43795,79.005373 L -334.69568,-49.027997 z " style="fill:#7b8295;fill-opacity:1;fill-rule:evenodd;stroke:none;stroke-width:1px;stroke-linecap:butt;stroke-linejoin:miter;stroke-opacity:1"/>
          <path id="path19963" d="M -279.12801,-16.39171 C -279.50446,-15.786652 -280.05867,-15.181219 -280.87801,-14.45421 L -416.25301,115.04579 C -457.24244,154.24668 -483.59702,107.89763 -483.65926,97.702044 L -483.65926,95.764544 C -483.7743,96.355754 -483.88136,96.934484 -483.87801,97.483294 L -483.65926,129.82704 C -483.59702,140.02263 -457.24244,186.34043 -416.25301,147.13954 L -280.87801,17.67079 C -278.057,15.167669 -278.35427,13.999331 -278.37801,9.9520391 L -278.69051,-12.73546 C -278.70972,-14.024299 -278.874,-15.240495 -279.12801,-16.39171 z " style="fill:#5b5f6b;fill-opacity:1;fill-rule:evenodd;stroke:none;stroke-width:1px;stroke-linecap:butt;stroke-linejoin:miter;stroke-opacity:1"/>
          <g transform="translate(-53.150303,55.958054)" id="g21928">
            <path sodipodi:type="arc" style="opacity:1;fill:#33554d;fill-opacity:1;stroke:none;stroke-width:1;stroke-linecap:square;stroke-linejoin:miter;stroke-miterlimit:4;stroke-dasharray:none;stroke-dashoffset:0;stroke-opacity:1" id="path20937" sodipodi:cx="-374.69138" sodipodi:cy="34.142593" sodipodi:rx="7.2809982" sodipodi:ry="4.8539987" d="M -367.41038 34.142593 A 7.2809982 4.8539987 0 1 1  -381.97237,34.142593 A 7.2809982 4.8539987 0 1 1  -367.41038 34.142593 z" transform="matrix(0.9802089,-0.3018775,0.3282918,1.0659771,-35.61329,-108.82932)"/>
            <path style="fill:url(#linearGradient25968);fill-opacity:1;fill-rule:evenodd;stroke:none;stroke-width:1px;stroke-linecap:butt;stroke-linejoin:miter;stroke-opacity:1" d="M -387.65439,42.749785 C -387.65439,42.749785 -382.10005,40.515281 -387.01596,37.259291 L -387.65439,42.749785 z " id="path20939" sodipodi:nodetypes="ccc"/>
            <path transform="matrix(0.9177741,-0.2826493,0.3073811,0.9980793,-58.293125,-99.306468)" d="M -367.41038 34.142593 A 7.2809982 4.8539987 0 1 1  -381.97237,34.142593 A 7.2809982 4.8539987 0 1 1  -367.41038 34.142593 z" sodipodi:ry="4.8539987" sodipodi:rx="7.2809982" sodipodi:cy="34.142593" sodipodi:cx="-374.69138" id="path21918" style="opacity:1;fill:url(#linearGradient25970);fill-opacity:1;stroke:none;stroke-width:1;stroke-linecap:square;stroke-linejoin:miter;stroke-miterlimit:4;stroke-dasharray:none;stroke-dashoffset:0;stroke-opacity:1" sodipodi:type="arc"/>
          </g>
        </g>
        <path sodipodi:nodetypes="cssssssssss" id="path19966" d="M -333.29831,-46.690799 C -330.71549,-49.091569 -327.86539,-49.306733 -324.11127,-47.561698 L -282.57228,-21.57702 C -279.29802,-19.528807 -277.39049,-15.406642 -277.31582,-10.398087 L -276.97781,12.27559 C -276.95406,16.322881 -276.65762,17.491257 -279.47863,19.994378 L -414.87171,149.47966 C -455.86115,188.68055 -482.22085,142.34831 -482.28309,132.15272 L -482.48058,99.803427 C -482.51627,93.958634 -475.36841,85.365344 -471.04058,81.342564 L -333.29831,-46.690799 z " style="fill:none;fill-rule:evenodd;stroke:#000000;stroke-width:1px;stroke-linecap:butt;stroke-linejoin:miter;stroke-opacity:1"/>
        <path style="fill:#000000;fill-rule:evenodd;stroke:#000000;stroke-width:1px;stroke-linecap:butt;stroke-linejoin:miter;stroke-opacity:1" d="M -302.9996,-43.355918 L -298.15459,-47.828237 L -290.32803,-41.865145 L -294.42765,-37.392826 L -302.9996,-43.355918 z " id="path21953"/>
        <path id="path21955" d="M -282.12878,-30.311655 L -277.28377,-34.783974 L -269.45721,-28.820882 L -273.55683,-24.348563 L -282.12878,-30.311655 z " style="fill:#000000;fill-rule:evenodd;stroke:#000000;stroke-width:1px;stroke-linecap:butt;stroke-linejoin:miter;stroke-opacity:1"/>
      </g>
    </g>
    <g transform="translate(765.14307,-244.36511)" id="g24887"/>
  </g>
</svg>