<svg version="1.1" width="1920" height="1281" xmlns="http://www.w3.org/2000/svg">
<rect x="0" y="0" width="1920" height="1281" fill="#7d8394" />
<g transform="scale(7.5, 7.53529)">
<path d="M 256.22 47.0189 L 1.37499 55.9183 L -2.21965 -47.0189 L 252.625 -55.9183 Z" fill="#ffffff" fill-opacity="0.501961" />
<path d="M 5.84133 170.253 C -62.8733 163.058, -65.6886 138.793, -0.446656 116.056 C 64.7953 93.3194, 173.389 80.7203, 242.103 87.9155 C 310.818 95.1107, 313.633 119.376, 248.391 142.113 C 183.149 164.849, 74.556 177.449, 5.84133 170.253" fill="#080f2a" fill-opacity="0.501961" />
<path d="M 62 23 L 36 27 L 50 108 Z" fill="#0b0006" fill-opacity="0.501961" />
<path d="M -28.3257 27.2154 C -1.76193 39.2131, 33.5587 68.1291, 50.5652 91.8011 C 67.5716 115.473, 59.8239 124.937, 33.2601 112.939 C 6.69633 100.941, -28.6243 72.0253, -45.6308 48.3534 C -62.6372 24.6814, -54.8895 15.2176, -28.3257 27.2154" fill="#41d8ff" fill-opacity="0.501961" />
<path d="M 85 70 L 27 -16 L 137 -16 Z" fill="#ffffff" fill-opacity="0.501961" />
<path d="M 162.526 55.9939 C 159.245 64.506, 150.691 66.9394, 143.421 61.4292 C 136.151 55.9189, 132.917 44.5517, 136.198 36.0397 C 139.479 27.5276, 148.032 25.0942, 155.303 30.6044 C 162.573 36.1147, 165.807 47.4819, 162.526 55.9939" fill="#2d0005" fill-opacity="0.501961" />
<path d="M 175.95 -43.9777 C 178.683 42.7187, 178.683 183.281, 175.95 269.978 C 173.216 356.674, 168.784 356.674, 166.05 269.978 C 163.317 183.281, 163.317 42.7187, 166.05 -43.9777 C 168.784 -130.674, 173.216 -130.674, 175.95 -43.9777" fill="#dfe7f4" fill-opacity="0.501961" />
<path d="M 262 -16 L 271 99 L 201 12 Z" fill="#ffffff" fill-opacity="0.501961" />
<path d="M 152.583 164.372 L 211.005 135.878 L 229.417 173.628 L 170.995 202.122 Z" fill="#ffbb98" fill-opacity="0.501961" />
<path d="M 24.0416 19.9584 C 37.3195 33.2362, 37.3195 54.7638, 24.0416 68.0416 C 10.7638 81.3195, -10.7638 81.3195, -24.0416 68.0416 C -37.3195 54.7638, -37.3195 33.2362, -24.0416 19.9584 C -10.7638 6.68054, 10.7638 6.68054, 24.0416 19.9584" fill="#ffffff" fill-opacity="0.501961" />
<path d="M 83.5846 178.085 C 75.046 187.603, 58.8392 190.711, 47.3856 185.025 C 35.9319 179.339, 33.5688 167.013, 42.1073 157.495 C 50.6458 147.976, 66.8526 144.869, 78.3063 150.554 C 89.7599 156.24, 92.1231 168.566, 83.5846 178.085" fill="#dac8be" fill-opacity="0.501961" />
<path d="M 172 122 L 83 126 L 92 67 Z" fill="#400000" fill-opacity="0.501961" />
<path d="M 190 -16 L 191 31 L 22 12 Z" fill="#ffffff" fill-opacity="0.501961" />
<path d="M 21 90 L -16 175 L 73 143 Z" fill="#001d45" fill-opacity="0.501961" />
<path d="M 236.623 65.5106 L 271 149.211 L 243.298 158.948 L 173.528 119.108 Z" fill="#0e194b" fill-opacity="0.501961" />
<path d="M 190 19 L 210 19 L 210 91 L 190 91 Z" fill="#a25558" fill-opacity="0.501961" />
<path d="M 56.599 70.9172 C 60.8407 63.7554, 70.6775 60.0926, 78.5702 62.7362 C 86.463 65.3799, 89.4227 73.3288, 85.1811 80.4906 C 80.9394 87.6524, 71.1025 91.3152, 63.2098 88.6716 C 55.3171 86.0279, 52.3573 78.079, 56.599 70.9172" fill="#0071dd" fill-opacity="0.501961" />
<path d="M -16 119 L 41 37 L 36 120 Z" fill="#0696e0" fill-opacity="0.501961" />
<path d="M 124.989 34.8701 C 127.014 43.6474, 123.462 55.8968, 117.057 62.23 C 110.652 68.5632, 103.818 66.5819, 101.793 57.8046 C 99.7684 49.0273, 103.32 36.7779, 109.725 30.4447 C 116.131 24.1115, 122.965 26.0928, 124.989 34.8701" fill="#713a3e" fill-opacity="0.501961" />
<path d="M 142.6 103.744 C 136.498 100.304, 131.819 91.844, 132.15 84.8471 C 132.481 77.8502, 137.696 74.9663, 143.798 78.4057 C 149.9 81.8452, 154.579 90.3056, 154.248 97.3025 C 153.917 104.299, 148.702 107.183, 142.6 103.744" fill="#d5c4db" fill-opacity="0.501961" />
<path d="M 76.0711 87.1802 C 79.9763 104.754, 79.9763 133.246, 76.0711 150.82 C 72.1658 168.393, 65.8342 168.393, 61.9289 150.82 C 58.0237 133.246, 58.0237 104.754, 61.9289 87.1802 C 65.8342 69.6066, 72.1658 69.6066, 76.0711 87.1802" fill="#42a2a5" fill-opacity="0.501961" />
<path d="M 75.052 38.5458 L 54.2122 60.126 L 36.948 43.4542 L 57.7878 21.874 Z" fill="#693c43" fill-opacity="0.501961" />
<path d="M 187.778 36.1005 C 192.074 41.5678, 192.074 50.4322, 187.778 55.8995 C 183.482 61.3668, 176.518 61.3668, 172.222 55.8995 C 167.926 50.4322, 167.926 41.5678, 172.222 36.1005 C 176.518 30.6332, 183.482 30.6332, 187.778 36.1005" fill="#ffffff" fill-opacity="0.501961" />
<path d="M 41.393 180.18 L 34.1288 159.177 L 33.1059 130.543 L 21.1224 174.969 Z" fill="#4db4e7" fill-opacity="0.501961" />
<path d="M 139 65 L 200 55 L 230 83 Z" fill="#dca9b1" fill-opacity="0.501961" />
<path d="M 95 167 L 82 144 L 154 166 Z" fill="#070000" fill-opacity="0.501961" />
<path d="M 132.563 62.3308 L 131.943 76.0512 L 140.58 72.2811 L 140.617 30.3953 Z" fill="#040006" fill-opacity="0.501961" />
<path d="M 150 98 L 228 89 L 178 72 Z" fill="#5e404d" fill-opacity="0.501961" />
<path d="M 12.1619 144.521 C -1.97252 139.654, -2.29439 130.929, 11.4429 125.034 C 25.1803 119.138, 47.7748 118.305, 61.9091 123.172 C 76.0435 128.039, 76.3654 136.764, 62.6281 142.659 C 48.8907 148.555, 26.2962 149.388, 12.1619 144.521" fill="#001821" fill-opacity="0.501961" />
<path d="M 171.287 39.7825 C 157.932 47.8248, 155.397 44.806, 165.623 33.0397 C 175.85 21.2735, 194.967 5.21548, 208.321 -2.82682 C 221.676 -10.8691, 224.212 -7.85026, 213.985 3.91599 C 203.759 15.6822, 184.642 31.7402, 171.287 39.7825" fill="#69c8ff" fill-opacity="0.501961" />
<path d="M 233.899 31.1005 C 239.367 36.5678, 239.367 45.4322, 233.899 50.8995 C 228.432 56.3668, 219.568 56.3668, 214.101 50.8995 C 208.633 45.4322, 208.633 36.5678, 214.101 31.1005 C 219.568 25.6332, 228.432 25.6332, 233.899 31.1005" fill="#ffffff" fill-opacity="0.501961" />
<path d="M 213.778 135.929 C 218.074 139.834, 218.074 146.166, 213.778 150.071 C 209.482 153.976, 202.518 153.976, 198.222 150.071 C 193.926 146.166, 193.926 139.834, 198.222 135.929 C 202.518 132.024, 209.482 132.024, 213.778 135.929" fill="#ffbfbd" fill-opacity="0.501961" />
<path d="M 118.454 84.9214 C 112.897 89.7896, 104.631 89.0772, 99.9894 83.33 C 95.3481 77.5829, 96.0897 68.9774, 101.646 64.1091 C 107.202 59.2408, 115.469 59.9533, 120.11 65.7004 C 124.751 71.4476, 124.01 80.0531, 118.454 84.9214" fill="#e28b79" fill-opacity="0.501961" />
<path d="M 113.654 146.991 C 103.855 142.361, 104.044 135.285, 114.076 131.185 C 124.109 127.086, 140.186 127.516, 149.985 132.145 C 159.784 136.775, 159.595 143.851, 149.563 147.951 C 139.53 152.05, 123.453 151.62, 113.654 146.991" fill="#8c7d86" fill-opacity="0.501961" />
<path d="M 160.5 129.045 L 168.422 130.159 L 165.5 150.955 L 157.578 149.841 Z" fill="#000000" fill-opacity="0.501961" />
<path d="M 39.0061 18.9287 C 48.988 31.4002, 45.843 35.0742, 31.9814 27.1348 C 18.1199 19.1954, -1.20908 2.64906, -11.191 -9.82244 C -21.1729 -22.2939, -18.0278 -25.9679, -4.16629 -18.0285 C 9.69526 -10.0891, 29.0242 6.45724, 39.0061 18.9287" fill="#52bdf8" fill-opacity="0.501961" />
<path d="M 118 -16 L 137 20 L 131 70 Z" fill="#ffffff" fill-opacity="0.501961" />
<path d="M 83.1307 122.239 C 88.2565 129.037, 86.3078 131.326, 78.7782 127.352 C 71.2487 123.378, 60.9895 114.645, 55.8637 107.847 C 50.7379 101.049, 52.6866 98.7592, 60.2162 102.734 C 67.7457 106.708, 78.0049 115.441, 83.1307 122.239" fill="#bdc7a2" fill-opacity="0.501961" />
<path d="M 156.67 57.9543 L 140.994 71.5852 L 139.388 79.1921 L 175.005 79.8226 Z" fill="#e4cbda" fill-opacity="0.501961" />
<path d="M 232 72 L 193 29 L 194 49 Z" fill="#412e3b" fill-opacity="0.501961" />
<path d="M 92.1924 44.8076 C 97.2692 49.8844, 97.2692 58.1156, 92.1924 63.1924 C 87.1156 68.2692, 78.8844 68.2692, 73.8076 63.1924 C 68.7308 58.1156, 68.7308 49.8844, 73.8076 44.8076 C 78.8844 39.7308, 87.1156 39.7308, 92.1924 44.8076" fill="#f5fcff" fill-opacity="0.501961" />
<path d="M 17.952 27.2047 L 17.0445 79.1967 L -5.95201 78.7953 L -5.04449 26.8033 Z" fill="#ffffff" fill-opacity="0.501961" />
<path d="M 205 137 L 190 79 L 180 133 Z" fill="#000937" fill-opacity="0.501961" />
<path d="M 15 129 L 65 126 L 1 102 Z" fill="#007245" fill-opacity="0.501961" />
<path d="M 72 30 L -4 -16 L 210 9 Z" fill="#ffffff" fill-opacity="0.501961" />
<path d="M 246.849 150.879 C 255.05 152.05, 255.05 153.95, 246.849 155.121 C 238.648 156.293, 225.352 156.293, 217.151 155.121 C 208.95 153.95, 208.95 152.05, 217.151 150.879 C 225.352 149.707, 238.648 149.707, 246.849 150.879" fill="#00000f" fill-opacity="0.501961" />
<path d="M 52.1447 87.4962 C 55.353 89.2352, 58.2587 93.5876, 58.6348 97.2175 C 59.0108 100.847, 56.7147 102.38, 53.5063 100.641 C 50.2979 98.9023, 47.3922 94.55, 47.0162 90.9201 C 46.6402 87.2901, 48.9363 85.7572, 52.1447 87.4962" fill="#b82303" fill-opacity="0.501961" />
<path d="M 312.838 182.933 C 275.464 181.956, 215.668 174.204, 179.28 165.617 C 142.893 157.03, 143.693 150.861, 181.067 151.838 C 218.441 152.815, 278.237 160.567, 314.624 169.154 C 351.012 177.741, 350.212 183.91, 312.838 182.933" fill="#c8957f" fill-opacity="0.501961" />
<path d="M 18.435 133.544 C 25.855 147.603, 25.855 170.397, 18.435 184.456 C 11.0151 198.515, -1.01507 198.515, -8.43503 184.456 C -15.855 170.397, -15.855 147.603, -8.43503 133.544 C -1.01507 119.485, 11.0151 119.485, 18.435 133.544" fill="#000341" fill-opacity="0.501961" />
<path d="M 41.7125 70.1213 L 34.1483 67.5167 L 42.2875 43.8787 L 49.8517 46.4833 Z" fill="#000331" fill-opacity="0.501961" />
<path d="M -16 113 L -3 85 L 8 122 Z" fill="#d3ffff" fill-opacity="0.501961" />
<path d="M 189.508 144.975 C 193.76 148.994, 192.65 150.935, 187.029 149.309 C 181.409 147.684, 173.405 143.107, 169.154 139.087 C 164.902 135.068, 166.012 133.127, 171.633 134.753 C 177.253 136.378, 185.256 140.955, 189.508 144.975" fill="#041d3c" fill-opacity="0.501961" />
<path d="M 179.376 134.059 C 180.256 138.733, 178.165 139.877, 174.705 136.613 C 171.244 133.349, 167.725 126.914, 166.845 122.239 C 165.965 117.564, 168.056 116.421, 171.517 119.685 C 174.977 122.949, 178.496 129.384, 179.376 134.059" fill="#ffbca9" fill-opacity="0.501961" />
<path d="M 173.381 82.9501 L 152.899 77.9661 L 152.263 100.327 L 165.389 98.8066 Z" fill="#83321f" fill-opacity="0.501961" />
<path d="M 38 51 L 20 56 L 26 -11 Z" fill="#d3d8da" fill-opacity="0.501961" />
<path d="M 67.364 36.6863 C 70.8787 42.9347, 70.8787 53.0653, 67.364 59.3137 C 63.8492 65.5621, 58.1508 65.5621, 54.636 59.3137 C 51.1213 53.0653, 51.1213 42.9347, 54.636 36.6863 C 58.1508 30.4379, 63.8492 30.4379, 67.364 36.6863" fill="#d78476" fill-opacity="0.501961" />
<path d="M 80 83 L 55 105 L 81 104 Z" fill="#004c67" fill-opacity="0.501961" />
<path d="M 266 -16 L 254 72 L 206 19 Z" fill="#f4fdff" fill-opacity="0.501961" />
<path d="M 77.8998 131.699 L 79.1192 142.894 L 65.5105 149.751 L 71.2611 136.266 Z" fill="#38c3ff" fill-opacity="0.501961" />
<path d="M 164 103 L 178 103 L 178 112 L 164 112 Z" fill="#84ffff" fill-opacity="0.501961" />
<path d="M 103.607 99.3934 C 109.464 105.251, 109.464 114.749, 103.607 120.607 C 97.7487 126.464, 88.2513 126.464, 82.3934 120.607 C 76.5355 114.749, 76.5355 105.251, 82.3934 99.3934 C 88.2513 93.5355, 97.7487 93.5355, 103.607 99.3934" fill="#2d0011" fill-opacity="0.501961" />
<path d="M 158.899 105.929 C 164.367 109.834, 164.367 116.166, 158.899 120.071 C 153.432 123.976, 144.568 123.976, 139.101 120.071 C 133.633 116.166, 133.633 109.834, 139.101 105.929 C 144.568 102.024, 153.432 102.024, 158.899 105.929" fill="#000c34" fill-opacity="0.501961" />
<path d="M 36.7684 83.9069 C 30.3546 80.684, 23.3628 72.5354, 21.1518 65.7064 C 18.9408 58.8774, 22.3477 55.9541, 28.7615 59.177 C 35.1753 62.3999, 42.1671 70.5485, 44.3781 77.3775 C 46.5891 84.2064, 43.1821 87.1297, 36.7684 83.9069" fill="#1798f0" fill-opacity="0.501961" />
<path d="M 244.899 62.1508 C 250.367 70.3518, 250.367 83.6482, 244.899 91.8492 C 239.432 100.05, 230.568 100.05, 225.101 91.8492 C 219.633 83.6482, 219.633 70.3518, 225.101 62.1508 C 230.568 53.9497, 239.432 53.9497, 244.899 62.1508" fill="#57546f" fill-opacity="0.501961" />
<path d="M 144.901 52.9423 C 142.883 48.4555, 142.437 41.0114, 143.904 36.3155 C 145.37 31.6196, 148.195 31.45, 150.213 35.9369 C 152.231 40.4237, 152.678 47.8678, 151.211 52.5637 C 149.744 57.2597, 146.919 57.4292, 144.901 52.9423" fill="#f49686" fill-opacity="0.501961" />
<path d="M 166.488 51.2977 C 167.773 43.9821, 174.298 35.5654, 181.062 32.4983 C 187.827 29.4313, 192.27 32.8754, 190.985 40.1909 C 189.7 47.5065, 183.175 55.9232, 176.411 58.9903 C 169.646 62.0573, 165.203 58.6132, 166.488 51.2977" fill="#ffffff" fill-opacity="0.501961" />
<path d="M 218.79 66.0219 L 216.561 93.1117 L 198.96 73.3634 L 250.076 37.9562 Z" fill="#e19c8f" fill-opacity="0.501961" />
<path d="M 150.297 58.3674 L 171.646 63.4857 L 140.097 25.9434 L 160.327 39.5358 Z" fill="#242027" fill-opacity="0.501961" />
<path d="M 271 163 L 248 118 L 203 131 Z" fill="#0b1a3c" fill-opacity="0.501961" />
<path d="M 38.859 81.4377 L 56.6163 109.578 L 44.5615 115.865 L 29.24 100.23 Z" fill="#28acff" fill-opacity="0.501961" />
<path d="M 125 26 L 108 26 L 127 34 Z" fill="#1c2840" fill-opacity="0.501961" />
<path d="M 80.2612 75.8584 C 77.4156 82.3957, 69.451 86.5141, 62.4717 85.057 C 55.4924 83.6, 52.1414 77.1194, 54.987 70.5821 C 57.8326 64.0448, 65.7972 59.9265, 72.7764 61.3835 C 79.7557 62.8405, 83.1067 69.3212, 80.2612 75.8584" fill="#006fc0" fill-opacity="0.501961" />
<path d="M 63.8284 144.172 C 65.3905 145.734, 65.3905 148.266, 63.8284 149.828 C 62.2663 151.391, 59.7337 151.391, 58.1716 149.828 C 56.6095 148.266, 56.6095 145.734, 58.1716 144.172 C 59.7337 142.609, 62.2663 142.609, 63.8284 144.172" fill="#64f3ff" fill-opacity="0.501961" />
<path d="M 128 158 L 154 158 L 154 167 L 128 167 Z" fill="#0a0401" fill-opacity="0.501961" />
<path d="M 171.574 63.3856 L 191.073 65.2459 L 189.57 81.8082 L 179.07 112.243 Z" fill="#516389" fill-opacity="0.501961" />
<path d="M 94.8995 29.1005 C 100.367 34.5678, 100.367 43.4322, 94.8995 48.8995 C 89.4322 54.3668, 80.5678 54.3668, 75.1005 48.8995 C 69.6332 43.4322, 69.6332 34.5678, 75.1005 29.1005 C 80.5678 23.6332, 89.4322 23.6332, 94.8995 29.1005" fill="#ffffff" fill-opacity="0.501961" />
<path d="M 134.102 36.5883 L 125.806 78.7185 L 108.856 45.5976 L 121.172 65.2123 Z" fill="#e0d4d4" fill-opacity="0.501961" />
<path d="M 71.6368 57.3007 L 96.9052 88.1627 L 76.7791 102.974 L 92.0414 62.3088 Z" fill="#98add4" fill-opacity="0.501961" />
<path d="M 197.714 41.696 L 182.61 59.1934 L 178.637 59.9081 L 217.273 50.9246 Z" fill="#45455a" fill-opacity="0.501961" />
<path d="M 107 153 L 75 148 L 93 119 Z" fill="#442625" fill-opacity="0.501961" />
<path d="M 162 42 L 187 -10 L 137 -16 Z" fill="#ffffff" fill-opacity="0.501961" />
<path d="M 77.6465 123.883 L 112.251 100.886 L 115.722 58.681 L 123.408 125.715 Z" fill="#541327" fill-opacity="0.501961" />
<path d="M 78.3395 117.256 L 85.609 128.034 L 75.6605 134.744 L 68.391 123.966 Z" fill="#e57e97" fill-opacity="0.501961" />
<path d="M 159.62 124.257 C 163.311 122.697, 169.539 121.725, 173.53 122.087 C 177.521 122.448, 177.764 124.006, 174.073 125.566 C 170.382 127.126, 164.154 128.098, 160.163 127.736 C 156.172 127.375, 155.929 125.817, 159.62 124.257" fill="#feb5af" fill-opacity="0.501961" />
<path d="M 92.6419 50.1346 L 134.405 65.0284 L 106.014 43.379 L 98.5767 48.8715 Z" fill="#4f5a70" fill-opacity="0.501961" />
<path d="M 243 90 L 271 105 L 271 58 Z" fill="#73ace0" fill-opacity="0.501961" />
<path d="M 41.333 28.4167 L 26.0939 56.6807 L 40.0972 50.2819 L 26.2045 32.2812 Z" fill="#ddfaff" fill-opacity="0.501961" />
<path d="M 43 152 L 20 131 L 61 130 Z" fill="#000013" fill-opacity="0.501961" />
<path d="M 188 137 L 159 157 L 150 185 Z" fill="#93b2d1" fill-opacity="0.501961" />
<path d="M 101 60 L 112 60 L 112 67 L 101 67 Z" fill="#ffd8cf" fill-opacity="0.501961" />
<path d="M 203 131 L 216 142 L 214 157 Z" fill="#ffc6bd" fill-opacity="0.501961" />
<path d="M 65 28 L 38 48 L 49 21 Z" fill="#27324d" fill-opacity="0.501961" />
<path d="M 83 168 L 43 156 L 10 175 Z" fill="#bea298" fill-opacity="0.501961" />
<path d="M 243.021 141.757 C 249.66 144.101, 249.66 147.899, 243.021 150.243 C 236.382 152.586, 225.618 152.586, 218.979 150.243 C 212.34 147.899, 212.34 144.101, 218.979 141.757 C 225.618 139.414, 236.382 139.414, 243.021 141.757" fill="#455380" fill-opacity="0.501961" />
<path d="M 30 141 L 34 141 L 34 160 L 30 160 Z" fill="#16a6ff" fill-opacity="0.501961" />
<path d="M 19 66 L -16 -14 L 22 21 Z" fill="#ffffff" fill-opacity="0.501961" />
<path d="M 122.994 99.4977 L 94.2098 83.0828 L 100.63 100.302 L 119.02 96.8046 Z" fill="#080007" fill-opacity="0.501961" />
<path d="M 142.602 71.2495 L 158.775 37.4854 L 163.34 51.0056 L 133.847 61.4788 Z" fill="#30252c" fill-opacity="0.501961" />
<path d="M 53.1535 119.79 C 51.319 115.742, 53.4335 112.38, 57.8763 112.279 C 62.3191 112.179, 67.4078 115.378, 69.2422 119.426 C 71.0767 123.474, 68.9622 126.836, 64.5194 126.937 C 60.0766 127.037, 54.9879 123.838, 53.1535 119.79" fill="#009661" fill-opacity="0.501961" />
<path d="M 23 -16 L -7 -3 L 21 13 Z" fill="#2f9fe2" fill-opacity="0.501961" />
<path d="M 26.5735 67.1484 L 24.6654 57.3321 L 37.4265 54.8516 L 39.3346 64.6679 Z" fill="#0046c7" fill-opacity="0.501961" />
<path d="M -0.462874 90.3277 C -4.33775 89.2661, -5.68072 85.69, -3.46248 82.3403 C -1.24424 78.9905, 3.69521 77.1355, 7.57009 78.1971 C 11.445 79.2586, 12.7879 82.8347, 10.5697 86.1845 C 8.35145 89.5343, 3.412 91.3892, -0.462874 90.3277" fill="#28619a" fill-opacity="0.501961" />
<path d="M 155.983 150.55 L 159.391 124.879 L 158.942 126.056 L 65.8394 126.192 Z" fill="#7b6b73" fill-opacity="0.501961" />
<path d="M 141.363 36.7195 C 141.799 44.6238, 140.228 57.1539, 137.855 64.7063 C 135.483 72.2586, 133.206 71.9733, 132.77 64.069 C 132.334 56.1646, 133.904 43.6345, 136.277 36.0822 C 138.65 28.5298, 140.927 28.8152, 141.363 36.7195" fill="#2d344b" fill-opacity="0.501961" />
<path d="M 176 124 L 186 84 L 216 105 Z" fill="#052055" fill-opacity="0.501961" />
<path d="M 161 76 L 167 76 L 167 94 L 161 94 Z" fill="#de7f69" fill-opacity="0.501961" />
<path d="M 125 59 L 122 59 L 122 48 L 125 48 Z" fill="#001125" fill-opacity="0.501961" />
<path d="M 97 69 L 112 69 L 112 73 L 97 73 Z" fill="#47252d" fill-opacity="0.501961" />
<path d="M 212.828 75.9792 C 214.391 82.6181, 214.391 93.3819, 212.828 100.021 C 211.266 106.66, 208.734 106.66, 207.172 100.021 C 205.609 93.3819, 205.609 82.6181, 207.172 75.9792 C 208.734 69.3403, 211.266 69.3403, 212.828 75.9792" fill="#8c5c53" fill-opacity="0.501961" />
<path d="M 22.2307 48.344 C 21.3413 41.8051, 21.4666 31.2222, 22.5106 24.7062 C 23.5546 18.1903, 25.1219 18.2089, 26.0114 24.7477 C 26.9008 31.2865, 26.7755 41.8695, 25.7315 48.3854 C 24.6875 54.9013, 23.1202 54.8828, 22.2307 48.344" fill="#a09ca9" fill-opacity="0.501961" />
<path d="M 243.828 21.4437 C 245.391 30.0352, 245.391 43.9648, 243.828 52.5563 C 242.266 61.1479, 239.734 61.1479, 238.172 52.5563 C 236.609 43.9648, 236.609 30.0352, 238.172 21.4437 C 239.734 12.8521, 242.266 12.8521, 243.828 21.4437" fill="#98c2e7" fill-opacity="0.501961" />
<path d="M 17 84 L -12 97 L -16 147 Z" fill="#80bee3" fill-opacity="0.501961" />
<path d="M 171 149 L 196 149 L 196 153 L 171 153 Z" fill="#514652" fill-opacity="0.501961" />
<path d="M 125 165 L 86 166 L 87 154 Z" fill="#080606" fill-opacity="0.501961" />
<path d="M 9 -16 L 45 20 L 105 32 Z" fill="#fdfeff" fill-opacity="0.501961" />
<path d="M 199.364 137.586 C 202.879 138.367, 202.879 139.633, 199.364 140.414 C 195.849 141.195, 190.151 141.195, 186.636 140.414 C 183.121 139.633, 183.121 138.367, 186.636 137.586 C 190.151 136.805, 195.849 136.805, 199.364 137.586" fill="#ffcbc4" fill-opacity="0.501961" />
<path d="M -2 178 L 32 136 L 16 182 Z" fill="#000513" fill-opacity="0.501961" />
<path d="M 223.777 130.723 L 205.903 116.249 L 234.223 81.277 L 252.097 95.7514 Z" fill="#394879" fill-opacity="0.501961" />
<path d="M 117.604 30.0299 L 127.316 35.1941 L 118.396 51.9701 L 108.684 46.8059 Z" fill="#de8c7f" fill-opacity="0.501961" />
<path d="M 198.907 129.888 L 200.271 128.426 L 217.093 144.112 L 215.729 145.574 Z" fill="#ffbeb4" fill-opacity="0.501961" />
<path d="M 173.818 108.727 L 195.39 81.682 L 176.46 89.8615 L 162.093 103.842 Z" fill="#6683ae" fill-opacity="0.501961" />
<path d="M 176 67 L 171 46 L 162 45 Z" fill="#ffffff" fill-opacity="0.501961" />
<path d="M 64.8409 64.2609 L 35.2502 58.6034 L 45.0784 73.624 L 60.6885 70.6369 Z" fill="#33222e" fill-opacity="0.501961" />
<path d="M 144.888 32.6282 C 148.496 31.5843, 151.378 33.7827, 151.325 37.5387 C 151.271 41.2946, 148.303 45.1857, 144.694 46.2296 C 141.086 47.2736, 138.204 45.0751, 138.258 41.3192 C 138.311 37.5633, 141.279 33.6722, 144.888 32.6282" fill="#c98887" fill-opacity="0.501961" />
<path d="M 141.845 30.5566 L 142.193 26.5718 L 152.155 27.4434 L 151.807 31.4282 Z" fill="#061937" fill-opacity="0.501961" />
<path d="M 66.9884 106.409 L 57.5914 102.988 L 61.0116 93.5914 L 70.4086 97.0116 Z" fill="#0f6d14" fill-opacity="0.501961" />
<path d="M 127 -10 L 126 59 L 147 3 Z" fill="#ffffff" fill-opacity="0.501961" />
<path d="M 182 139 L 184 117 L 201 134 Z" fill="#000014" fill-opacity="0.501961" />
<path d="M 152.775 82.8508 L 159.668 81.6353 L 165.225 113.149 L 158.332 114.365 Z" fill="#1b1624" fill-opacity="0.501961" />
<path d="M 75 151 L 85 151 L 85 159 L 75 159 Z" fill="#d9afad" fill-opacity="0.501961" />
<path d="M 205 13 L 237 -6 L 237 61 Z" fill="#fff9fa" fill-opacity="0.501961" />
<path d="M 174.935 72.8205 L 177.676 71.6003 L 189.065 97.1795 L 186.324 98.3997 Z" fill="#142139" fill-opacity="0.501961" />
<path d="M 55.5633 87.2898 L 59.5335 87.7773 L 58.4367 96.7102 L 54.4665 96.2227 Z" fill="#ff2c02" fill-opacity="0.501961" />
<path d="M 218.607 -4.94975 C 224.464 -2.21608, 224.464 2.21608, 218.607 4.94975 C 212.749 7.68342, 203.251 7.68342, 197.393 4.94975 C 191.536 2.21608, 191.536 -2.21608, 197.393 -4.94975 C 203.251 -7.68342, 212.749 -7.68342, 218.607 -4.94975" fill="#61bffb" fill-opacity="0.501961" />
<path d="M 152.385 168.293 C 162.538 168.683, 162.538 169.317, 152.385 169.707 C 142.231 170.098, 125.769 170.098, 115.615 169.707 C 105.462 169.317, 105.462 168.683, 115.615 168.293 C 125.769 167.902, 142.231 167.902, 152.385 168.293" fill="#e8e5fa" fill-opacity="0.501961" />
<path d="M 143.887 96.8554 C 145.618 101.555, 144.012 102.64, 140.298 99.2796 C 136.585 95.9189, 132.171 89.3849, 130.439 84.6854 C 128.708 79.986, 130.314 78.9006, 134.028 82.2613 C 137.741 85.6219, 142.155 92.1559, 143.887 96.8554" fill="#c5bacb" fill-opacity="0.501961" />
<path d="M 54.4932 37.4013 L 63.3923 30.9356 L 67.5068 36.5987 L 58.6077 43.0644 Z" fill="#fbc5b8" fill-opacity="0.501961" />
<path d="M 193 55 L 203 55 L 203 62 L 193 62 Z" fill="#ffccc7" fill-opacity="0.501961" />
<path d="M 35.5568 39.3357 L 48.1138 35.971 L 50.4432 44.6643 L 37.8862 48.029 Z" fill="#2b304b" fill-opacity="0.501961" />
<path d="M 156 156 L 255 156 L 255 169 L 156 169 Z" fill="#c39c8b" fill-opacity="0.501961" />
<path d="M 82 63 L 73 17 L 70 58 Z" fill="#f4faff" fill-opacity="0.501961" />
<path d="M 37.4288 130.598 L 10.8043 123.066 L 0.855891 107.421 L 15.2447 101.855 Z" fill="#00775f" fill-opacity="0.501961" />
<path d="M 137.243 94.5147 C 139.586 99.201, 139.586 106.799, 137.243 111.485 C 134.899 116.172, 131.101 116.172, 128.757 111.485 C 126.414 106.799, 126.414 99.201, 128.757 94.5147 C 131.101 89.8284, 134.899 89.8284, 137.243 94.5147" fill="#6c132a" fill-opacity="0.501961" />
<path d="M 121.677 31.2597 L 112.689 31.7307 L 112.323 24.7403 L 121.311 24.2693 Z" fill="#2a324a" fill-opacity="0.501961" />
<path d="M 62 136 L 70 136 L 70 144 L 62 144 Z" fill="#053228" fill-opacity="0.501961" />
<path d="M 20.1624 102.608 L 32.6361 86.5463 L 21.3379 58.6434 L 12.3593 102.147 Z" fill="#1998f7" fill-opacity="0.501961" />
<path d="M 55.5012 146.04 L 35.9229 129.653 L 33.6864 140.913 L 33.4586 161.067 Z" fill="#000626" fill-opacity="0.501961" />
<path d="M 134.01 33.8375 L 205.888 -16 L 190.771 8.78159 L 112.759 21.1339 Z" fill="#f8f9fb" fill-opacity="0.501961" />
<path d="M 164.798 113.922 L 166.362 104.045 L 179.202 106.078 L 177.638 115.955 Z" fill="#a4fdff" fill-opacity="0.501961" />
<path d="M 70 114 L 77 114 L 77 125 L 70 125 Z" fill="#f0acba" fill-opacity="0.501961" />
<path d="M 56 101 L 64 88 L 62 78 Z" fill="#b3d5e1" fill-opacity="0.501961" />
<path d="M 236.578 71.7591 C 240.452 74.2802, 239.984 77.3354, 235.534 78.583 C 231.084 79.8306, 224.337 78.7982, 220.464 76.2771 C 216.59 73.756, 217.058 70.7008, 221.508 69.4532 C 225.958 68.2056, 232.705 69.238, 236.578 71.7591" fill="#393645" fill-opacity="0.501961" />
<path d="M 97 126 L 79 121 L 84 101 Z" fill="#10000f" fill-opacity="0.501961" />
<path d="M 45.3391 21.5782 L 36.9512 34.0137 L 28.6609 28.4218 L 37.0488 15.9863 Z" fill="#6fcbff" fill-opacity="0.501961" />
<path d="M 165.268 32.6086 L 157.92 41.1191 L 168.25 48.4226 L 194.028 3.28091 Z" fill="#8cc5ef" fill-opacity="0.501961" />
<path d="M 68 151 L 42 151 L 42 161 L 68 161 Z" fill="#777077" fill-opacity="0.501961" />
<path d="M 141 106 L 160 106 L 160 125 L 141 125 Z" fill="#001333" fill-opacity="0.501961" />
<path d="M 200.689 83.1239 L 204.081 85.2436 L 199.311 92.8761 L 195.919 90.7564 Z" fill="#e9a4a2" fill-opacity="0.501961" />
<path d="M 166 144 L 180 144 L 180 149 L 166 149 Z" fill="#31b0ff" fill-opacity="0.501961" />
<path d="M 70.8043 117.724 L 40.9589 97.5926 L 43.1957 94.2765 L 73.0411 114.407 Z" fill="#62e2c9" fill-opacity="0.501961" />
<path d="M 182 145 L 182 138 L 169 137 Z" fill="#020e24" fill-opacity="0.501961" />
<path d="M 215.159 143.338 L 271 133.343 L 206.93 126.934 L 217.767 147.701 Z" fill="#0e1837" fill-opacity="0.501961" />
<path d="M 226.303 47.5062 L 238.176 54.9251 L 229.697 68.4938 L 217.824 61.0749 Z" fill="#c69dab" fill-opacity="0.501961" />
<path d="M 91.3092 131.285 L 106.549 157.903 L 120.45 160.333 L 163.824 152.253 Z" fill="#5b535f" fill-opacity="0.501961" />
<path d="M 214.74 47.2782 C 211.444 48.0688, 208.868 45.9635, 208.987 42.576 C 209.106 39.1885, 211.874 35.8015, 215.17 35.0109 C 218.466 34.2204, 221.042 36.3256, 220.923 39.7131 C 220.804 43.1007, 218.036 46.4877, 214.74 47.2782" fill="#ffffff" fill-opacity="0.501961" />
<path d="M 71.887 144.447 L 72.1139 131.449 L 78.113 131.553 L 77.8861 144.551 Z" fill="#43d6ff" fill-opacity="0.501961" />
<path d="M 114.567 26.8896 L 115.406 27.4343 L 97.4328 55.1104 L 96.5941 54.5657 Z" fill="#204066" fill-opacity="0.501961" />
<path d="M 73.4886 76.9988 C 77.8804 78.2771, 78.9616 82.0707, 75.9035 85.4721 C 72.8454 88.8735, 66.806 90.5947, 62.4142 89.3165 C 58.0224 88.0383, 56.9413 84.2446, 59.9994 80.8432 C 63.0575 77.4418, 69.0968 75.7206, 73.4886 76.9988" fill="#3992c8" fill-opacity="0.501961" />
<path d="M 203 56 L 211 69 L 215 50 Z" fill="#563b37" fill-opacity="0.501961" />
<path d="M 8.72056 185 L 28.7828 120.155 L 8.52216 125.69 L -16 107.472 Z" fill="#001e50" fill-opacity="0.501961" />
<path d="M 155 -16 L 26 6 L 100 37 Z" fill="#f6f7f9" fill-opacity="0.501961" />
<path d="M 46.9187 71.3246 C 47.3517 64.4987, 49.5529 64.1921, 51.8351 70.6396 C 54.1173 77.0872, 55.6164 87.8474, 55.1834 94.6732 C 54.7504 101.499, 52.5493 101.806, 50.2671 95.3582 C 47.9849 88.9106, 46.4857 78.1504, 46.9187 71.3246" fill="#82472c" fill-opacity="0.501961" />
<path d="M 79 82 L 63 108 L 79 107 Z" fill="#154c90" fill-opacity="0.501961" />
<path d="M 46.7808 90.1756 L 44.2401 73.3847 L 57.8173 33.217 L 45.2052 42.8531 Z" fill="#362728" fill-opacity="0.501961" />
<path d="M 186 66 L 198 66 L 198 71 L 186 71 Z" fill="#763348" fill-opacity="0.501961" />
<path d="M 27.0753 167.6 C 24.2652 173.094, 22.7175 172.598, 23.6183 166.494 C 24.5191 160.39, 27.5273 150.987, 30.3374 145.494 C 33.1474 140, 34.6952 140.495, 33.7943 146.6 C 32.8935 152.704, 29.8853 162.106, 27.0753 167.6" fill="#41a7e2" fill-opacity="0.501961" />
<path d="M 151.142 126.293 C 158.953 126.683, 158.953 127.317, 151.142 127.707 C 143.332 128.098, 130.668 128.098, 122.858 127.707 C 115.047 127.317, 115.047 126.683, 122.858 126.293 C 130.668 125.902, 143.332 125.902, 151.142 126.293" fill="#dcb9a7" fill-opacity="0.501961" />
<path d="M 46.4853 109.464 C 51.1716 111.417, 51.1716 114.583, 46.4853 116.536 C 41.799 118.488, 34.201 118.488, 29.5147 116.536 C 24.8284 114.583, 24.8284 111.417, 29.5147 109.464 C 34.201 107.512, 41.799 107.512, 46.4853 109.464" fill="#0647aa" fill-opacity="0.501961" />
<path d="M 267 85 L 253 52 L 243 62 Z" fill="#fbfbf9" fill-opacity="0.501961" />
<path d="M 80 69 L 57 76 L 69 58 Z" fill="#0069d1" fill-opacity="0.501961" />
<path d="M 219.403 156.805 L 255.725 165.157 L 260.533 155.644 L 188.999 153.74 Z" fill="#906654" fill-opacity="0.501961" />
<path d="M 37.4319 62.4333 L 43.1337 74.5594 L 4.4072 64.727 L 39.6375 65.5928 Z" fill="#51b6e8" fill-opacity="0.501961" />
<path d="M 165.536 131.636 C 167.488 135.151, 167.488 140.849, 165.536 144.364 C 163.583 147.879, 160.417 147.879, 158.464 144.364 C 156.512 140.849, 156.512 135.151, 158.464 131.636 C 160.417 128.121, 163.583 128.121, 165.536 131.636" fill="#000013" fill-opacity="0.501961" />
<path d="M 175.185 118.5 C 176.773 112.16, 183.011 105.135, 189.118 102.808 C 195.225 100.481, 198.888 103.734, 197.3 110.073 C 195.712 116.413, 189.474 123.438, 183.367 125.765 C 177.26 128.092, 173.597 124.839, 175.185 118.5" fill="#162b59" fill-opacity="0.501961" />
<path d="M 194.739 24.8002 L 193.989 22.9458 L 203.261 19.1998 L 204.011 21.0542 Z" fill="#453031" fill-opacity="0.501961" />
<path d="M 79.6501 103.377 C 82.2565 91.6747, 87.0955 72.8598, 90.4583 61.3523 C 93.8211 49.8449, 94.4343 50.0026, 91.8279 61.7046 C 89.2215 73.4066, 84.3825 92.2215, 81.0197 103.729 C 77.6569 115.236, 77.0437 115.079, 79.6501 103.377" fill="#a4b5dd" fill-opacity="0.501961" />
<path d="M 95.9566 147.79 L 68.1653 151.202 L 68.0434 150.21 L 95.8347 146.798 Z" fill="#231024" fill-opacity="0.501961" />
<path d="M 109 89 L 105 74 L 116 71 Z" fill="#de958e" fill-opacity="0.501961" />
<path d="M 8 121 L 14 121 L 14 123 L 8 123 Z" fill="#9fc1e3" fill-opacity="0.501961" />
<path d="M 159.44 124.093 L 169.515 132.46 L 184.622 132.66 L 172.248 123.045 Z" fill="#eaa8a6" fill-opacity="0.501961" />
<path d="M 65 40 L 70 40 L 70 53 L 65 53 Z" fill="#895957" fill-opacity="0.501961" />
<path d="M 96 91 L 115 88 L 94 108 Z" fill="#0b0112" fill-opacity="0.501961" />
<path d="M 27 154 L 33 154 L 33 165 L 27 165 Z" fill="#0095e3" fill-opacity="0.501961" />
<path d="M 79 132 L 84 132 L 84 150 L 79 150 Z" fill="#180012" fill-opacity="0.501961" />
<path d="M 161.161 54.4541 L 179.546 72.8388 L 178.839 73.5459 L 160.454 55.1612 Z" fill="#363948" fill-opacity="0.501961" />
<path d="M 90 67 L 94 67 L 94 93 L 90 93 Z" fill="#83766a" fill-opacity="0.501961" />
<path d="M 204.243 32.7574 C 206.586 35.1005, 206.586 38.8995, 204.243 41.2426 C 201.899 43.5858, 198.101 43.5858, 195.757 41.2426 C 193.414 38.8995, 193.414 35.1005, 195.757 32.7574 C 198.101 30.4142, 201.899 30.4142, 204.243 32.7574" fill="#945861" fill-opacity="0.501961" />
<path d="M 120 61 L 122 61 L 122 78 L 120 78 Z" fill="#eae3e2" fill-opacity="0.501961" />
<path d="M 206.483 63.4421 C 209.379 65.4442, 210.804 69.7682, 209.665 73.1001 C 208.527 76.432, 205.256 77.5101, 202.359 75.508 C 199.463 73.5059, 198.038 69.1818, 199.176 65.8499 C 200.315 62.518, 203.586 61.44, 206.483 63.4421" fill="#f9afa7" fill-opacity="0.501961" />
<path d="M 238.796 6.07935 C 237.72 2.43522, 238.29 -3.24074, 240.068 -6.59827 C 241.847 -9.9558, 244.162 -9.72347, 245.238 -6.07935 C 246.313 -2.43522, 245.744 3.24074, 243.965 6.59827 C 242.186 9.9558, 239.872 9.72347, 238.796 6.07935" fill="#81c4f2" fill-opacity="0.501961" />
<path d="M 218.319 151.958 C 221.149 150.134, 226.17 148.774, 229.534 148.92 C 232.897 149.067, 233.33 150.665, 230.5 152.489 C 227.67 154.313, 222.65 155.673, 219.286 155.526 C 215.922 155.38, 215.49 153.782, 218.319 151.958" fill="#14213f" fill-opacity="0.501961" />
</g>
</svg>
