<svg version="1.1" width="5436" height="3624" xmlns="http://www.w3.org/2000/svg">
<rect x="0" y="0" width="5436" height="3624" fill="#71625a" />
<g transform="scale(21.2344, 21.3176)">
<path d="M 241.164 10.7492 L 29.3951 22.5644 L 24.7969 59.886 L 235.808 35.2401 Z" fill="#ffffff" fill-opacity="0.501961" />
<path d="M 271 179.035 L 247.452 23.1761 L 155.911 137.448 L -9.27969 180.22 Z" fill="#000000" fill-opacity="0.501961" />
<path d="M 104.367 24.1659 L 40.2211 155.232 L -16 146.693 L 16.2631 60.1997 Z" fill="#cabfb7" fill-opacity="0.501961" />
<path d="M 232.25 16.4205 L 137.998 19.1945 L 147.952 47.6187 L 239.731 30.9716 Z" fill="#ffffff" fill-opacity="0.501961" />
<path d="M 67.8958 171.649 L 121.658 179.008 L 145.33 161.273 L 59.7259 126.302 Z" fill="#000003" fill-opacity="0.501961" />
<path d="M 97.5994 174.735 L 108.916 88.4244 L 88.6104 43.1658 L 149.341 43.2253 Z" fill="#43200e" fill-opacity="0.501961" />
<path d="M 25.017 86.7726 L 43.167 77.134 L 114.49 76.715 L 21.4473 108.148 Z" fill="#5d2d06" fill-opacity="0.501961" />
<path d="M 258.991 86.5406 L 239.242 77.4235 L 146.277 153.055 L 263.1 185 Z" fill="#000000" fill-opacity="0.501961" />
<path d="M 151.852 130.34 L 113.327 137.267 L 119.734 148.357 L 128.449 151.848 Z" fill="#d7e2f6" fill-opacity="0.501961" />
<path d="M 6.10004 13.0028 L 83.7472 30.9843 L 84.4725 10.8629 L -16 -8.75476 Z" fill="#3b2614" fill-opacity="0.501961" />
<path d="M 92.7609 46.8485 L 80.2921 37.1263 L 89.3753 17.6181 L 132.132 27.7806 Z" fill="#ffffff" fill-opacity="0.501961" />
<path d="M 6.19273 178.053 L -16 95.5219 L 83.8812 106.482 L 17.2495 143.343 Z" fill="#a7b6d2" fill-opacity="0.501961" />
<path d="M 187.422 99.2655 L 168.131 86.5294 L 182.531 45.0768 L 162.054 65.5963 Z" fill="#f6d4c9" fill-opacity="0.501961" />
<path d="M 160.933 87.8562 L 246.062 66.7358 L 232.33 31.5316 L 195.827 41.2199 Z" fill="#80461d" fill-opacity="0.501961" />
<path d="M 3.94091 38.2944 L -5.00117 9.95652 L 17.972 29.7602 L 1.97721 43.3547 Z" fill="#fff0ce" fill-opacity="0.501961" />
<path d="M 236.412 10.0833 L 94.6281 39.7693 L 228.536 32.6415 L 245.554 39.5479 Z" fill="#ffffff" fill-opacity="0.501961" />
<path d="M 165.502 164.439 L 135.063 169.711 L 176.847 185 L 174.202 156.161 Z" fill="#efc4be" fill-opacity="0.501961" />
<path d="M 115.598 129.578 L 117.907 108.527 L 165.388 78.4026 L 157.098 115.993 Z" fill="#ce9978" fill-opacity="0.501961" />
<path d="M 40.5812 55.4936 L -1.48838 47.566 L 15.8608 36.475 L 36.6243 46.389 Z" fill="#190e04" fill-opacity="0.501961" />
<path d="M 78.8207 56.7739 L 51.1002 40.1642 L 67.0976 69.7514 L 112.289 61.4467 Z" fill="#ece1e1" fill-opacity="0.501961" />
<path d="M 69.1455 92.8522 L 84.0877 125.829 L 99.956 76.7784 L 130.96 90.3313 Z" fill="#ca866a" fill-opacity="0.501961" />
<path d="M 267.137 3.10384 L 163.516 14.2606 L 72.4479 15.0903 L 227.759 -2.39167 Z" fill="#1d2229" fill-opacity="0.501961" />
<path d="M 30.2142 15.681 L 28.18 11.4609 L 33.0325 11.619 L 118.068 27.4589 Z" fill="#e5d6d4" fill-opacity="0.501961" />
<path d="M 213.992 36.3426 L 226.092 32.9758 L 245.103 42.0801 L 232.396 59.2855 Z" fill="#000306" fill-opacity="0.501961" />
<path d="M 236.927 61.7979 L 250.244 63.7226 L 171.334 77.3437 L 178.05 55.2154 Z" fill="#bc7c55" fill-opacity="0.501961" />
<path d="M 158.689 120.449 L 143.047 122.941 L 152.623 133.273 L 191.995 139.135 Z" fill="#080a08" fill-opacity="0.501961" />
<path d="M 164.051 43.9495 L 143.007 63.3877 L 158.308 15.6773 L 236.352 30.8452 Z" fill="#fff4eb" fill-opacity="0.501961" />
<path d="M 79.1254 185 L -16 165.288 L 71.2244 116.561 L 47.9655 118.815 Z" fill="#5e7089" fill-opacity="0.501961" />
<path d="M 49.4525 7.02365 L 49.0927 -16 L 200.776 0.884803 L 139.757 7.65973 Z" fill="#c77436" fill-opacity="0.501961" />
<path d="M 82.0742 99.8868 L 112.832 51.0878 L 148.806 93.8902 L 84.2173 68.0956 Z" fill="#311204" fill-opacity="0.501961" />
<path d="M 190.772 120.994 L 206.097 47.3524 L 117.099 43.8049 L 194.448 41.6536 Z" fill="#563a21" fill-opacity="0.501961" />
<path d="M 62.0218 50.2151 L 86.8265 56.1537 L 84.0474 25.0573 L 71.0952 29.6642 Z" fill="#bd7b45" fill-opacity="0.501961" />
<path d="M 129.015 132.169 L 118.729 142.595 L 157.48 136.196 L 158.835 133.945 Z" fill="#eaedfa" fill-opacity="0.501961" />
<path d="M 90.6986 125.977 L 107.226 158.82 L 98.2083 151.266 L 74.3078 117.186 Z" fill="#8e99ab" fill-opacity="0.501961" />
<path d="M 116.395 92.4746 L 151.759 47.8676 L 136.187 56.5943 L 126.789 50.3766 Z" fill="#b35d41" fill-opacity="0.501961" />
<path d="M 68.0502 185 L 121.463 180.261 L 79.2076 137.584 L 66.2807 111.626 Z" fill="#000f10" fill-opacity="0.501961" />
<path d="M 207.28 69.3992 L 271 122.285 L 174.115 185 L 185.863 97.0797 Z" fill="#0a1012" fill-opacity="0.501961" />
<path d="M -8.78248 51.9174 L 73.4995 109.786 L 73.5019 113.719 L 60.5797 55.8252 Z" fill="#bb916d" fill-opacity="0.501961" />
<path d="M 232.287 -16 L 214.866 8.85755 L 155.853 19.1247 L 240.4 13.0511 Z" fill="#7b7786" fill-opacity="0.501961" />
<path d="M 76.1467 104.299 L 106.754 105.987 L 121.228 142.85 L 86.6194 118.673 Z" fill="#4a280c" fill-opacity="0.501961" />
<path d="M 252.001 56.9016 L 243.685 65.5157 L 236.305 -7.19033 L 255.537 -16 Z" fill="#6f3a1c" fill-opacity="0.501961" />
<path d="M 1.95378 85.4008 L 16.9369 117.816 L -9.4327 127.045 L -16 93.7516 Z" fill="#dad7de" fill-opacity="0.501961" />
<path d="M 134.01 16.6785 L 96.7718 15.8774 L 122.036 40.6531 L 146.496 46.0695 Z" fill="#eaa9a9" fill-opacity="0.501961" />
<path d="M 188.159 63.5912 L 166.779 37.0143 L 182.432 114.976 L 181.717 113.607 Z" fill="#cb9b8e" fill-opacity="0.501961" />
<path d="M 5.40629 -3.61097 L 15.4276 16.8483 L 19.8014 52.7426 L 29.3629 -16 Z" fill="#311100" fill-opacity="0.501961" />
<path d="M 85.2728 43.2972 L 125.501 23.9946 L 87.8039 20.2111 L 84.5225 25.0495 Z" fill="#ffffff" fill-opacity="0.501961" />
<path d="M 22.0631 61.3182 L 29.1461 89.2821 L 68.7478 101.118 L 24.8381 97.0171 Z" fill="#483615" fill-opacity="0.501961" />
<path d="M 24.5016 49.8462 L 28.9771 40.6453 L 97.8318 39.0913 L 25.0684 19.5547 Z" fill="#ded0b8" fill-opacity="0.501961" />
<path d="M 110.582 48.7 L 110.374 47.7615 L 95.543 44.0107 L 87.7936 59.672 Z" fill="#0c0b06" fill-opacity="0.501961" />
<path d="M -16 8.93516 L -16 8.95195 L 16.5025 7.25916 L 19.27 12.8085 Z" fill="#c7aba9" fill-opacity="0.501961" />
<path d="M 140.954 21.47 L 145.054 18.4916 L 241.872 17.3414 L 135.008 44.5056 Z" fill="#fffffe" fill-opacity="0.501961" />
<path d="M 58.576 52.6779 L 50.0995 43.0393 L 41.8603 45.3755 L 28.9053 53.7528 Z" fill="#81a64b" fill-opacity="0.501961" />
<path d="M 164.367 73.2381 L 167.229 60.7287 L 172.99 52.5126 L 175.58 71.9282 Z" fill="#fef2e8" fill-opacity="0.501961" />
<path d="M 158.414 77.2216 L 125.615 71.368 L 150.701 88.3093 L 144.981 41.3475 Z" fill="#c48372" fill-opacity="0.501961" />
<path d="M 34.7407 103.93 L 33.4585 115.383 L 83.1722 113.232 L 67.5341 100.822 Z" fill="#bebec8" fill-opacity="0.501961" />
<path d="M 167.374 47.4608 L 163.285 45.2008 L 155.886 49.4383 L 168.384 56.741 Z" fill="#080203" fill-opacity="0.501961" />
<path d="M 67.4546 7.32465 L 96.0196 20.7043 L 64.503 22.3686 L 79.2535 30.1261 Z" fill="#1c1917" fill-opacity="0.501961" />
<path d="M 123.465 100.622 L 122.862 85.1813 L 134.635 108.294 L 189.602 80.9672 Z" fill="#aa999a" fill-opacity="0.501961" />
<path d="M 69.8908 75.4123 L 26.6759 51.2506 L 34.0289 52.5121 L 77.3337 51.9074 Z" fill="#d7cbc2" fill-opacity="0.501961" />
<path d="M 130.973 37.2978 L 89.1542 41.267 L 129.543 52.0365 L 126.667 46.6877 Z" fill="#8691ac" fill-opacity="0.501961" />
<path d="M 133.228 15.2993 L 121.304 6.90414 L 73.8694 11.6757 L 90.7611 13.3345 Z" fill="#0f1818" fill-opacity="0.501961" />
<path d="M 170.68 102.196 L 164.364 107.531 L 197.184 114.914 L 192.815 113.892 Z" fill="#000703" fill-opacity="0.501961" />
<path d="M -16 12.964 L -5.37158 10.7204 L 80.4482 24.1361 L 63.6708 25.0974 Z" fill="#291f0f" fill-opacity="0.501961" />
<path d="M -4.15051 50.7112 L 3.43697 33.6735 L 4.60555 15.6185 L 16.3883 24.0944 Z" fill="#feb995" fill-opacity="0.501961" />
<path d="M 154.523 12.0253 L 123.669 27.8998 L 121.968 16.4462 L 201.038 18.9353 Z" fill="#8b8c95" fill-opacity="0.501961" />
<path d="M 118.191 85.63 L 96.667 88.2904 L 97.4858 76.0157 L 95.855 74.519 Z" fill="#c7b5b0" fill-opacity="0.501961" />
<path d="M 183.221 51.9345 L 189.038 38.5227 L 199.176 49.0096 L 194.121 61.1989 Z" fill="#251b0f" fill-opacity="0.501961" />
<path d="M 81.3873 75.9127 L 63.5228 79.827 L 96.89 88.9208 L 94.4181 78.3161 Z" fill="#380e07" fill-opacity="0.501961" />
<path d="M 182.555 113.352 L 142.225 118.507 L 156.509 123.21 L 158.017 106.301 Z" fill="#bca977" fill-opacity="0.501961" />
<path d="M 238.32 61.9661 L 226.043 73.6259 L 206.439 37.0842 L 230.026 58.6419 Z" fill="#bf7548" fill-opacity="0.501961" />
<path d="M 146.588 153.289 L 97.4092 153.287 L 154.547 163.929 L 165.745 156.423 Z" fill="#000000" fill-opacity="0.501961" />
<path d="M 127.543 142.489 L 152.724 149.825 L 150.64 153.496 L 90.6029 147.646 Z" fill="#556772" fill-opacity="0.501961" />
<path d="M 120.868 73.9598 L 113.158 79.443 L 110.074 49.9262 L 137.766 91.0765 Z" fill="#000800" fill-opacity="0.501961" />
<path d="M 95.8487 120.509 L 113.507 110.668 L 109.272 143.148 L 122.951 137.366 Z" fill="#151e1c" fill-opacity="0.501961" />
<path d="M 254.41 65.2353 L 254.018 47.1399 L 254.909 15.9504 L 255.151 68.948 Z" fill="#d1d1db" fill-opacity="0.501961" />
<path d="M 67.4599 90.9227 L 39.3331 90.3569 L 13.9701 83.1051 L 65.3619 61.2377 Z" fill="#a0774d" fill-opacity="0.501961" />
<path d="M 239.844 16.1126 L 240.643 40.6882 L 219.664 15.0426 L 234.002 13.2495 Z" fill="#fffdf7" fill-opacity="0.501961" />
<path d="M 174.836 162.275 L 169.696 184.962 L 106.422 185 L 127.596 185 Z" fill="#d6ddef" fill-opacity="0.501961" />
<path d="M 160.935 138.401 L 118.055 132.858 L 141.264 138.173 L 161.493 133.446 Z" fill="#d5d4df" fill-opacity="0.501961" />
<path d="M 168.271 124.77 L 151.942 104.739 L 191.506 136.508 L 271 57.6017 Z" fill="#282f31" fill-opacity="0.501961" />
<path d="M 94.5035 122.958 L 93.4312 90.5086 L 122.65 126.462 L 117.416 104.332 Z" fill="#947254" fill-opacity="0.501961" />
<path d="M 110.682 51.867 L 74.8203 64.6954 L 85.3828 74.4183 L 110.87 60.8722 Z" fill="#9f817f" fill-opacity="0.501961" />
<path d="M 61.1798 139.295 L 40.3088 122.359 L 69.7395 119.446 L 94.4656 139.296 Z" fill="#405265" fill-opacity="0.501961" />
<path d="M 31.1291 43.6395 L 37.7137 41.2282 L 36.96 14.3813 L 35.279 10.2233 Z" fill="#7c5d58" fill-opacity="0.501961" />
<path d="M 166.749 154.914 L 177.784 156.433 L 161.222 168.289 L 99.9364 185 Z" fill="#81513b" fill-opacity="0.501961" />
<path d="M 141.004 62.673 L 149.024 67.7216 L 135.241 79.3093 L 117.767 64.2036 Z" fill="#861f0b" fill-opacity="0.501961" />
<path d="M 22.5321 35.9753 L 9.17063 37.5504 L 6.41183 43.093 L 21.389 54.1471 Z" fill="#0b0600" fill-opacity="0.501961" />
<path d="M 109.482 95.6652 L 117.977 80.6568 L 123.041 73.5402 L 125.186 81.8148 Z" fill="#b19082" fill-opacity="0.501961" />
<path d="M 139.653 42.7623 L 150.134 52.6624 L 128.016 55.8321 L 75.8175 84.8081 Z" fill="#2d2319" fill-opacity="0.501961" />
<path d="M 207.004 40.4949 L 144.469 21.6887 L 238.131 15.2658 L 238.727 22.4378 Z" fill="#fffaf8" fill-opacity="0.501961" />
<path d="M 54.5319 42.9177 L 58.9013 62.0897 L 66.7649 24.2674 L 36.7237 23.7241 Z" fill="#e0dfd1" fill-opacity="0.501961" />
<path d="M 122.036 39.2628 L 109.96 28.7437 L 130.865 24.9569 L 141.098 35.1556 Z" fill="#ff9792" fill-opacity="0.501961" />
<path d="M 229.391 150.553 L 131.045 127.922 L 177.604 128.686 L 175.576 185 Z" fill="#070a0b" fill-opacity="0.501961" />
<path d="M 149.229 111.017 L 113.638 108.293 L 172.818 126.692 L 132.623 73.7393 Z" fill="#93674a" fill-opacity="0.501961" />
<path d="M 97.1574 122.731 L 83.0833 137.707 L 100.22 132.11 L 96.4817 118.371 Z" fill="#a4a3ac" fill-opacity="0.501961" />
<path d="M 169.675 64.6749 L 128.193 63.0636 L 121.101 39.5001 L 131.687 56.6971 Z" fill="#ac7c70" fill-opacity="0.501961" />
<path d="M 222.803 93.1769 L 145.515 79.6631 L 169.42 80.3316 L 177.071 69.5893 Z" fill="#643f37" fill-opacity="0.501961" />
<path d="M 51.4084 96.312 L 49.1343 91.7321 L 26.6983 88.9693 L 25.9532 104.04 Z" fill="#3d331d" fill-opacity="0.501961" />
<path d="M 247.074 63.7873 L 271 77.9149 L 236.877 95.4059 L 227.955 69.6129 Z" fill="#132845" fill-opacity="0.501961" />
<path d="M 232.422 9.47173 L 194.06 14.2595 L 223.142 7.89132 L 245.637 4.6457 Z" fill="#b5b5bf" fill-opacity="0.501961" />
<path d="M 101.147 141.721 L 92.9809 133.483 L 111.133 139.792 L 104.714 152.692 Z" fill="#0f1d19" fill-opacity="0.501961" />
<path d="M 127.83 108.916 L 155.355 99.7042 L 163.757 106.308 L 124.652 96.7817 Z" fill="#b3a9a9" fill-opacity="0.501961" />
<path d="M 127.349 91.329 L 84.2296 116.275 L 127.073 102.129 L 104.677 85.5342 Z" fill="#3f2f22" fill-opacity="0.501961" />
<path d="M 63.7636 21.5492 L 92.541 21.5503 L 82.3059 13.6693 L 154.479 19.2255 Z" fill="#9ca6b2" fill-opacity="0.501961" />
<path d="M 169.501 98.2643 L 173.131 97.6576 L 189.085 95.3553 L 168.805 95.2309 Z" fill="#000000" fill-opacity="0.501961" />
<path d="M 185.03 14.4682 L 94.6896 19.1374 L 146.285 13.9183 L 190.02 13.0414 Z" fill="#a1a5b3" fill-opacity="0.501961" />
<path d="M 100.756 110.429 L 66.3988 97.4519 L 67.5893 89.1622 L 84.2569 119.105 Z" fill="#aa5228" fill-opacity="0.501961" />
<path d="M 28.8865 53.1127 L 4.33196 64.5945 L 13.1509 62.7564 L 12.9155 111.105 Z" fill="#bda998" fill-opacity="0.501961" />
<path d="M 131.58 21.2253 L 142.164 22.0019 L 133.361 25.9368 L 123.635 23.3672 Z" fill="#5e6446" fill-opacity="0.501961" />
<path d="M 7.34489 78.4282 L 6.89822 57.9182 L -13.8798 69.9765 L -16 101.795 Z" fill="#a1431b" fill-opacity="0.501961" />
<path d="M 170.523 42.7253 L 142.097 24.8037 L 217.716 15.8296 L 182.806 43.4226 Z" fill="#fff6f1" fill-opacity="0.501961" />
<path d="M -16 150.345 L -16 156.481 L 70.9211 135.885 L 44.5379 122.827 Z" fill="#818798" fill-opacity="0.501961" />
<path d="M 189.601 88.1885 L 164.415 90.5399 L 178.367 83.1341 L 188.783 92.0982 Z" fill="#e3c6c9" fill-opacity="0.501961" />
<path d="M 156.829 54.5828 L 156.002 77.4054 L 164.065 72.8908 L 163.974 45.8043 Z" fill="#4d3023" fill-opacity="0.501961" />
<path d="M 176.488 42.4495 L 203.796 62.4824 L 193.57 85.33 L 177.909 63.6311 Z" fill="#955f3f" fill-opacity="0.501961" />
<path d="M 61.7946 62.6611 L 101.061 61.8308 L 66.3318 50.772 L 71.1406 77.8478 Z" fill="#dddbdd" fill-opacity="0.501961" />
<path d="M 110.648 57.5263 L 121.968 58.1182 L 113.946 81.3122 L 106.077 81.9187 Z" fill="#0e0900" fill-opacity="0.501961" />
<path d="M 216.77 80.0903 L 218.681 47.9822 L 222.801 67.3356 L 192.195 80.3089 Z" fill="#2c1600" fill-opacity="0.501961" />
<path d="M 87.8458 122.298 L 91.498 127.812 L 95.8934 126.71 L 86.3833 110.503 Z" fill="#290b00" fill-opacity="0.501961" />
<path d="M 56.1778 37.7632 L 85.5202 60.5732 L 88.8995 45.7888 L 74.3235 46.632 Z" fill="#8d7656" fill-opacity="0.501961" />
<path d="M 88.6511 40.7824 L 107.683 36.4175 L 122.53 20.9386 L 85.3566 24.6359 Z" fill="#fffffe" fill-opacity="0.501961" />
<path d="M 47.1288 68.7285 L 50.2281 87.2673 L 128.63 104.951 L 55.7226 79.7099 Z" fill="#78472d" fill-opacity="0.501961" />
<path d="M 38.1691 10.4995 L 17.9384 -11.2484 L -16 -10.0536 L 0.542828 5.62416 Z" fill="#191a14" fill-opacity="0.501961" />
<path d="M 154.022 117.918 L 165.47 115.889 L 219.976 129.572 L 209.122 123.442 Z" fill="#0a0b06" fill-opacity="0.501961" />
<path d="M 167.615 146.079 L 146.082 135.664 L 110.078 185 L 127.37 147.183 Z" fill="#22343b" fill-opacity="0.501961" />
<path d="M 57.3402 158.316 L 87.7034 130.301 L 58.6288 130.754 L 82.4845 106.869 Z" fill="#272c2b" fill-opacity="0.501961" />
<path d="M 163.21 103.235 L 160.711 74.3218 L 153.592 95.0851 L 181.362 103.593 Z" fill="#a89f8a" fill-opacity="0.501961" />
<path d="M 124.694 81.4318 L 129.821 98.5036 L 128.154 98.9247 L 150.156 84.3599 Z" fill="#40271f" fill-opacity="0.501961" />
<path d="M 95.5638 100.849 L 117.158 89.7369 L 92.321 90.9338 L 98.9159 149.275 Z" fill="#ad816f" fill-opacity="0.501961" />
<path d="M 150.115 116.717 L 174.514 127.207 L 166.7 119.063 L 111.205 120.662 Z" fill="#ba9582" fill-opacity="0.501961" />
<path d="M 181.552 15.3723 L 205.802 4.21103 L 223.123 0.986293 L 181.364 3.53864 Z" fill="#241f1e" fill-opacity="0.501961" />
<path d="M 242.578 60.7047 L 222.295 50.8537 L 210.893 39.7727 L 231.589 32.5675 Z" fill="#1e1e1a" fill-opacity="0.501961" />
<path d="M 139.193 85.0582 L 136.538 77.2611 L 157.636 65.8152 L 156.273 73.2395 Z" fill="#af8e83" fill-opacity="0.501961" />
<path d="M 16.5679 36.9301 L 15.4787 24.5461 L -7.7876 13.4402 L -11.0187 25.2383 Z" fill="#e4bba5" fill-opacity="0.501961" />
<path d="M 104.145 147.746 L 138.369 130.215 L 130.033 142.738 L 146.713 136.63 Z" fill="#c8c7d1" fill-opacity="0.501961" />
<path d="M 122.66 131.003 L 143.797 119.87 L 152.925 121.336 L 126.821 134.941 Z" fill="#623820" fill-opacity="0.501961" />
<path d="M 109.855 102.876 L 114.572 140.25 L 124.034 111.63 L 140.517 130.775 Z" fill="#6c5e50" fill-opacity="0.501961" />
<path d="M 71.0866 42.8116 L 69.5205 25.1424 L 78.7294 39.0399 L 81.9376 57.8977 Z" fill="#e9b496" fill-opacity="0.501961" />
<path d="M 7.63911 96.77 L 48.5813 104.758 L 13.8568 103.922 L 0.659496 9.65629 Z" fill="#896f64" fill-opacity="0.501961" />
<path d="M 178.235 58.6622 L 175.211 56.0017 L 157.843 35.6219 L 189.317 61.2064 Z" fill="#cba996" fill-opacity="0.501961" />
<path d="M -2.10895 79.8878 L 14.2722 67.9929 L 12.2611 77.6113 L -0.04363 77.3681 Z" fill="#4d352f" fill-opacity="0.501961" />
<path d="M 78.0363 64.195 L 76.0008 76.1816 L 106.725 76.6206 L 95.0789 68.797 Z" fill="#605b59" fill-opacity="0.501961" />
<path d="M 251.519 8.2578 L 271 -16 L 247.354 -2.57155 L 246.458 62.6535 Z" fill="#292827" fill-opacity="0.501961" />
<path d="M 92.0526 -16 L 74.8027 9.83696 L 118.87 7.80235 L 48.4571 4.29246 Z" fill="#c08c60" fill-opacity="0.501961" />
<path d="M 145.72 55.7018 L 139.432 76.7827 L 151.18 68.6218 L 138.944 58.8151 Z" fill="#3f2e28" fill-opacity="0.501961" />
<path d="M 134.068 120.981 L 117.095 122.193 L 127.804 129.997 L 133.238 126.591 Z" fill="#d68222" fill-opacity="0.501961" />
<path d="M 93.3669 172.83 L 109.515 146.753 L 106.554 144.057 L 129.304 185 Z" fill="#000000" fill-opacity="0.501961" />
<path d="M 191.834 70.3813 L 198.662 52.6365 L 175.868 48.8045 L 188.567 42.5774 Z" fill="#403121" fill-opacity="0.501961" />
<path d="M 81.6175 19.6535 L 79.3215 17.5242 L 88.2887 10.8832 L 59.6351 9.21731 Z" fill="#050601" fill-opacity="0.501961" />
<path d="M 84.7622 153.388 L 95.5633 174.876 L 79.1166 168.973 L 56.3022 132.523 Z" fill="#060808" fill-opacity="0.501961" />
<path d="M 166.781 154.577 L 155.595 109.832 L 157.67 118.067 L 195.417 145.065 Z" fill="#10191e" fill-opacity="0.501961" />
<path d="M 147.909 11.7847 L 165.507 13.9578 L 105.601 9.92916 L 171.533 3.25553 Z" fill="#384047" fill-opacity="0.501961" />
<path d="M 10.9308 11.7492 L 8.20811 19.6266 L 25.1561 17.6519 L 24.395 45.868 Z" fill="#8f430f" fill-opacity="0.501961" />
<path d="M 77.3271 96.0422 L 64.9148 77.6945 L 94.9389 85.3214 L 108.98 56.8021 Z" fill="#622c1b" fill-opacity="0.501961" />
<path d="M 118.471 149.805 L 167.729 161.621 L 136.029 159.429 L 137.316 179.278 Z" fill="#030200" fill-opacity="0.501961" />
<path d="M 117.886 122.046 L 107.969 134.015 L 99.0648 121.428 L 122.474 114.867 Z" fill="#1f1f18" fill-opacity="0.501961" />
<path d="M 176.29 108.427 L 152.501 110.005 L 152.329 89.9955 L 141.8 109.027 Z" fill="#565b64" fill-opacity="0.501961" />
<path d="M 63.3077 139.675 L 53.8537 130.279 L 47.9176 181.001 L 73.5247 173.75 Z" fill="#524e4a" fill-opacity="0.501961" />
<path d="M 253.479 12.6822 L 258.893 15.9737 L 271 -16 L 255.771 4.31844 Z" fill="#dfc8d3" fill-opacity="0.501961" />
<path d="M 93.9397 22.6706 L 84.0131 44.6483 L 80.7049 44.1512 L 96.2619 44.8165 Z" fill="#fcf7f4" fill-opacity="0.501961" />
<path d="M 265.05 -16 L 182.577 3.8031 L 151.22 3.75642 L 219.609 0.566409 Z" fill="#b09386" fill-opacity="0.501961" />
<path d="M 104.285 15.7212 L 112.819 12.7641 L 195.317 8.7789 L 148.303 13.3136 Z" fill="#0d1416" fill-opacity="0.501961" />
<path d="M -0.667358 47.9891 L -8.1383 36.6149 L 10.5005 56.1361 L 10.7819 60.8282 Z" fill="#442c29" fill-opacity="0.501961" />
<path d="M 123.568 101.582 L 99.5127 101.944 L 126.973 105.197 L 119.902 93.5445 Z" fill="#160e07" fill-opacity="0.501961" />
<path d="M 161.348 107.609 L 226.28 116.523 L 205.818 115.011 L 166.3 103.911 Z" fill="#090c0e" fill-opacity="0.501961" />
<path d="M 215.093 13.5954 L 190.058 17.51 L 212.133 11.8517 L 263.839 11.4084 Z" fill="#665759" fill-opacity="0.501961" />
<path d="M 134.046 40.6866 L 137.146 35.7489 L 153.836 56.758 L 160.143 45.6836 Z" fill="#e4bca5" fill-opacity="0.501961" />
<path d="M 36.173 11.4493 L 74.856 19.1909 L 97.689 24.1192 L 35.5292 14.9615 Z" fill="#b8a7a4" fill-opacity="0.501961" />
<path d="M 197.027 104.588 L 231.506 93.6517 L 213.248 82.8557 L 196.438 80.214 Z" fill="#2c3134" fill-opacity="0.501961" />
<path d="M 86.365 0.931922 L 187.506 -1.31947 L 97.4765 8.11585 L 60.1551 8.89927 Z" fill="#a15a29" fill-opacity="0.501961" />
<path d="M 174.056 83.1142 L 166.478 85.8812 L 165.217 77.6326 L 175.232 74.995 Z" fill="#351d1e" fill-opacity="0.501961" />
<path d="M 101.911 128.428 L 86.5723 132.292 L 80.4142 111.831 L 97.2269 136.576 Z" fill="#b3a19c" fill-opacity="0.501961" />
<path d="M 125.855 55.2652 L 120.763 46.3346 L 108.899 41.6592 L 130.818 37.7641 Z" fill="#6a7285" fill-opacity="0.501961" />
<path d="M 123.955 156.449 L 126.114 185 L 119.274 167.086 L 121.264 158.584 Z" fill="#605b58" fill-opacity="0.501961" />
<path d="M 246.54 63.3045 L 246.104 -0.459054 L 241.055 -16 L 239.344 41.5264 Z" fill="#824a28" fill-opacity="0.501961" />
<path d="M -16 -9.43378 L -16 2.15957 L 24.6281 11.0214 L -0.389724 10.9142 Z" fill="#aa9595" fill-opacity="0.501961" />
<path d="M 114.321 108.417 L 111.862 119.216 L 114.117 118.108 L 117.109 108.967 Z" fill="#ad9ca2" fill-opacity="0.501961" />
<path d="M 90.9858 0.637516 L 96.7389 -3.25353 L 69.1905 -16 L 66.9653 1.40352 Z" fill="#b3b6bc" fill-opacity="0.501961" />
<path d="M 101.32 83.8776 L 83.0135 105.112 L 75.7234 98.4405 L 86.5951 92.9643 Z" fill="#b78a7d" fill-opacity="0.501961" />
<path d="M 147.419 88.607 L 165.844 115.167 L 157.611 84.058 L 128.676 91.8644 Z" fill="#b5957d" fill-opacity="0.501961" />
<path d="M 139.27 19.0542 L 241.879 31.7586 L 152.537 39.5319 L 139.196 42.4513 Z" fill="#fff9f6" fill-opacity="0.501961" />
<path d="M 47.7061 38.2623 L 38.1715 48.4597 L 21.0713 47.2923 L 56.6435 49.666 Z" fill="#77ad54" fill-opacity="0.501961" />
<path d="M 177.927 75.7733 L 174.72 78.4046 L 184.839 89.196 L 190.962 96.8596 Z" fill="#c68c7c" fill-opacity="0.501961" />
<path d="M 105.553 48.1699 L 94.0737 70.9621 L 99.9621 63.2996 L 109.212 53.3415 Z" fill="#bc826f" fill-opacity="0.501961" />
<path d="M 142.675 142.212 L 120.017 142.809 L 146.683 133.285 L 117.898 132.721 Z" fill="#d2cfd4" fill-opacity="0.501961" />
<path d="M 144.688 98.4427 L 145.503 99.0155 L 166.329 97.5561 L 158.849 102.021 Z" fill="#a86b0e" fill-opacity="0.501961" />
<path d="M 50.5347 143.498 L 18.0675 151.27 L -10.8222 172.017 L 47.5563 185 Z" fill="#6e7582" fill-opacity="0.501961" />
<path d="M 25.1394 66.2955 L 28.1622 73.6349 L 23.247 83.2867 L 19.62 79.1187 Z" fill="#7e5629" fill-opacity="0.501961" />
<path d="M 69.8657 43.081 L 63.8707 40.088 L 60.8098 47.4838 L 76.4339 51.0485 Z" fill="#856047" fill-opacity="0.501961" />
<path d="M 94.3765 91.0874 L 107.11 82.9193 L 104.016 74.813 L 98.091 80.1483 Z" fill="#c2aaa5" fill-opacity="0.501961" />
<path d="M 106.661 7.00311 L 205.56 1.38334 L 129.825 6.57781 L 76.5116 10.3557 Z" fill="#a09790" fill-opacity="0.501961" />
<path d="M 187.303 122.802 L 178.355 133.202 L 202.469 134.467 L 167.007 112.132 Z" fill="#414549" fill-opacity="0.501961" />
<path d="M 16.8122 97.4375 L 18.9185 64.0364 L 9.22834 85.8362 L 30.9937 82.7871 Z" fill="#c7af97" fill-opacity="0.501961" />
<path d="M 68.3568 94.4943 L 89.149 110.883 L 96.9675 106.898 L 68.0306 101.592 Z" fill="#843812" fill-opacity="0.501961" />
<path d="M 271 93.3977 L 211.964 104.916 L 199.552 139.229 L 265.528 185 Z" fill="#0d0c0a" fill-opacity="0.501961" />
<path d="M 80.86 63.2327 L 78.969 27.7222 L 83.0427 22.9525 L 84.9248 38.5118 Z" fill="#be8459" fill-opacity="0.501961" />
<path d="M 93.8369 165.954 L 104.369 158.179 L 101.824 151.083 L 90.3033 141.892 Z" fill="#3f423c" fill-opacity="0.501961" />
<path d="M 227.951 5.86923 L 247.933 4.50203 L 238.923 15.8096 L 239.985 -0.148569 Z" fill="#3a332f" fill-opacity="0.501961" />
<path d="M 176.694 53.5835 L 161.82 50.8052 L 163.94 48.7659 L 164.367 47.3061 Z" fill="#0d1e21" fill-opacity="0.501961" />
<path d="M 100.812 43.5569 L 99.6088 56.9226 L 89.4639 50.4909 L 115.739 52.4012 Z" fill="#251d13" fill-opacity="0.501961" />
<path d="M 237.686 63.2162 L 233.684 68.2763 L 223.196 74.0611 L 226.863 61.1405 Z" fill="#c58262" fill-opacity="0.501961" />
<path d="M 153.994 106.88 L 183.476 111.336 L 177.58 118.555 L 148.388 97.8735 Z" fill="#808a86" fill-opacity="0.501961" />
<path d="M 160.326 115.505 L 129.832 106.196 L 127.207 114.224 L 131.292 115.085 Z" fill="#c77237" fill-opacity="0.501961" />
<path d="M 124.092 143.801 L 143.562 148.942 L 133.067 166.575 L 147.897 142.325 Z" fill="#152e3c" fill-opacity="0.501961" />
<path d="M -9.99366 150.196 L -16 81.4356 L 7.69476 90.2283 L 12.3415 79.1268 Z" fill="#cfc2c4" fill-opacity="0.501961" />
<path d="M 235.894 98.5305 L 216.458 79.1994 L 190.359 84.8991 L 206.808 73.9393 Z" fill="#0b0801" fill-opacity="0.501961" />
<path d="M 111.721 51.6515 L 90.4998 90.7411 L 81.5872 85.8251 L 82.4437 96.1765 Z" fill="#48200e" fill-opacity="0.501961" />
<path d="M 101.956 144.616 L 98.7092 148.205 L 69.1663 102.854 L 92.1987 136.016 Z" fill="#9394a2" fill-opacity="0.501961" />
<path d="M 97.6731 62.351 L 79.05 56.0923 L 89.9839 66.6519 L 98.5218 67.4432 Z" fill="#b7bcc7" fill-opacity="0.501961" />
<path d="M 59.849 24.6831 L 54.9654 19.7562 L 65.7067 22.1394 L 80.8804 26.9001 Z" fill="#201a0c" fill-opacity="0.501961" />
<path d="M 112.818 124.427 L 124.208 125.491 L 110.765 136.176 L 118.167 152.389 Z" fill="#857f77" fill-opacity="0.501961" />
<path d="M 174.99 125.066 L 172.344 138.133 L 176.924 114.449 L 163.437 117.742 Z" fill="#151910" fill-opacity="0.501961" />
<path d="M 63.5496 62.8046 L 75.9821 75.3471 L 65.1385 78.1444 L 72.6276 52.2491 Z" fill="#e6e5e5" fill-opacity="0.501961" />
<path d="M 241.053 56.1265 L 234.727 60.3204 L 232.696 32.9485 L 243.482 43.6223 Z" fill="#1f180f" fill-opacity="0.501961" />
<path d="M 136.924 71.6354 L 133.891 77.5979 L 126.528 73.4296 L 126.786 58.8975 Z" fill="#bb2301" fill-opacity="0.501961" />
<path d="M 140.959 177.891 L 180.67 157.791 L 165.465 152.405 L 163.525 164.311 Z" fill="#775551" fill-opacity="0.501961" />
<path d="M 139.216 57.9523 L 131.286 62.0128 L 125.497 61.2068 L 129.125 55.2291 Z" fill="#c7937e" fill-opacity="0.501961" />
<path d="M 113.119 150.506 L 147.062 149.105 L 155.279 144.019 L 150.574 152.331 Z" fill="#736e65" fill-opacity="0.501961" />
<path d="M 139.172 130.521 L 139.182 131.028 L 128.549 132.409 L 125.839 128.9 Z" fill="#091724" fill-opacity="0.501961" />
<path d="M 140.668 97.4306 L 124.034 96.4711 L 131.439 105.696 L 146.021 112.802 Z" fill="#b69d9d" fill-opacity="0.501961" />
<path d="M 227.575 77.2028 L 216.81 48.1274 L 218.414 77.5915 L 216.161 80.3779 Z" fill="#743e07" fill-opacity="0.501961" />
<path d="M 154.865 95.022 L 164.835 98.0839 L 134.213 64.9057 L 140.251 77.9425 Z" fill="#a18885" fill-opacity="0.501961" />
<path d="M 126.891 81.452 L 156.618 65.9542 L 141.931 69.8005 L 125.738 91.937 Z" fill="#2e2515" fill-opacity="0.501961" />
<path d="M 12.8874 67.2927 L -16 64.3623 L 12.0908 50.0789 L -16 78.799 Z" fill="#c17e65" fill-opacity="0.501961" />
<path d="M 68.1735 25.7425 L 59.2327 46.265 L 35.0915 35.5715 L 49.0527 23.5022 Z" fill="#d8d8c7" fill-opacity="0.501961" />
<path d="M 172.855 87.2482 L 194.336 89.236 L 170.127 91.7323 L 170.861 80.747 Z" fill="#cab4b5" fill-opacity="0.501961" />
<path d="M 7.05724 15.0449 L -16 14.5834 L 10.8684 10.5186 L 50.9126 -16 Z" fill="#3c2616" fill-opacity="0.501961" />
<path d="M 218.725 62.9535 L 227.936 50.5501 L 210.278 54.5155 L 175.588 86.5802 Z" fill="#a66e3d" fill-opacity="0.501961" />
<path d="M 123.514 89.149 L 108.795 83.7567 L 118.044 81.8695 L 124.028 77.0954 Z" fill="#c69e92" fill-opacity="0.501961" />
<path d="M 161.159 165.854 L 149.844 162.078 L 161.421 140.739 L 163.357 156.981 Z" fill="#0f0a03" fill-opacity="0.501961" />
<path d="M 1.0392 29.2137 L -16 31.6447 L -8.7339 69.5766 L 0.323691 14.4539 Z" fill="#feffff" fill-opacity="0.501961" />
<path d="M 84.8431 22.5806 L 68.5126 11.2675 L 76.9244 7.44611 L 86.3063 19.8992 Z" fill="#171715" fill-opacity="0.501961" />
<path d="M 109.284 57.51 L 108.15 53.5632 L 97.1628 69.3324 L 107.508 70.7508 Z" fill="#81452f" fill-opacity="0.501961" />
<path d="M 211.751 -12.442 L 174.763 16.9285 L 204.287 15.7646 L 172.219 18.8626 Z" fill="#584d54" fill-opacity="0.501961" />
<path d="M 179.911 96.9236 L 163.731 101.16 L 165.567 89.073 L 157.042 90.8507 Z" fill="#3d342f" fill-opacity="0.501961" />
<path d="M 8.81158 63.8047 L -16 57.0363 L -0.721637 49.8532 L -16 71.6569 Z" fill="#321706" fill-opacity="0.501961" />
<path d="M 252.595 66.7275 L 254.915 42.3582 L 255.196 55.6308 L 271 59.8725 Z" fill="#b9b1ac" fill-opacity="0.501961" />
<path d="M 5.25751 63.1351 L 31.2903 41.4045 L 39.5299 50.8897 L 35.4666 49.1276 Z" fill="#654f46" fill-opacity="0.501961" />
<path d="M 137.89 24.663 L 142.086 37.7516 L 111.977 35.826 L 114.959 24.9875 Z" fill="#ffa19c" fill-opacity="0.501961" />
<path d="M -16 19.4489 L 17.8555 59.4248 L 54.1716 49.7951 L 20.5415 68.8816 Z" fill="#b39f94" fill-opacity="0.501961" />
<path d="M 160.191 59.7181 L 143.806 66.4053 L 156.621 68.9192 L 147.976 75.1255 Z" fill="#c58c7a" fill-opacity="0.501961" />
<path d="M 58.104 0.347977 L 35.1843 10.8329 L 53.0473 -16 L 60.4384 29.1434 Z" fill="#66462b" fill-opacity="0.501961" />
<path d="M 46.559 80.7226 L 58.2517 93.1165 L 33.2863 85.0179 L 3.00159 90.0119 Z" fill="#ab9177" fill-opacity="0.501961" />
<path d="M 198.297 50.7676 L 197.396 57.2282 L 194.693 41.1337 L 186.081 46.7564 Z" fill="#0d0f0b" fill-opacity="0.501961" />
<path d="M 180.451 109.845 L 190.282 86.0611 L 183.732 98.0092 L 179.375 92.7983 Z" fill="#ca8972" fill-opacity="0.501961" />
<path d="M 47.317 75.6496 L 62.6972 85.336 L 52.328 101.949 L 63.2894 99.8598 Z" fill="#7c5528" fill-opacity="0.501961" />
<path d="M 249.901 64.4335 L 245.215 87.6925 L 249.479 -12.0889 L 249.91 52.1946 Z" fill="#20282c" fill-opacity="0.501961" />
<path d="M 174.77 64.7085 L 177.111 45.2956 L 166.805 60.634 L 162.936 61.5612 Z" fill="#d7c0b1" fill-opacity="0.501961" />
<path d="M 123.384 116.271 L 125.521 108.353 L 78.8793 77.7109 L 133.471 117.091 Z" fill="#633c26" fill-opacity="0.501961" />
<path d="M 158.992 121.867 L 150.028 108.053 L 162.777 110.632 L 141.346 135.255 Z" fill="#a88259" fill-opacity="0.501961" />
<path d="M 87.665 104.492 L 60.7787 88.3481 L 72.3621 91.5588 L 90.7366 101.771 Z" fill="#b38a84" fill-opacity="0.501961" />
<path d="M 111.686 141.283 L 111.89 105.796 L 108.107 147.429 L 98.5018 139.047 Z" fill="#0d0c07" fill-opacity="0.501961" />
<path d="M 147.284 97.7277 L 140.585 86.2951 L 146.611 83.9635 L 146.099 98.2194 Z" fill="#600d19" fill-opacity="0.501961" />
<path d="M 181.96 66.4754 L 173.824 81.6394 L 194.019 64.2512 L 162.66 72.8983 Z" fill="#c69081" fill-opacity="0.501961" />
<path d="M 215.814 70.3912 L 242.695 108.867 L 253.902 155.349 L 224.73 113.695 Z" fill="#251d14" fill-opacity="0.501961" />
<path d="M 240.749 16.8921 L 236.69 34.4972 L 181.255 22.2096 L 237.205 12.4606 Z" fill="#fef7f4" fill-opacity="0.501961" />
<path d="M 83.5529 13.294 L 109.343 16.6474 L 180.287 13.4197 L 118.66 22.9222 Z" fill="#a5a2ab" fill-opacity="0.501961" />
<path d="M 155.587 122.238 L 121.777 118.133 L 130.816 121.245 L 134.643 114.19 Z" fill="#dc8c73" fill-opacity="0.501961" />
<path d="M 94.4072 122.371 L 93.4081 119.329 L 85.9555 118.705 L 89.8658 124.265 Z" fill="#000808" fill-opacity="0.501961" />
<path d="M 33.8266 22.5259 L 22.8299 20.1546 L 26.3057 27.3355 L 27.8516 48.2048 Z" fill="#c1b8a7" fill-opacity="0.501961" />
<path d="M 63.3699 101.379 L -13.4504 121.925 L 36.5963 120.407 L 71.1279 103.022 Z" fill="#b1b7c4" fill-opacity="0.501961" />
<path d="M 60.3852 1.91874 L 68.1363 -7.86431 L 62.4819 -14.884 L 62.5905 6.12811 Z" fill="#ffe2b3" fill-opacity="0.501961" />
<path d="M 11.1571 48.9574 L 14.2335 34.8391 L 10.9754 38.0536 L 29.9995 52.0068 Z" fill="#0d0c0c" fill-opacity="0.501961" />
<path d="M 121.757 99.1 L 121.02 88.5796 L 115.449 89.2689 L 118.961 98.9444 Z" fill="#1b1814" fill-opacity="0.501961" />
<path d="M 170.107 52.574 L 156.762 53.8778 L 164.642 46.2181 L 172.293 53.2958 Z" fill="#0a1315" fill-opacity="0.501961" />
<path d="M 210.414 149.679 L 183.008 128.534 L 136.097 120.553 L 135.023 121.819 Z" fill="#231e1c" fill-opacity="0.501961" />
<path d="M 108.258 111.371 L 114.134 132.654 L 132.304 128.585 L 105.463 129.401 Z" fill="#1d1b15" fill-opacity="0.501961" />
<path d="M 40.6585 134.5 L 39.887 123.951 L 9.17589 111.473 L 17.7577 151.445 Z" fill="#999faf" fill-opacity="0.501961" />
<path d="M 118.991 50.5286 L 110.887 71.8681 L 93.0481 67.301 L 117.012 83.6692 Z" fill="#1d170b" fill-opacity="0.501961" />
<path d="M 154.488 24.3786 L 129.066 43.205 L 177.676 37.7001 L 213.063 36.781 Z" fill="#fdf5f0" fill-opacity="0.501961" />
<path d="M 80.2581 107.565 L 92.0651 104.052 L 90.2841 106.588 L 88.1396 119.985 Z" fill="#9e360a" fill-opacity="0.501961" />
<path d="M 151.355 159.946 L 150.558 159.072 L 164.637 185 L 140.407 168.676 Z" fill="#906e4d" fill-opacity="0.501961" />
<path d="M 11.7731 12.5528 L 30.2374 9.50224 L 16.554 22.6325 L 13.9355 3.57113 Z" fill="#281c11" fill-opacity="0.501961" />
<path d="M 271 9.20988 L 230.222 -16 L 227.071 11.9551 L 217.942 -12.943 Z" fill="#373534" fill-opacity="0.501961" />
<path d="M 241.711 63.9806 L 220.942 79.4618 L 243.641 69.5933 L 271 78.5889 Z" fill="#141826" fill-opacity="0.501961" />
<path d="M 177.334 124.848 L 161.658 118.826 L 165.358 125.05 L 176.511 127.571 Z" fill="#95856c" fill-opacity="0.501961" />
<path d="M 225.282 130.974 L 200.457 170.596 L 178.813 166.888 L 176.312 157.869 Z" fill="#050503" fill-opacity="0.501961" />
<path d="M 62.2903 149.853 L 82.6985 142.133 L 61.8414 123.964 L 96.0385 181.442 Z" fill="#0a0f0e" fill-opacity="0.501961" />
<path d="M 90.6077 115.88 L 92.3751 115.514 L 92.3168 124.563 L 87.1713 118.891 Z" fill="#000304" fill-opacity="0.501961" />
<path d="M 161.316 136.319 L 157.835 138.941 L 140.496 132.97 L 141.262 132.199 Z" fill="#cfd1e0" fill-opacity="0.501961" />
<path d="M -16 54.3957 L 7.55955 50.8621 L 13.3304 61.6232 L -12.7351 33.8949 Z" fill="#3f3331" fill-opacity="0.501961" />
<path d="M 215.741 175.091 L 204.066 167.733 L 182.172 185 L 201.621 174.125 Z" fill="#997f47" fill-opacity="0.501961" />
<path d="M 197.34 70.1279 L 179.491 42.285 L 138.496 43.2177 L 172.622 44.6949 Z" fill="#8e5f44" fill-opacity="0.501961" />
<path d="M 249.128 -3.68213 L 242.533 -16 L 242.158 13.481 L 239.85 19.5948 Z" fill="#b0663b" fill-opacity="0.501961" />
<path d="M 22.7635 95.8215 L 32.3347 107.955 L 21.3897 106.348 L 9.10639 102.413 Z" fill="#a18869" fill-opacity="0.501961" />
<path d="M 219.396 11.5422 L 183.442 14.5924 L 208.037 11.6904 L 224.993 6.43149 Z" fill="#b1afb9" fill-opacity="0.501961" />
<path d="M 178.264 104.553 L 158.754 101.913 L 180.454 98.7665 L 181.733 83.0946 Z" fill="#ada272" fill-opacity="0.501961" />
<path d="M 157.847 75.299 L 159.689 70.3964 L 172.479 79.197 L 172.571 77.0939 Z" fill="#301a1b" fill-opacity="0.501961" />
<path d="M 230.724 6.63791 L 238.84 7.23006 L 206.053 31.2764 L 234.666 17.9771 Z" fill="#efeaea" fill-opacity="0.501961" />
<path d="M 103.797 6.81285 L 120.248 18.5943 L 139.044 23.8068 L 127.833 25.3199 Z" fill="#646256" fill-opacity="0.501961" />
<path d="M 136.519 80.7821 L 124.968 81.95 L 125.237 88.8906 L 137.864 88.5103 Z" fill="#14210f" fill-opacity="0.501961" />
<path d="M 61.5431 21.8212 L 80.2688 23.5968 L 80.3526 -10.3194 L 80.2776 28.9738 Z" fill="#412108" fill-opacity="0.501961" />
<path d="M 95.9218 75.5787 L 92.353 75.0248 L 72.1984 64.1556 L 77.3263 75.7265 Z" fill="#7d7679" fill-opacity="0.501961" />
<path d="M 254.376 6.28717 L 262.882 28.1218 L 264.739 6.89046 L 271 -16 Z" fill="#f5e9fa" fill-opacity="0.501961" />
<path d="M 119.341 134.991 L 99.3161 130.132 L 127.466 137.221 L 101.482 138.61 Z" fill="#403b32" fill-opacity="0.501961" />
<path d="M 55.7459 10.1786 L 12.8243 -16 L 27.2005 1.02774 L 54.0025 4.03602 Z" fill="#ad6327" fill-opacity="0.501961" />
<path d="M 147.892 134.344 L 219.385 134.175 L 169.857 154.12 L 157.354 122.879 Z" fill="#101416" fill-opacity="0.501961" />
<path d="M 90.4509 20.8235 L 113.469 36.3578 L 127.939 38.6028 L 110.937 40.1945 Z" fill="#faedee" fill-opacity="0.501961" />
<path d="M 113.09 110.27 L 108.115 123.113 L 114.272 97.916 L 106.915 100.904 Z" fill="#191a0e" fill-opacity="0.501961" />
<path d="M 160.111 55.4338 L 156.344 61.8866 L 151.638 58.4952 L 151.901 55.174 Z" fill="#583417" fill-opacity="0.501961" />
<path d="M 144.989 18.503 L 134.066 21.6694 L 96.473 21.739 L 166.784 18.9856 Z" fill="#e9dfe2" fill-opacity="0.501961" />
<path d="M 94.6604 110.637 L 79.1937 119.066 L 84.2791 125.351 L 91.6004 109.043 Z" fill="#c98b66" fill-opacity="0.501961" />
<path d="M 18.3133 89.3363 L 41.836 65.9267 L 42.8398 100.344 L 51.5678 65.1106 Z" fill="#a38463" fill-opacity="0.501961" />
<path d="M 251.855 5.12256 L 250.18 8.28744 L 251.132 68.6431 L 253.671 8.9086 Z" fill="#93583a" fill-opacity="0.501961" />
<path d="M 112.194 128.497 L 133.318 139.126 L 121.226 129.937 L 127.321 122.222 Z" fill="#b6a890" fill-opacity="0.501961" />
<path d="M 135.449 41.8674 L 131.167 51.9135 L 138.15 56.1854 L 141.331 51.174 Z" fill="#2e261c" fill-opacity="0.501961" />
<path d="M 93.3312 16.5628 L 88.5917 4.661 L 92.2774 21.2007 L 96.2569 19.248 Z" fill="#564c46" fill-opacity="0.501961" />
<path d="M 43.6349 91.8645 L 31.5098 101.527 L 26.2404 100.126 L 26.0135 93.7373 Z" fill="#312714" fill-opacity="0.501961" />
<path d="M 156.374 79.9522 L 154.476 84.3525 L 147.267 79.4051 L 145.913 75.4214 Z" fill="#7a2c30" fill-opacity="0.501961" />
<path d="M 121.742 146.361 L 138.106 142.605 L 142.479 134.238 L 128.322 148.667 Z" fill="#bab3be" fill-opacity="0.501961" />
<path d="M 38.1595 48.8337 L 34.4552 43.9437 L 61.1936 29.6188 L 43.4605 41.7992 Z" fill="#dceac1" fill-opacity="0.501961" />
<path d="M 157.113 12.1707 L 177.019 -16 L 155.186 16.8284 L 141.458 18.6385 Z" fill="#716667" fill-opacity="0.501961" />
<path d="M 167.365 44.4658 L 155.67 45.2664 L 169.756 46.5116 L 135.074 16.923 Z" fill="#dcc4b7" fill-opacity="0.501961" />
<path d="M 130.764 133.19 L 132.916 143.268 L 142.677 139.527 L 149.302 130.787 Z" fill="#d3d0d9" fill-opacity="0.501961" />
<path d="M -11.3343 82.3382 L 7.23539 88.3877 L 14.6784 64.9237 L 3.39033 86.0886 Z" fill="#424b5a" fill-opacity="0.501961" />
<path d="M 155.641 79.0603 L 160.85 78.513 L 181.391 53.9603 L 165.775 73.061 Z" fill="#ceaa9e" fill-opacity="0.501961" />
<path d="M 165.037 64.6365 L 168.918 76.6618 L 174.838 74.5015 L 174.071 53.99 Z" fill="#decdc5" fill-opacity="0.501961" />
<path d="M 76.4577 4.29307 L 73.81 0.995135 L 38.2922 -4.51199 L 83.7334 -16 Z" fill="#e2d0bd" fill-opacity="0.501961" />
<path d="M 3.39934 37.721 L 9.68205 22.9544 L 14.5106 32.1097 L -5.30498 49.4382 Z" fill="#e6b7a2" fill-opacity="0.501961" />
<path d="M 152.984 83.6666 L 153.295 92.964 L 148.377 96.024 L 162.608 97.9167 Z" fill="#bdadab" fill-opacity="0.501961" />
<path d="M 114.255 136.558 L 75.8928 132.735 L 102.396 137.917 L 125.578 126.375 Z" fill="#555147" fill-opacity="0.501961" />
<path d="M 261.116 74.263 L 227.979 84.0277 L 235.503 70.1953 L 242.254 70.5507 Z" fill="#2e3b4f" fill-opacity="0.501961" />
<path d="M 52.8891 69.5395 L 55.3401 76.2802 L 41.6356 87.848 L 34.2634 103.921 Z" fill="#694f32" fill-opacity="0.501961" />
<path d="M 203.356 117.561 L 182.06 86.9445 L 190.398 116.851 L 200.778 67.1565 Z" fill="#252323" fill-opacity="0.501961" />
<path d="M 109.466 105.668 L 102.823 103.751 L 94.2374 96.394 L 79.2341 102.564 Z" fill="#a88e89" fill-opacity="0.501961" />
<path d="M 109.52 76.1261 L 103.422 72.6231 L 112.891 90.0906 L 108.632 92.7589 Z" fill="#3b2d22" fill-opacity="0.501961" />
<path d="M 4.52994 64.9893 L 69.1984 67.5561 L 29.5896 50.5272 L 5.25928 72.3535 Z" fill="#b8a291" fill-opacity="0.501961" />
<path d="M 126.111 122.936 L 140.514 125.831 L 140.746 126.677 L 116.99 124.9 Z" fill="#cf862d" fill-opacity="0.501961" />
<path d="M 252.908 56.6641 L 252.227 63.303 L 250.021 64.4471 L 254.039 21.3396 Z" fill="#6c3519" fill-opacity="0.501961" />
<path d="M 104.512 8.2393 L 96.7478 5.70645 L 103.964 45.3966 L 97.4943 10.3022 Z" fill="#c7b3a5" fill-opacity="0.501961" />
<path d="M 45.6838 159.161 L 61.4731 124.794 L 60.282 145.343 L 29.0469 136.618 Z" fill="#7a7b86" fill-opacity="0.501961" />
<path d="M 131.562 76.5779 L 133.161 78.3226 L 149.931 73.5615 L 143.806 79.8379 Z" fill="#c29e88" fill-opacity="0.501961" />
<path d="M 180.054 98.8864 L 169.429 100.176 L 169.447 97.896 L 177.416 90.7172 Z" fill="#322a24" fill-opacity="0.501961" />
<path d="M 166.624 83.6681 L 168.451 83.3015 L 140.4 89.2653 L 165.323 88.6011 Z" fill="#a18d96" fill-opacity="0.501961" />
<path d="M 83.8341 126.906 L 90.4463 137.789 L 79.3058 138.665 L 70.3236 125.758 Z" fill="#545e6c" fill-opacity="0.501961" />
<path d="M 92.9534 106.153 L 94.838 97.4731 L 89.4496 104.09 L 114.509 134.931 Z" fill="#56381e" fill-opacity="0.501961" />
<path d="M 142.647 13.0008 L 198.85 5.74285 L 211.314 9.81354 L 193.666 12.3798 Z" fill="#272d32" fill-opacity="0.501961" />
<path d="M 34.1565 4.9392 L -2.52244 4.2252 L 19.5438 -10.1444 L 36.9161 16.8048 Z" fill="#28221a" fill-opacity="0.501961" />
<path d="M 67.3419 25.5072 L 67.903 40.951 L 56.1101 35.2959 L 62.8872 28.2404 Z" fill="#e4e1d4" fill-opacity="0.501961" />
<path d="M 207.694 85.4525 L 211.356 54.5603 L 210.808 44.2013 L 213.753 56.6671 Z" fill="#583a15" fill-opacity="0.501961" />
<path d="M 113.829 23.24 L 113.624 37.8538 L 86.4797 40.7173 L 86.8811 20.4789 Z" fill="#fff7f4" fill-opacity="0.501961" />
<path d="M 197.809 16.0394 L 158.963 15.1619 L 202.122 11.755 L 154.318 59.5647 Z" fill="#c3bcc1" fill-opacity="0.501961" />
<path d="M 242.525 0.229665 L 165.871 16.6665 L 161.656 18.6798 L 205.777 6.08591 Z" fill="#746c71" fill-opacity="0.501961" />
<path d="M 110.022 157.374 L 167.178 157.394 L 106.128 149.768 L 93.6866 183.119 Z" fill="#020504" fill-opacity="0.501961" />
<path d="M 2.34066 42.6581 L 9.5816 39.6225 L 4.58476 50.1232 L -1.60359 44.8164 Z" fill="#595b77" fill-opacity="0.501961" />
<path d="M 161.921 102.417 L 141.405 103.834 L 139.715 98.8665 L 165.305 112.085 Z" fill="#8e9ba8" fill-opacity="0.501961" />
<path d="M 54.087 124.632 L 98.1179 152.416 L 71.6442 131.321 L 55.1031 122.149 Z" fill="#1b2930" fill-opacity="0.501961" />
<path d="M 166.9 5.07524 L 83.933 13.038 L 148.685 14.8189 L 126.407 7.02669 Z" fill="#2a2c2c" fill-opacity="0.501961" />
<path d="M 195.4 47.5856 L 179.032 69.7004 L 181.562 62.5174 L 193.078 61.6984 Z" fill="#553d2e" fill-opacity="0.501961" />
<path d="M 237.686 12.4876 L 238.612 2.66414 L 242.841 -0.157205 L 241.399 12.2819 Z" fill="#292f33" fill-opacity="0.501961" />
<path d="M 140.519 140.489 L 141.092 142.897 L 117.289 141.033 L 144.806 130.826 Z" fill="#d8d5db" fill-opacity="0.501961" />
<path d="M 92.8337 45.9608 L 80.7188 43.6604 L 87.045 55.1501 L 78.2927 55.7949 Z" fill="#8b7f54" fill-opacity="0.501961" />
<path d="M 105.739 59.6123 L 132.339 54.2944 L 109.38 53.9253 L 112.927 55.7208 Z" fill="#26190c" fill-opacity="0.501961" />
<path d="M 66.4841 54.7973 L 68.8656 25.2785 L 67.4451 18.1832 L 70.4608 33.0452 Z" fill="#7a716d" fill-opacity="0.501961" />
<path d="M 187.445 53.3785 L 182.916 73.8696 L 191.021 65.2345 L 176.612 51.1495 Z" fill="#bd806a" fill-opacity="0.501961" />
<path d="M 254.644 58.8527 L 253.742 57.3665 L 255.2 36.7476 L 254.161 18.823 Z" fill="#dbcacb" fill-opacity="0.501961" />
<path d="M 110.009 49.579 L 107.092 41.7598 L 95.7933 43.3266 L 125.918 44.6486 Z" fill="#9996a5" fill-opacity="0.501961" />
<path d="M 81.4774 110.187 L 57.2606 101.53 L 40.0571 100.004 L 35.2697 117.619 Z" fill="#b0b1ba" fill-opacity="0.501961" />
<path d="M 91.0934 50.4204 L 87.8134 33.665 L 94.7802 42.628 L 109.311 20.6646 Z" fill="#e4e4e7" fill-opacity="0.501961" />
<path d="M 134.324 15.4044 L 105.702 15.6996 L 71.2694 9.73551 L 148.783 12.5593 Z" fill="#212524" fill-opacity="0.501961" />
<path d="M 11.0421 78.9702 L 19.5569 60.7074 L 17.5862 72.4863 L 15.2339 83.8737 Z" fill="#c8beb8" fill-opacity="0.501961" />
<path d="M 81.0433 94.2322 L 91.9775 88.5071 L 96.5067 80.3754 L 92.7904 80.5867 Z" fill="#331406" fill-opacity="0.501961" />
<path d="M 177.305 43.1615 L 188.043 41.9302 L 182.534 37.3431 L 142.996 39.1623 Z" fill="#f0dac8" fill-opacity="0.501961" />
<path d="M 159.745 111.404 L 147.732 101.228 L 159.506 108.953 L 171.055 104.911 Z" fill="#444236" fill-opacity="0.501961" />
<path d="M 28.1242 19.11 L 25.1497 43.8446 L 29.032 42.9432 L 34.0708 42.6322 Z" fill="#c3beae" fill-opacity="0.501961" />
<path d="M 86.4926 56.6774 L 104.513 49.7204 L 93.3873 47.6199 L 93.1416 49.1564 Z" fill="#24221c" fill-opacity="0.501961" />
<path d="M 99.3306 116.959 L 95.2555 115.253 L 95.5338 123.273 L 95.4262 132.79 Z" fill="#b19978" fill-opacity="0.501961" />
<path d="M 230.921 86.5361 L 219.134 83.2109 L 199.123 77.2275 L 207.243 72.1265 Z" fill="#120a00" fill-opacity="0.501961" />
<path d="M 218.518 70.8379 L 232.445 47.2867 L 212.444 71.9739 L 230.706 86.6687 Z" fill="#65350c" fill-opacity="0.501961" />
<path d="M 221.119 84.2859 L 211.639 97.4376 L 181.141 84.2111 L 203.249 82.6808 Z" fill="#3f3937" fill-opacity="0.501961" />
<path d="M 76.8073 79.7176 L 68.109 82.7484 L 68.6192 76.7489 L 97.6828 78.838 Z" fill="#281c19" fill-opacity="0.501961" />
<path d="M 63.8654 109.537 L 64.8319 93.9996 L 67.4784 75.9876 L 60.1329 36.419 Z" fill="#b99886" fill-opacity="0.501961" />
<path d="M 7.00369 40.0544 L 17.6219 6.11378 L 19.6427 10.1776 L 16.244 12.8354 Z" fill="#b68b6f" fill-opacity="0.501961" />
<path d="M 193.965 17.4315 L 217.678 15.6207 L 165.716 26.7215 L 211.271 40.0084 Z" fill="#faf4f2" fill-opacity="0.501961" />
<path d="M 160.533 85.8142 L 153.795 73.8966 L 174.152 93.9913 L 153.02 94.2929 Z" fill="#9b7365" fill-opacity="0.501961" />
<path d="M 161.843 3.97564 L 134.247 5.28325 L 129.904 7.58504 L 115.21 7.22294 Z" fill="#b1a69f" fill-opacity="0.501961" />
<path d="M 2.52612 36.9215 L 2.60678 29.8217 L -16 45.6902 L -3.85469 35.8455 Z" fill="#30241b" fill-opacity="0.501961" />
<path d="M 181.333 43.1019 L 200.477 39.5109 L 187.352 37.8855 L 188.329 40.625 Z" fill="#ae7b63" fill-opacity="0.501961" />
<path d="M 101.161 85.0059 L 115.22 100.665 L 119.292 104.244 L 113.863 94.5958 Z" fill="#816d58" fill-opacity="0.501961" />
<path d="M 86.6132 82.9611 L 87.4962 90.8796 L 66.9604 80.608 L 55.5246 92.0722 Z" fill="#844227" fill-opacity="0.501961" />
<path d="M 66.5556 58.8909 L 64.0302 60.6368 L 75.2383 52.1828 L 66.9405 73.2294 Z" fill="#f1efed" fill-opacity="0.501961" />
<path d="M 180.74 112.712 L 165.058 103.909 L 163.318 108.706 L 178.269 104.159 Z" fill="#0d0e09" fill-opacity="0.501961" />
<path d="M 168.086 113.531 L 152.445 113.644 L 131.649 109.223 L 179.087 111.872 Z" fill="#b7a075" fill-opacity="0.501961" />
<path d="M 110.125 92.3313 L 112.017 95.0092 L 92.1657 91.1339 L 102.956 91.0845 Z" fill="#be8878" fill-opacity="0.501961" />
<path d="M 150.032 139.069 L 145.436 137.648 L 135.619 150.237 L 141.537 148.761 Z" fill="#00293b" fill-opacity="0.501961" />
<path d="M 217.585 57.4505 L 218.546 66.7771 L 216.772 69.217 L 210.436 34.2143 Z" fill="#b78244" fill-opacity="0.501961" />
<path d="M 42.2234 -0.051268 L 24.3953 19.5755 L 56.5648 23.9419 L 26.8402 14.9872 Z" fill="#4e4f48" fill-opacity="0.501961" />
<path d="M 104.961 140.414 L 100.348 92.385 L 117.109 99.6245 L 105.336 98.0131 Z" fill="#634935" fill-opacity="0.501961" />
<path d="M 121.108 64.8676 L 113.283 76.7924 L 105.488 73.2144 L 131.526 78.084 Z" fill="#362a11" fill-opacity="0.501961" />
<path d="M 99.5773 65.8834 L 67.9216 62.1434 L 80.6338 55.8817 L 89.5679 57.0084 Z" fill="#bbbac0" fill-opacity="0.501961" />
<path d="M 240.509 4.21489 L 194.074 10.4477 L 220.925 7.93132 L 238.77 1.02473 Z" fill="#2c3033" fill-opacity="0.501961" />
<path d="M 13.92 94.0482 L 13.4108 106.633 L -13.8627 94.1359 L 8.93148 97.7007 Z" fill="#cab29f" fill-opacity="0.501961" />
<path d="M 145.983 108.793 L 152.481 108.241 L 145.395 97.5713 L 148.197 97.0044 Z" fill="#414650" fill-opacity="0.501961" />
<path d="M 50.4789 81.553 L 50.4852 93.8563 L 88.1447 96.3293 L 56.805 94.7269 Z" fill="#af9685" fill-opacity="0.501961" />
<path d="M 88.0603 136.329 L 85.4495 120.592 L 72.363 128.198 L 98.2861 127.42 Z" fill="#a1989f" fill-opacity="0.501961" />
<path d="M 78.4553 167.787 L 76.9294 185 L 65.1672 172.4 L 65.3461 151.387 Z" fill="#332f23" fill-opacity="0.501961" />
<path d="M 67.3153 76.2473 L 52.079 61.9465 L 54.5592 84.4565 L 68.5749 76.6954 Z" fill="#ab8662" fill-opacity="0.501961" />
<path d="M 6.28264 12.4812 L -16 7.27485 L -16 15.9309 L 26.7659 12.9519 Z" fill="#220f02" fill-opacity="0.501961" />
<path d="M 127.958 89.9204 L 118.777 100.942 L 124.55 98.1423 L 135.827 88.5307 Z" fill="#8d785f" fill-opacity="0.501961" />
<path d="M 6.5264 55.5759 L 7.34132 64.0827 L 15.9433 56.8321 L 16.2891 72.7264 Z" fill="#9793a4" fill-opacity="0.501961" />
<path d="M 8.59423 16.3936 L 16.7655 23.1419 L 8.40405 25.0507 L 6.80685 30.8086 Z" fill="#d39e74" fill-opacity="0.501961" />
<path d="M 145.936 157.985 L 180.394 146.526 L 142.021 137.307 L 171.722 140.332 Z" fill="#030c13" fill-opacity="0.501961" />
<path d="M 117.782 122.864 L 160.2 126.106 L 147.817 120.219 L 155.897 121.567 Z" fill="#753a14" fill-opacity="0.501961" />
<path d="M 210.912 0.873348 L 163.322 11.0927 L 185.495 14.6304 L 189.867 11.7037 Z" fill="#28292a" fill-opacity="0.501961" />
<path d="M 125.959 14.4234 L 115.101 21.1796 L 45.981 9.46327 L 110.21 19.8514 Z" fill="#645e5f" fill-opacity="0.501961" />
<path d="M 139.401 157.074 L 136.581 167.777 L 144.899 185 L 147.894 185 Z" fill="#554a44" fill-opacity="0.501961" />
<path d="M 6.64335 45.1683 L 2.9208 44.9739 L 23.5869 53.6585 L 8.45399 51.6535 Z" fill="#7e4a31" fill-opacity="0.501961" />
<path d="M 62.0048 139.569 L 55.4321 132.227 L 45.4876 134.309 L 51.5233 140.895 Z" fill="#565a63" fill-opacity="0.501961" />
<path d="M 133.876 44.0227 L 200.675 42.974 L 127.387 42.4216 L 131.135 42.4168 Z" fill="#996d53" fill-opacity="0.501961" />
<path d="M 136.661 26.0244 L 130.059 48.8432 L 140.377 35.4947 L 107.777 38.3156 Z" fill="#fdaaa3" fill-opacity="0.501961" />
<path d="M 111.771 113.351 L 113.254 109.551 L 97.0449 127.554 L 101.228 126.677 Z" fill="#161713" fill-opacity="0.501961" />
<path d="M 222.038 33.33 L 234.276 33.3124 L 240.542 14.5294 L 212.278 15.3095 Z" fill="#fbf4f2" fill-opacity="0.501961" />
<path d="M 256.21 52.468 L 271 100.724 L 229.482 90.9923 L 254.185 80.4635 Z" fill="#151e24" fill-opacity="0.501961" />
<path d="M 184.882 101.181 L 192.26 89.0187 L 222.051 127.641 L 180.66 124.307 Z" fill="#151a1d" fill-opacity="0.501961" />
<path d="M 137.971 94.6924 L 129.713 96.4731 L 146.115 84.9859 L 134.34 88.727 Z" fill="#441b1b" fill-opacity="0.501961" />
<path d="M 23.9324 123.817 L 61.693 112.59 L 79.0047 105.656 L 61.09 121.72 Z" fill="#8b8b9a" fill-opacity="0.501961" />
<path d="M 7.68555 135.438 L 18.4936 156.638 L 7.69617 157.735 L -16 171.604 Z" fill="#868a96" fill-opacity="0.501961" />
</g>
</svg>
